<svg xmlns="http://www.w3.org/2000/svg" class="fill-current"  height="48" viewBox="0 96 960 960" width="48"><path d="M286.882 339Q266 339 251.5 353.618q-14.5 14.617-14.5 35.5Q237 410 251.618 424.5q14.617 14.5 35.5 14.5Q308 439 322.5 424.382q14.5-14.617 14.5-35.5Q337 368 322.382 353.5q-14.617-14.5-35.5-14.5Zm0 414Q266 753 251.5 767.618q-14.5 14.617-14.5 35.5Q237 824 251.618 838.5q14.617 14.5 35.5 14.5Q308 853 322.5 838.382q14.5-14.617 14.5-35.5Q337 782 322.382 767.5q-14.617-14.5-35.5-14.5ZM154 217h651q16 0 25.5 9.5t9.5 25.813V521q0 17.425-9.5 29.213Q821 562 805 562H154q-15 0-24.5-11.787Q120 538.425 120 521V252.313q0-16.313 9.5-25.813T154 217Zm26 60v225h600V277H180Zm-26 353h647q15 0 27 12.5t12 28.527V935q0 20-12 30.5T801 976H159q-16 0-27.5-10.5T120 935V671.027q0-16.027 9.5-28.527T154 630Zm26 60v226h600V690H180Zm0-413v225-225Zm0 413v226-226Z"/></svg>
