<svg width="169" height="36" viewBox="0 0 169 36" fill="none" xmlns="http://www.w3.org/2000/svg">
    <g clip-path="url(#clip0_313_723)">
        <path fill-rule="evenodd" clip-rule="evenodd"
              d="M15.5631 24.0146C17.5699 23.5123 19.5099 22.7738 21.3425 21.8145C20.3903 26.2386 18.2473 29.7708 14.9136 32.4109C12.5533 31.904 10.3585 30.8116 8.53153 29.2345C6.7172 27.6834 5.30634 25.7158 4.41992 23.5003C7.43254 25.0184 11.1469 25.1899 15.5631 24.0146Z"
              fill="#242E5F"></path>
        <path fill-rule="evenodd" clip-rule="evenodd"
              d="M23.1124 17.5984C26.1192 20.2903 28.1608 23.8925 28.9248 27.8538C27.5873 29.3649 25.9463 30.5775 24.1086 31.4126C22.1915 32.2848 20.1082 32.7323 18.0017 32.7244C17.5248 32.7355 17.0478 32.7051 16.5762 32.6337C19.1833 30.7104 21.0547 27.6238 22.1904 23.3738L23.1124 17.5984Z"
              fill="#242E5F"></path>
        <path fill-rule="evenodd" clip-rule="evenodd"
              d="M11.8346 4.82099C13.7619 3.90814 15.8693 3.43828 18.002 3.44589C18.2772 3.44589 18.6873 3.47065 19.2597 3.5229C16.7333 5.60755 15.005 8.8216 14.0748 13.1651C13.6172 15.098 13.4064 17.0811 13.4473 19.067C9.99071 16.2453 7.81198 12.7351 6.91113 8.5365C8.27249 6.9657 9.95019 5.69962 11.8346 4.82099V4.82099Z"
              fill="#242E5F"></path>
        <path fill-rule="evenodd" clip-rule="evenodd"
              d="M26.9456 12.3732C28.6072 12.4611 30.2489 12.7757 31.8251 13.3083C32.384 14.8414 32.6636 16.4621 32.6507 18.0936C32.6729 21.1123 31.7438 24.0615 29.9949 26.523C29.5748 23.2466 27.73 20.0884 24.4605 17.0486L19.7324 13.4733C22.0448 12.6512 24.4931 12.2778 26.9456 12.3732V12.3732Z"
              fill="#242E5F" stroke="currentColor" stroke-width="0.5" stroke-miterlimit="10"></path>
        <path fill-rule="evenodd" clip-rule="evenodd"
              d="M26.887 6.47408C28.6999 7.86488 30.1695 9.65245 31.183 11.6994C28.1154 10.537 24.4854 10.6553 20.2931 12.0542L14.9375 14.4744C15.6714 10.1199 17.5841 6.53275 20.6756 3.71289C22.9391 4.11757 25.0706 5.06508 26.887 6.47408Z"
              fill="#242E5F"></path>
        <path fill-rule="evenodd" clip-rule="evenodd"
              d="M4.0458 22.5484C3.59441 21.1038 3.35705 19.601 3.34127 18.0876C3.31608 14.9104 4.35777 11.8166 6.29976 9.30078C6.64835 12.623 8.42345 15.838 11.625 18.9457C13.0349 20.3561 14.6104 21.5908 16.3173 22.6227C12.3443 24.0348 8.00139 24.0085 4.0458 22.5484V22.5484Z"
              fill="#242E5F"></path>
        <path d="M34.4698 17.978C34.4698 17.4665 34.4451 16.9604 34.3955 16.4599L35.9257 16.3169C35.8764 15.7633 35.7993 15.2126 35.6945 14.6668L34.1836 14.9418C34.0901 14.4413 33.9745 13.9462 33.8341 13.4622L35.312 13.0414C35.1606 12.5106 34.9817 11.9798 34.7808 11.4655L33.347 12.0156C33.1626 11.5426 32.9562 11.0778 32.7305 10.6267L34.1066 9.93919C33.8589 9.44416 33.5864 8.95737 33.2809 8.48984L31.9765 9.30115C31.7067 8.87212 31.4187 8.455 31.1123 8.04981L32.337 7.12024C32.004 6.68296 31.6462 6.25394 31.2719 5.84691L30.1381 6.88373C29.7968 6.5097 29.4363 6.15218 29.062 5.81115L30.094 4.67532C29.6867 4.30405 29.2546 3.94652 28.8143 3.61375L27.8896 4.84309C27.4841 4.53873 27.0649 4.25271 26.6319 3.98503L27.441 2.67869C26.9704 2.38717 26.4805 2.1149 25.9879 1.87013L25.3027 3.24523C24.8513 3.01971 24.3862 2.8162 23.9266 2.63193L24.477 1.19908C23.9624 0.998319 23.4312 0.82231 22.9001 0.6738L22.4818 2.15065C21.9974 2.01681 21.5039 1.90222 21.0011 1.80688L21.2764 0.297021C20.7259 0.198014 20.1755 0.121011 19.6251 0.0715076L19.4875 1.60336C18.9949 1.55936 18.4995 1.53461 17.9959 1.53461H17.9684V0C17.4179 0 16.8675 0.0275016 16.3171 0.077005L16.4602 1.60886C15.9511 1.65562 15.4502 1.72712 14.9548 1.81788L14.6796 0.308024C14.1292 0.409781 13.5925 0.53904 13.0614 0.690301L13.4825 2.16715C12.9926 2.30833 12.5119 2.47059 12.0404 2.65394L11.4899 1.22109C10.9753 1.42185 10.4634 1.64736 9.96804 1.89488L10.6588 3.26998C10.2056 3.49733 9.76347 3.74485 9.33231 4.01253L8.50669 2.70619C8.03884 2.99771 7.57924 3.31673 7.13065 3.6495L8.06085 4.87334C7.65721 5.18136 7.26734 5.50588 6.89122 5.84691L5.85369 4.71383C5.44638 5.0851 5.05007 5.48113 4.6813 5.88816L5.81791 6.92223C5.47665 7.28892 5.15282 7.67945 4.84642 8.09381L3.619 7.167C3.28599 7.60703 2.9695 8.06906 2.68053 8.5421L3.98777 9.35065C3.7199 9.77968 3.47405 10.2225 3.25021 10.679L1.87417 9.9942C1.62923 10.4892 1.40357 11.0008 1.20267 11.5151L2.63925 12.0651C2.45762 12.5354 2.29524 13.0167 2.15764 13.5062L0.677018 13.0909C0.528406 13.6217 0.401812 14.1662 0.299984 14.708L1.81088 14.983C1.72006 15.4753 1.65126 15.9786 1.60722 16.4874L0.0743116 16.3499C0.0247741 16.8999 0 17.45 0 18V18.0193H1.53842C1.53842 18.5308 1.56318 19.0368 1.60997 19.5374L0.077058 19.6776C0.129348 20.2277 0.206413 20.7777 0.30824 21.3277L1.81913 21.0527C1.9127 21.5532 2.02829 22.0483 2.1659 22.5323L0.688021 22.9531C0.839385 23.4839 1.01828 24.0147 1.21918 24.529L2.65301 23.9789C2.83648 24.4538 3.04197 24.9167 3.26948 25.3678L1.89343 26.0553C2.13837 26.5503 2.41358 27.0371 2.7053 27.5074L4.00979 26.6824C4.27949 27.1114 4.56663 27.5285 4.87119 27.9337L3.64651 28.8633C3.97951 29.3005 4.33729 29.7296 4.70882 30.1366L5.84543 29.1025C6.18669 29.4765 6.54721 29.8341 6.9215 30.1751L5.88671 31.3109C6.29402 31.6822 6.72609 32.0397 7.16643 32.3725L8.09113 31.1459C8.4966 31.4503 8.91492 31.7363 9.34608 32.004L8.53697 33.3103C9.00757 33.6018 9.49469 33.8741 9.99007 34.1189L10.6753 32.7438C11.1267 32.9693 11.5918 33.1756 12.0679 33.3571L11.5175 34.7927C12.0321 34.9907 12.5633 35.1667 13.0944 35.318L13.5155 33.8411C13.9999 33.9786 14.4925 34.0914 14.9961 34.1849L14.7209 35.6975C15.2713 35.7965 15.8217 35.8735 16.3721 35.923L16.5125 34.3911C17.0106 34.4379 17.5115 34.4626 18.0206 34.4626V36C18.5711 36 19.1215 35.9752 19.6719 35.923L19.5315 34.3939C20.0407 34.3471 20.5415 34.2756 21.0369 34.1849L21.3121 35.6947C21.8625 35.593 22.413 35.4665 22.9331 35.3152L22.512 33.8383C23.0019 33.6972 23.4826 33.5358 23.9541 33.3543L24.5045 34.7872C25.0192 34.5864 25.5311 34.3609 26.0237 34.1134L25.3384 32.7383C25.7916 32.5128 26.2338 32.2662 26.6649 31.9985L27.4768 33.3021C27.9447 33.027 28.407 32.697 28.8528 32.3642L27.9254 31.1377C28.329 30.8333 28.7189 30.5097 29.095 30.1668L30.1298 31.2999C30.5371 30.9286 30.9334 30.5326 31.3049 30.1256L30.1683 29.0915C30.5096 28.7248 30.8334 28.3352 31.1398 27.9227L32.3673 28.8495C32.7003 28.4095 33.0167 27.9474 33.3085 27.4744L32.0012 26.6494C32.2764 26.2203 32.5131 25.7775 32.7415 25.321L34.1176 26.0086C34.3653 25.5135 34.5909 25.002 34.7918 24.4877L33.3552 23.9377C33.5387 23.4683 33.7002 22.9879 33.8396 22.4966L35.3175 22.9173C35.4688 22.3838 35.5927 21.8393 35.6973 21.2975L34.1864 21.0225C34.2763 20.5274 34.3451 20.026 34.3928 19.5181L35.9257 19.6584C35.9752 19.1083 36 18.5583 36 18.0083V17.9697L34.4698 17.978ZM18.0014 33.0463C14.0365 33.0419 10.2352 31.466 7.43155 28.6643C4.62792 25.8626 3.05093 22.064 3.04656 18.1018C3.05166 14.1398 4.62889 10.3415 7.43235 7.54C10.2358 4.73846 14.0367 3.16232 18.0014 3.15722C21.9663 3.16159 25.7676 4.7375 28.5712 7.5392C31.3748 10.3409 32.9518 14.1396 32.9562 18.1018C32.9525 22.0642 31.3758 25.8633 28.572 28.6651C25.7682 31.467 21.9665 33.0427 18.0014 33.0463Z"
              fill="#242E5F"></path>
        <path fill-rule="evenodd" clip-rule="evenodd"
              d="M113.192 10.4501V12.8501C112.584 12.8501 111.952 12.8501 111.3 12.8501C110.852 12.8501 110.392 12.8501 109.912 12.8501H109.604C109.506 12.8441 109.407 12.8441 109.308 12.8501C109.168 12.8501 109.02 12.8501 108.868 12.8501C108.317 12.8416 107.765 12.8804 107.22 12.9661C106.87 13.0054 106.531 13.1156 106.224 13.2901C106.017 13.4062 105.853 13.5857 105.756 13.8021C105.673 14.111 105.636 14.4303 105.644 14.7501V17.0021H112.508V19.2861H105.644V25.1581H102.844V14.7581C102.803 13.9332 102.96 13.1105 103.3 12.3581C103.578 11.8017 104.023 11.3459 104.572 11.0541C105.175 10.7535 105.829 10.5702 106.5 10.5141C107.24 10.4501 108.036 10.4181 108.9 10.4181H109.34C109.439 10.4121 109.538 10.4121 109.636 10.4181H109.944C110.4 10.4181 110.864 10.4181 111.332 10.4181L113.192 10.4501Z"
              fill="#F68645"></path>
        <path fill-rule="evenodd" clip-rule="evenodd"
              d="M126.52 12.9462C126.303 12.2994 125.9 11.7315 125.36 11.3142C124.779 10.9216 124.115 10.6696 123.42 10.5782C122.506 10.463 121.585 10.4096 120.664 10.4182C119.687 10.4049 118.711 10.4705 117.744 10.6142C117.053 10.6987 116.395 10.9575 115.832 11.3662C115.329 11.7953 114.971 12.3696 114.808 13.0102C114.576 13.9043 114.471 14.8267 114.496 15.7502V19.6822C114.469 20.6608 114.58 21.6383 114.824 22.5862C114.998 23.2455 115.368 23.8367 115.884 24.2822C116.445 24.7007 117.1 24.9754 117.792 25.0822C118.743 25.2255 119.703 25.2911 120.664 25.2782C121.614 25.289 122.563 25.2181 123.5 25.0662C124.204 24.9481 124.869 24.6628 125.44 24.2342C125.972 23.7992 126.359 23.2136 126.552 22.5542C126.805 21.624 126.92 20.6617 126.892 19.6982V15.7662C126.926 14.812 126.8 13.8589 126.52 12.9462ZM124.088 15.7462V19.6782C124.101 20.2427 124.046 20.8068 123.924 21.3582C123.823 21.737 123.613 22.0778 123.32 22.3382C123.012 22.5736 122.646 22.7202 122.26 22.7622C121.73 22.8351 121.195 22.8672 120.66 22.8582C120.087 22.8643 119.514 22.8375 118.944 22.7782C118.571 22.7462 118.216 22.6073 117.92 22.3782C117.669 22.1091 117.499 21.7752 117.428 21.4142C117.33 20.8437 117.287 20.265 117.3 19.6862V15.7542C117.299 15.2739 117.342 14.7946 117.428 14.3222C117.471 13.9817 117.626 13.6651 117.868 13.4222C118.154 13.172 118.505 13.0082 118.88 12.9502C119.466 12.8361 120.063 12.7864 120.66 12.8022C121.195 12.7966 121.73 12.8286 122.26 12.8982C122.638 12.9297 123.002 13.0533 123.32 13.2582C123.609 13.4768 123.826 13.7781 123.94 14.1222C124.074 14.6538 124.124 15.2031 124.088 15.7502V15.7462Z"
              fill="#F68645"></path>
        <path fill-rule="evenodd" clip-rule="evenodd"
              d="M140.009 12.202C140.335 12.9711 140.501 13.7986 140.497 14.634V15.434H137.697V14.634C137.71 14.2916 137.665 13.9495 137.565 13.622C137.464 13.3889 137.278 13.2029 137.045 13.102C136.747 12.9602 136.426 12.8761 136.097 12.854C135.697 12.822 135.189 12.806 134.581 12.806C134.007 12.7958 133.434 12.84 132.869 12.938C132.489 12.9963 132.132 13.1566 131.837 13.402C131.585 13.6913 131.427 14.0494 131.381 14.43C131.294 14.9963 131.255 15.569 131.265 16.142V19.37C131.256 19.9649 131.289 20.5597 131.365 21.15C131.414 21.5315 131.566 21.8925 131.805 22.194C132.078 22.4745 132.432 22.6633 132.817 22.734C133.398 22.8303 133.987 22.8732 134.577 22.862C135.133 22.862 135.621 22.862 136.045 22.814C136.396 22.795 136.74 22.7067 137.057 22.554C137.328 22.4217 137.543 22.1958 137.661 21.9179C137.797 21.5247 137.858 21.1096 137.841 20.694V19.894H140.641V20.826C140.711 21.6885 140.574 22.5552 140.241 23.354C139.979 23.8978 139.544 24.3395 139.005 24.61C138.399 24.9125 137.737 25.0842 137.061 25.114C136.322 25.1593 135.495 25.2033 134.581 25.246C133.532 25.3175 132.478 25.2462 131.449 25.034C130.757 24.8816 130.124 24.5363 129.621 24.038C129.147 23.5232 128.83 22.8832 128.709 22.194C128.543 21.2956 128.461 20.3836 128.465 19.47V16.126C128.438 15.1622 128.554 14.1997 128.809 13.27C128.997 12.5863 129.376 11.9703 129.901 11.494C130.447 11.048 131.098 10.7504 131.793 10.63C132.716 10.4624 133.654 10.3861 134.593 10.402C135.505 10.402 136.315 10.4233 137.025 10.466C137.659 10.4888 138.282 10.6441 138.853 10.922C139.363 11.2164 139.768 11.6643 140.009 12.202V12.202Z"
              fill="#F68645"></path>
        <path fill-rule="evenodd" clip-rule="evenodd"
              d="M151.901 10.5298H154.725V20.9058C154.766 21.7324 154.604 22.5564 154.253 23.3058C153.982 23.8612 153.54 24.3153 152.993 24.6018C152.396 24.9151 151.741 25.1029 151.069 25.1538C150.321 25.2178 149.505 25.2538 148.621 25.2538C147.737 25.2538 146.957 25.2178 146.221 25.1538C145.55 25.103 144.897 24.9151 144.301 24.6018C143.749 24.3098 143.303 23.8524 143.025 23.2938C142.674 22.5446 142.513 21.7202 142.557 20.8938V10.5178H145.357V20.8938C145.348 21.2125 145.387 21.5308 145.473 21.8378C145.562 22.085 145.734 22.2931 145.961 22.4258C146.266 22.6038 146.606 22.7155 146.957 22.7538C147.502 22.8282 148.051 22.8603 148.601 22.8498C149.135 22.8549 149.67 22.8282 150.201 22.7698C150.556 22.746 150.901 22.6449 151.213 22.4738C151.449 22.3307 151.632 22.1144 151.733 21.8578C151.842 21.5485 151.892 21.2216 151.881 20.8938L151.901 10.5298Z"
              fill="#F68645"></path>
        <path fill-rule="evenodd" clip-rule="evenodd"
              d="M164.853 10.4978C165.448 10.5242 166.031 10.674 166.565 10.9378C167.078 11.1919 167.496 11.6042 167.757 12.1138C168.088 12.8163 168.239 13.5902 168.197 14.3658V14.8218H165.397V14.3658C165.411 14.0486 165.362 13.7319 165.253 13.4338C165.173 13.2263 165.023 13.0535 164.829 12.9458C164.582 12.8155 164.308 12.743 164.029 12.7338C163.701 12.7338 163.293 12.7338 162.805 12.7338C162.097 12.7338 161.533 12.7538 161.109 12.7978C160.766 12.8176 160.432 12.9118 160.129 13.0738C160.02 13.1281 159.924 13.2041 159.845 13.2969C159.767 13.3897 159.708 13.4975 159.673 13.6138C159.588 13.9224 159.551 14.2419 159.561 14.5618C159.551 14.9176 159.584 15.2734 159.657 15.6218C159.683 15.7413 159.736 15.8532 159.813 15.9489C159.889 16.0446 159.986 16.1215 160.097 16.1738C160.398 16.3273 160.725 16.4224 161.061 16.4538C161.481 16.4938 162.061 16.5378 162.789 16.5818C163.909 16.6511 164.842 16.7324 165.589 16.8258C166.185 16.9096 166.761 17.1051 167.285 17.4018C167.723 17.6796 168.047 18.1054 168.197 18.6018C168.396 19.3133 168.484 20.0514 168.457 20.7898C168.491 21.6142 168.37 22.4377 168.101 23.2178C167.891 23.7667 167.513 24.2356 167.021 24.5578C166.473 24.894 165.854 25.0942 165.213 25.1418C164.4 25.2236 163.582 25.2623 162.765 25.2578C161.965 25.2578 161.165 25.2578 160.433 25.2098C159.757 25.1897 159.092 25.0403 158.473 24.7698C157.909 24.519 157.437 24.0998 157.121 23.5698C156.753 22.8254 156.585 21.9985 156.633 21.1698V20.4858H159.433V21.1698C159.419 21.5029 159.469 21.8356 159.581 22.1498C159.698 22.3944 159.904 22.5849 160.157 22.6818C160.47 22.8193 160.807 22.8967 161.149 22.9098C161.586 22.9338 162.13 22.9458 162.781 22.9458C163.288 22.9526 163.794 22.9245 164.297 22.8618C164.612 22.8247 164.911 22.7015 165.161 22.5058C165.373 22.3411 165.524 22.1101 165.589 21.8498C165.648 21.501 165.675 21.1475 165.669 20.7938C165.691 20.4025 165.624 20.0115 165.473 19.6498C165.34 19.3945 165.111 19.2019 164.837 19.1138C164.503 18.9909 164.149 18.9286 163.793 18.9298C163.393 18.9298 162.929 18.9018 162.373 18.8658C161.573 18.8258 160.841 18.7738 160.157 18.7178C159.524 18.6694 158.908 18.4939 158.345 18.2018C157.827 17.9292 157.407 17.5012 157.145 16.9778C156.824 16.2046 156.679 15.3698 156.721 14.5338C156.685 13.7264 156.835 12.9215 157.161 12.1818C157.441 11.652 157.88 11.2237 158.417 10.9578C159.022 10.6734 159.677 10.5129 160.345 10.4858C161.085 10.4298 161.893 10.4058 162.773 10.4058C163.485 10.4178 164.181 10.4418 164.853 10.4978Z"
              fill="#F68645"></path>
        <path d="M59.0047 24.3657C58.1896 24.8229 57.3144 25.1635 56.4047 25.3777C55.5005 25.5933 54.5742 25.702 53.6447 25.7017C52.5939 25.7154 51.5501 25.5295 50.5687 25.1537C49.6737 24.8081 48.8575 24.2857 48.1687 23.6177C47.4748 22.9466 46.9296 22.1371 46.5687 21.2417C46.1798 20.2677 45.9867 19.2264 46.0007 18.1777C45.9865 17.1185 46.1894 16.0676 46.5967 15.0897C46.9752 14.1944 47.5381 13.3889 48.2487 12.7257C48.959 12.0639 49.7902 11.5451 50.6967 11.1977C51.6573 10.827 52.6792 10.6411 53.7087 10.6497C54.632 10.6475 55.5499 10.7905 56.4287 11.0737C57.314 11.3667 58.1164 11.8673 58.7687 12.5337L57.4927 13.8657C56.9979 13.3398 56.3927 12.93 55.7207 12.6657C55.0448 12.3857 54.3203 12.2416 53.5887 12.2417C52.8039 12.2342 52.0257 12.3853 51.3007 12.6857C50.6148 12.9712 49.9932 13.3915 49.4727 13.9217C48.9507 14.4616 48.5426 15.1009 48.2727 15.8017C47.9757 16.5666 47.8277 17.3812 47.8367 18.2017C47.8308 19.0102 47.9787 19.8125 48.2727 20.5657C48.544 21.2694 48.9518 21.9124 49.4727 22.4577C50.0005 22.9997 50.6371 23.4237 51.3407 23.7017C52.1041 24.0051 52.9192 24.1573 53.7407 24.1497C54.3535 24.1459 54.964 24.0735 55.5607 23.9337C56.1652 23.8056 56.7502 23.5985 57.3007 23.3177V18.9177H54.0047V17.3377H59.0007L59.0047 24.3657Z"
              fill="#FFFFFF"></path>
        <path d="M62.5566 11.002H71.5606V12.602H64.2566V17.094H71.0766V18.67H64.2566V23.77H71.9246V25.346H62.5566V11.002Z"
              fill="#FFFFFF"></path>
        <path d="M79.2166 11.002H80.8166L86.9086 25.326H84.9086L83.4526 21.806H76.2886L74.8126 25.326H72.8926L79.2166 11.002ZM79.9846 13.186H79.9446L76.9566 20.242H82.8046L79.9846 13.186Z"
              fill="#FFFFFF"></path>
        <path d="M88.8051 11.002H92.4651C93.1523 11.0013 93.8389 11.0427 94.5211 11.126C95.1562 11.1932 95.7747 11.3706 96.3491 11.65C96.8889 11.9225 97.344 12.3374 97.6651 12.85C98.0275 13.4925 98.1982 14.2254 98.1571 14.962C98.1767 15.4287 98.1025 15.8947 97.939 16.3323C97.7755 16.77 97.5259 17.1704 97.2051 17.51C96.4859 18.1972 95.5614 18.6299 94.5731 18.742L98.6411 25.338H96.5571L92.6731 18.906H90.4891V25.338H88.7891L88.8051 11.002ZM90.5051 17.314H92.0211C92.4931 17.314 92.9811 17.314 93.4891 17.274C93.9647 17.2536 94.4349 17.1647 94.8851 17.01C95.2908 16.8745 95.6537 16.6344 95.9371 16.314C96.2329 15.9236 96.3752 15.4383 96.3371 14.95C96.3579 14.5177 96.2537 14.0886 96.0371 13.714C95.8364 13.4095 95.5609 13.1616 95.2371 12.994C94.8875 12.8222 94.5116 12.71 94.1251 12.662C93.7125 12.6093 93.297 12.5826 92.8811 12.582H90.4811L90.5051 17.314Z"
              fill="#FFFFFF"></path>
    </g>
    <defs>
        <clipPath id="clip0_313_723">
            <rect width="169" height="36" fill="#242E5F"></rect>
        </clipPath>
    </defs>
</svg>
