<svg width="129" height="70" viewBox="0 0 129 70" fill="none" xmlns="http://www.w3.org/2000/svg">
<path fill-rule="evenodd" clip-rule="evenodd" d="M84.5823 31.33L88.5023 38.47L122.832 25.73L84.5823 31.33Z" fill="#19F9F3"/>
<path fill-rule="evenodd" clip-rule="evenodd" d="M39.9323 38.47L43.8523 31.33L5.60229 25.73L39.9323 38.47Z" fill="#16D6D1"/>
<path d="M127.562 32.13C130.082 28.83 126.732 24.29 122.842 25.73L88.5123 38.47L64.2323 47.48L89.4223 59.31L101.752 65.1C102.322 64.82 102.842 64.43 103.242 63.91L104.312 62.51L127.572 32.13H127.562Z" fill="#17DDD8"/>
<path d="M64.2223 47.48V69.78L100.432 65.5C100.892 65.45 101.332 65.3 101.742 65.1L89.4123 59.31L64.2223 47.48Z" fill="#16D6D1"/>
<path d="M64.2223 47.48L26.7023 65.09C27.1123 65.29 27.5523 65.44 28.0223 65.49L64.2323 69.77V47.47L64.2223 47.48Z" fill="#17DDD8"/>
<path d="M39.9323 38.47L5.6023 25.73C1.7123 24.29 -1.6477 28.83 0.8723 32.13L25.2023 63.9C25.6023 64.42 26.1123 64.81 26.6923 65.09L64.2123 47.48L39.9323 38.47Z" fill="#18EFE9"/>
<path d="M88.5023 38.47L84.5823 31.33L68.8923 2.77C67.8823 0.92 66.0523 0 64.2223 0V47.48L88.5023 38.47Z" fill="#18EFE9"/>
<path d="M39.9324 38.47L64.2224 47.48V0C62.3924 0 60.5624 0.92 59.5524 2.76L55.9024 9.41L45.7624 27.87L43.8724 31.31L39.9524 38.45L39.9324 38.47Z" fill="#19F9F3"/>
</svg>
