<svg fill="none" height="605" width="2500" xmlns="http://www.w3.org/2000/svg" viewBox="0 0 875.004 212"><g fill="#fff"><path d="M843.999 31.11c3.585 3.598 7.818 5.396 12.7 5.396 5.034 0 9.343-1.798 12.928-5.396 3.585-3.597 5.377-7.844 5.377-12.742s-1.792-9.184-5.377-12.858C866.042 1.837 861.733 0 856.699 0c-4.882 0-9.115 1.837-12.7 5.51-3.585 3.674-5.377 7.96-5.377 12.858s1.792 9.145 5.377 12.742zM457.976 78.074c0 .376-.305.681-.681.681h-25.176v47.756c0 3.98.992 6.888 2.975 8.725s4.881 2.87 8.695 3.1c3.489.21 7.744.196 12.765-.043l.129-.006.232-.011.344-.018c.39-.02.717.291.717.681v25.536a.68.68 0 0 1-.605.676l-.462.05c-19.724 2.11-33.669.158-41.837-5.857-8.314-6.123-12.471-17.067-12.471-32.833V78.755h-19.226a.681.681 0 0 1-.681-.68v-27.11c0-.375.305-.68.681-.68h19.226V31.323c0-.54.319-1.028.812-1.246l27.75-12.255a.68.68 0 0 1 .956.623v31.84h25.176c.376 0 .681.305.681.68zM511.501 70.029c2.746-7.347 7.284-12.858 13.615-16.531 5.793-3.362 12.194-5.186 19.201-5.47.339-.015.858-.025 1.277-.031.379-.006.688.3.688.678V79.83c0 .65-.565 1.151-1.213 1.092-8.512-.772-16.155 1.107-22.928 5.638-7.093 4.745-10.64 12.628-10.64 23.648v54.193a.681.681 0 0 1-.681.681h-28.156a.681.681 0 0 1-.681-.681V50.964c0-.376.305-.68.681-.68h28.156c.376 0 .681.304.681.68z"/><path clip-rule="evenodd" d="M651.074 50.282a.681.681 0 0 0-.681.68v12.866c-8.848-11.174-21.28-16.76-37.298-16.76-15.255 0-28.335 5.854-39.243 17.563-10.907 11.71-16.36 26.06-16.36 43.05s5.453 31.34 16.36 43.05c10.908 11.709 23.988 17.564 39.243 17.564 16.018 0 28.45-5.587 37.298-16.761V164.4c0 .376.305.68.681.68h28.156a.68.68 0 0 0 .681-.68V50.962a.681.681 0 0 0-.681-.68zM595.931 131.1c5.95 5.97 13.501 8.955 22.654 8.955s16.742-3.023 22.767-9.069c6.026-6.046 9.039-13.814 9.039-23.305 0-9.49-3.013-17.258-9.039-23.304-6.025-6.046-13.614-9.069-22.767-9.069s-16.704 3.023-22.654 9.07c-5.949 6.045-8.924 13.813-8.924 23.303 0 9.491 2.975 17.297 8.924 23.419zM808.117 64.631c-10.907-11.71-24.065-17.564-39.472-17.564-16.017 0-28.374 5.587-37.069 16.76V50.963a.681.681 0 0 0-.681-.68h-28.156a.681.681 0 0 0-.681.68V210.32c0 .376.305.681.681.681h28.156a.681.681 0 0 0 .681-.681v-58.785c8.695 11.174 21.052 16.761 37.069 16.761 15.407 0 28.565-5.855 39.472-17.564 10.907-11.71 16.36-26.06 16.36-43.05s-5.453-31.34-16.36-43.05zm-67.619 66.47c5.949 5.97 13.5 8.955 22.653 8.955s16.742-3.023 22.768-9.069c6.025-6.046 9.038-13.814 9.038-23.305 0-9.49-3.013-17.258-9.038-23.304-6.026-6.046-13.615-9.069-22.768-9.069s-16.704 3.023-22.653 9.07c-5.95 6.045-8.924 13.813-8.924 23.303 0 9.491 2.974 17.297 8.924 23.419z" fill-rule="evenodd"/><path d="M842.738 165.083a.681.681 0 0 1-.681-.681V50.965c0-.376.305-.681.681-.681h28.156c.376 0 .681.305.681.681v113.437a.681.681 0 0 1-.681.681zM315.839 90.346c-4.043-1.913-6.064-4.4-6.064-7.462 0-2.908 1.258-5.204 3.775-6.888 2.517-1.683 5.683-2.525 9.496-2.525 7.313 0 12.838 2.86 16.573 8.58a.97.97 0 0 0 1.204.368l24.904-11.055a.677.677 0 0 0 .31-.964 63.103 63.103 0 0 0-.876-1.448c-4.269-6.734-9.791-11.75-16.715-15.571-7.628-4.21-16.094-6.314-25.4-6.314-12.356 0-22.691 3.253-31.005 9.758S279.57 72.246 279.57 83.573c0 7.5 2.022 13.738 6.064 18.712 4.043 4.975 8.962 8.61 14.759 10.906s11.594 4.209 17.391 5.74c5.796 1.531 10.716 3.253 14.759 5.166 4.042 1.913 6.063 4.401 6.063 7.462 0 6.582-5.263 9.873-15.788 9.873-10.02 0-16.963-3.716-20.83-11.146-.332-.639-1.092-.931-1.75-.638l-24.834 11.041a.678.678 0 0 0-.337.914c.101.208.207.426.284.581 8.679 17.407 24.501 26.111 47.467 26.111 13.119 0 24.064-3.176 32.835-9.529 8.772-6.352 13.158-15.421 13.158-27.207 0-7.806-2.022-14.312-6.064-19.516-4.043-5.204-8.962-8.916-14.759-11.135a152.174 152.174 0 0 0-17.39-5.51c-5.797-1.455-10.717-3.139-14.759-5.052z"/></g><path d="M0 73.493c0-34.645 0-51.967 10.763-62.73C21.526 0 38.848 0 73.493 0h65.014c34.645 0 51.967 0 62.73 10.763C212 21.526 212 38.848 212 73.493v65.014c0 34.645 0 51.967-10.763 62.73S173.152 212 138.507 212H73.493c-34.645 0-51.967 0-62.73-10.763C0 190.474 0 173.152 0 138.507z" fill="#4945ff"/><path clip-rule="evenodd" d="M146.28 64.307H74.906V100.7H111.3v36.393h36.393V65.72c0-.78-.633-1.413-1.413-1.413z" fill="#fff" fill-rule="evenodd"/><path d="M109.886 100.7h1.413v1.413h-1.413z" fill="#fff"/><path d="M74.906 100.7h34.98c.781 0 1.414.633 1.414 1.413v34.98H76.32c-.781 0-1.414-.632-1.414-1.413zM111.3 137.093h36.393l-35.187 35.187a.706.706 0 0 1-1.206-.499zM74.906 100.7H40.22a.707.707 0 0 1-.5-1.206l35.187-35.187z" fill="#9593ff"/></svg>