<svg xmlns="http://www.w3.org/2000/svg" class="fill-current" height="36" width="36" viewBox="0 0 48 48">
    <path d="M8 40v-4.7q0-1.9.95-3.25T11.4 30q3.35-1.5 6.425-2.25Q20.9 27 24 27q1.4 0 2.775.15t2.725.45v2.95q-1.4-.3-2.75-.425T24 30q-2.85 0-5.525.6-2.675.6-5.875 2.1-.7.35-1.15 1.075Q11 34.5 11 35.3V37h18.5v3Zm3-3h18.5Zm13-13.05q-3.3 0-5.4-2.1-2.1-2.1-2.1-5.4 0-3.3 2.1-5.4 2.1-2.1 5.4-2.1 3.3 0 5.4 2.1 2.1 2.1 2.1 5.4 0 3.3-2.1 5.4-2.1 2.1-5.4 2.1Zm0-3q1.95 0 3.225-1.275Q28.5 18.4 28.5 16.45q0-1.95-1.275-3.225Q25.95 11.95 24 11.95q-1.95 0-3.225 1.275Q19.5 14.5 19.5 16.45q0 1.95 1.275 3.225Q22.05 20.95 24 20.95Zm0-4.5ZM36.5 46.1v-8.6h-4v-11h10.7l-4 8h3.95Z"/>
</svg>
