<svg width="204" height="30" viewBox="0 0 204 30" fill="none" xmlns="http://www.w3.org/2000/svg">
<path d="M37 27.5346V0.465374H54.0435V4.34349H41.4172V11.867H52.6363V15.7452H41.4172V27.5346H37Z" fill="#222"/>
<path d="M65.7439 27.5346V16.8698L56.3621 0.465374H61.4048L68.0502 12.5263H68.1675L74.7738 0.465374H79.6211L70.1611 16.7922V27.5346H65.7439Z" fill="#222"/>
<path d="M92.135 28C88.5647 28 85.7632 26.8107 83.7305 24.4321C81.6978 22.0277 80.6814 18.5503 80.6814 14C80.6814 11.7248 80.942 9.72115 81.4632 7.98892C81.9844 6.25669 82.7402 4.79594 83.7305 3.60665C84.7208 2.41736 85.9195 1.52539 87.3268 0.930747C88.7601 0.310249 90.3629 0 92.135 0C94.5065 0 96.4871 0.517083 98.0768 1.55125C99.6925 2.58541 100.956 4.1108 101.869 6.12742L98.1549 8.14405C97.6858 6.85134 96.9562 5.8301 95.9659 5.08033C95.0016 4.30471 93.7247 3.9169 92.135 3.9169C90.0241 3.9169 88.3692 4.62789 87.1704 6.04986C85.9717 7.47184 85.3723 9.43675 85.3723 11.9446V16.0554C85.3723 18.5633 85.9717 20.5282 87.1704 21.9501C88.3692 23.3721 90.0241 24.0831 92.135 24.0831C93.7768 24.0831 95.1059 23.6694 96.1222 22.8421C97.1646 21.9889 97.9334 20.903 98.4286 19.5845L101.986 21.7175C101.074 23.6824 99.7967 25.2207 98.1549 26.3324C96.5131 27.4441 94.5065 28 92.135 28Z" fill="#222"/>
<path d="M113.561 27.5346V0.465374H117.979V23.6565H129.08V27.5346H113.561Z" fill="#222"/>
<path d="M151.334 27.5346L148.871 20.205H138.668L136.284 27.5346H131.788L141.092 0.465374H146.643L155.946 27.5346H151.334ZM143.867 4.49861H143.672L139.724 16.4432H147.776L143.867 4.49861Z" fill="#222"/>
<path d="M160.172 0.465374H172.251C174.519 0.465374 176.291 1.0988 177.568 2.36565C178.871 3.6325 179.522 5.32595 179.522 7.44599C179.522 8.4543 179.379 9.32041 179.092 10.0443C178.806 10.7424 178.441 11.3241 177.998 11.7895C177.555 12.229 177.046 12.5651 176.473 12.7978C175.9 13.0046 175.339 13.1339 174.792 13.1856V13.4183C175.339 13.4441 175.939 13.5734 176.59 13.8061C177.268 14.0388 177.893 14.4137 178.467 14.9308C179.04 15.422 179.522 16.0683 179.913 16.8698C180.304 17.6454 180.499 18.602 180.499 19.7396C180.499 20.8255 180.317 21.8467 179.952 22.8033C179.613 23.7599 179.131 24.5873 178.506 25.2853C177.88 25.9834 177.138 26.5392 176.278 26.9529C175.418 27.3407 174.48 27.5346 173.463 27.5346H160.172V0.465374ZM164.59 23.7729H172.173C173.32 23.7729 174.219 23.4755 174.87 22.8809C175.522 22.2862 175.848 21.4331 175.848 20.3213V19.0028C175.848 17.891 175.522 17.0379 174.87 16.4432C174.219 15.8486 173.32 15.5512 172.173 15.5512H164.59V23.7729ZM164.59 11.9058H171.43C172.525 11.9058 173.372 11.6344 173.971 11.0914C174.571 10.5226 174.87 9.72115 174.87 8.68698V7.44599C174.87 6.41182 174.571 5.62327 173.971 5.08033C173.372 4.51154 172.525 4.22715 171.43 4.22715H164.59V11.9058Z" fill="#222"/>
<path d="M194.11 28C191.817 28 189.862 27.5863 188.246 26.759C186.657 25.9317 185.289 24.8199 184.142 23.4238L187.191 20.5928C188.155 21.7562 189.211 22.6353 190.357 23.2299C191.53 23.8246 192.859 24.1219 194.345 24.1219C196.091 24.1219 197.407 23.7341 198.293 22.9585C199.179 22.1828 199.622 21.1357 199.622 19.8172C199.622 18.7572 199.309 17.9169 198.684 17.2964C198.058 16.6759 196.951 16.2105 195.361 15.9003L192.937 15.4737C190.279 14.9825 188.286 14.1163 186.956 12.8753C185.627 11.6343 184.963 9.92798 184.963 7.75623C184.963 6.56694 185.184 5.494 185.627 4.5374C186.096 3.55494 186.735 2.74054 187.543 2.09418C188.377 1.42198 189.38 0.904894 190.553 0.542937C191.726 0.180979 193.042 0 194.501 0C196.56 0 198.345 0.361957 199.856 1.08587C201.368 1.78393 202.658 2.80517 203.726 4.14959L200.638 6.86427C199.935 5.95937 199.075 5.23546 198.058 4.69252C197.042 4.14959 195.778 3.87812 194.266 3.87812C192.703 3.87812 191.491 4.18837 190.631 4.80887C189.771 5.42936 189.341 6.33426 189.341 7.52355C189.341 8.66113 189.693 9.51431 190.396 10.0831C191.1 10.626 192.195 11.0397 193.68 11.3241L196.104 11.8283C198.84 12.3453 200.834 13.2244 202.085 14.4654C203.362 15.7064 204 17.4127 204 19.5845C204 20.8513 203.778 22.0019 203.335 23.036C202.892 24.0702 202.241 24.9621 201.381 25.7119C200.547 26.4358 199.518 27.0046 198.293 27.4183C197.068 27.8061 195.674 28 194.11 28Z" fill="#222"/>
<path opacity="0.65" fill-rule="evenodd" clip-rule="evenodd" d="M12.2433 11.7823H0.756729V29.2177H12.2433V11.7823ZM0 11V30H13V11H0Z" fill="#222"/>
<path opacity="0.65" fill-rule="evenodd" clip-rule="evenodd" d="M24.5 27.2589C29.3147 27.2589 33.2177 23.5613 33.2177 19C33.2177 14.4387 29.3147 10.7411 24.5 10.7411C19.6853 10.7411 15.7823 14.4387 15.7823 19C15.7823 23.5613 19.6853 27.2589 24.5 27.2589ZM24.5 28C29.7467 28 34 23.9706 34 19C34 14.0294 29.7467 10 24.5 10C19.2533 10 15 14.0294 15 19C15 23.9706 19.2533 28 24.5 28Z" fill="#222"/>
<path opacity="0.9" fill-rule="evenodd" clip-rule="evenodd" d="M15.5 0L2 24H29L15.5 0ZM15.5 1.53245L3.293 23.2338H27.707L15.5 1.53245Z" fill="#222"/>
</svg>
