<svg id="Layer_1_copy_5" data-name="Layer 1 copy 5"
     xmlns="http://www.w3.org/2000/svg" viewBox="0 0 255.3 59.03">
    <defs>
        <style>.cls-1{fill:#fff;}</style>
    </defs>
    <path class="cls-1"
          d="M54.52,8.67c2.23,0,3.8.66,4.73,2a8,8,0,0,1,1.39,4.7l-.06.87q-.31,5-3.74,15.52T53.41,45.59a2.53,2.53,0,0,0,.89,1.89,3.26,3.26,0,0,0,2.32.84,7.07,7.07,0,0,0,5.69-2.79,2.37,2.37,0,0,1,1.86-1,1.37,1.37,0,0,1,1.54,1.55,3.62,3.62,0,0,1-1.17,2.47q-3.47,4-7.73,4c-2.85,0-4.93-.59-6.25-1.79a6.19,6.19,0,0,1-2-4.82v-.56q.26-4.57,3.53-14.63t3.28-14.31a2.37,2.37,0,0,0-.81-1.8,3,3,0,0,0-2.1-.74q-4.27,0-8.72,10.39c-1.45,3.38-2.75,6.81-3.93,10.3s-2.1,6.43-2.78,8.84S36,47.25,35.87,47.57s-.17.58-.21.75a7.16,7.16,0,0,1-.25.71,3.15,3.15,0,0,1-.4.74c-.15.19-.35.42-.62.71a1.74,1.74,0,0,1-1.33.43,4.6,4.6,0,0,1-3.28-1.54L36.46,27a29.67,29.67,0,0,0,1.42-8.16c0-3.14-1-4.7-3-4.7q-4.32,0-8.38,7.88T17,47.57a5.8,5.8,0,0,1-.56,2,2.68,2.68,0,0,1-2.53,2A5.41,5.41,0,0,1,10.3,50l6.25-20.1c1.77-5.78,2.66-10,2.66-12.81s-.68-4.14-2.05-4.14-2.48.83-3.61,2.47A18.19,18.19,0,0,0,11,21.23c0,.12-.28.18-.71.18a3.55,3.55,0,0,1-1.83-.92,2.72,2.72,0,0,1-1.17-2.17,8.81,8.81,0,0,1,3.43-6.93,10.73,10.73,0,0,1,6.9-2.9q6.12,0,6.12,6.31a40.22,40.22,0,0,1-1.92,10q3.72-9.21,6.9-12.7a10.17,10.17,0,0,1,7.82-3.5q5.56,0,5.57,7.61A32,32,0,0,1,41,23.52a27.92,27.92,0,0,1,5.69-10.61Q50.32,9,53.65,8.74Z"/>
    <path class="cls-1"
          d="M63.24,42.38a25.14,25.14,0,0,1,1-6.4,25.77,25.77,0,0,1,2-5.47,5.17,5.17,0,0,1,1.7-2.14A3.63,3.63,0,0,1,69.52,28a2.78,2.78,0,0,1,1.54.43,1.17,1.17,0,0,1,.65.93A4.28,4.28,0,0,1,71,31.12,28.4,28.4,0,0,0,69.18,36a20.34,20.34,0,0,0-1.12,5.75c0,1.94.73,2.91,2.17,2.91,1.73,0,3.81-1.41,6.25-4.21a1.48,1.48,0,0,1,1.2-.62,1.92,1.92,0,0,1,1.3.53,1.61,1.61,0,0,1,.59,1.23,2.67,2.67,0,0,1-.68,1.58q-4.58,5.39-9.53,5.38a5.93,5.93,0,0,1-4.45-1.7A6.05,6.05,0,0,1,63.24,42.38ZM72.33,24Q69,24,69,21a3,3,0,0,1,1.08-2.44,4.17,4.17,0,0,1,2.76-.9q3.09,0,3.09,2.79a3.3,3.3,0,0,1-1,2.53A3.65,3.65,0,0,1,72.33,24Z"/>
    <path class="cls-1"
          d="M92.62,44.17c1.56-.33,3.46-1.54,5.69-3.65a1,1,0,0,1,.71-.24c.31,0,.64.27,1,.83a2.76,2.76,0,0,1,.52,1.3,1.65,1.65,0,0,1-.12.71,13.15,13.15,0,0,1-5,3.9,12.43,12.43,0,0,1-4.95,1.36q-3.58,0-3.58-3.9a21,21,0,0,1,1.23-5.87c.83-2.56,1.24-3.93,1.24-4.12s0-.27-.12-.27h-.07q-1,.42-4.42,4.91a34.26,34.26,0,0,0-4.11,6.34,8,8,0,0,1-1.27,2.38,2.34,2.34,0,0,1-1.7.53q-2.29-.06-2.29-4.7a41,41,0,0,1,2.72-13.55,2.85,2.85,0,0,1,2.73-2.22,1.67,1.67,0,0,1,1.23.49,1.46,1.46,0,0,1,.5,1,2.71,2.71,0,0,1-.06.71,56.2,56.2,0,0,0-2.29,9.16,37.73,37.73,0,0,1,6.31-8.51q3.09-2.93,5.5-2.93a3.23,3.23,0,0,1,2.16.77,2.15,2.15,0,0,1,.93,1.64,26.87,26.87,0,0,1-1.58,6.15c-1,3.2-1.61,5.08-1.7,5.66a11.23,11.23,0,0,0-.12,1.52c0,.43.13.63.4.61Z"/>
    <path class="cls-1"
          d="M97.5,41.27A14.77,14.77,0,0,1,100.72,32q3.21-4.17,7.36-4.17a6.72,6.72,0,0,1,2.16.37q2.85-20.53,11.51-20.54a4.33,4.33,0,0,1,3.12,1.24,4.43,4.43,0,0,1,1.39,2.91,10.31,10.31,0,0,1,.06,1.3,23.24,23.24,0,0,1-3.15,11.19c-1.16,2.15-2.07,3.77-2.75,4.89s-1.87,2.88-3.56,5.31L114,38.73v.56c0,3.54,1,5.32,2.85,5.32q3.21,0,6.68-4.52a1.32,1.32,0,0,1,1-.31,2,2,0,0,1,1.3.56,1.69,1.69,0,0,1,.61,1.3,2.37,2.37,0,0,1-.49,1.42q-4.27,5.44-9.59,5.44-4.14,0-6.06-4.27a6.49,6.49,0,0,1-6.49,4.4,5.68,5.68,0,0,1-4.45-2A7.77,7.77,0,0,1,97.5,41.27Zm7.24,3a3.26,3.26,0,0,0,2.81-1.64,15.75,15.75,0,0,0,1.7-6L110,32a6.7,6.7,0,0,0-5.44,2.72,9.53,9.53,0,0,0-2.16,6.06v.68C102.51,43.35,103.29,44.3,104.74,44.3Zm16.08-31.48c-1.36,0-2.46,1.11-3.28,3.34a42.21,42.21,0,0,0-1.39,4.11,117.19,117.19,0,0,0-2.07,12.46,8.23,8.23,0,0,0,.49-.86c.08-.09.58-.84,1.49-2.26s1.71-2.75,2.41-4a41.77,41.77,0,0,0,2.29-5A15.46,15.46,0,0,0,122,15.14C122,13.59,121.6,12.82,120.82,12.82Z"/>
    <path class="cls-1"
          d="M130.84,48.63a14.16,14.16,0,0,1-6.71-1.52,8.74,8.74,0,0,1-4-3.8q2.72-4.71,7.23-14a3.09,3.09,0,0,1,2.85-1.92,2.25,2.25,0,0,1,1.57.59,1.93,1.93,0,0,1,.65,1.52,2.8,2.8,0,0,1-.37,1.48,2.47,2.47,0,0,0-.37,1.24,5.25,5.25,0,0,0,1.36,2.28,42.59,42.59,0,0,1,2.69,3.72,6.77,6.77,0,0,1,1.33,3.55,4.88,4.88,0,0,1-.68,2.63q2.85-.93,6.06-5a1.22,1.22,0,0,1,.9-.37c.35,0,.74.28,1.18.84a2.48,2.48,0,0,1,.64,1.42,2.44,2.44,0,0,1-.24,1.08,12.66,12.66,0,0,1-5.38,4.49A20.33,20.33,0,0,1,130.84,48.63Zm-1.55-3.53h.25c2.06,0,3.09-.93,3.09-2.78s-1-4.25-3-7.18l-4.08,8.29A6.55,6.55,0,0,0,129.29,45.1Z"/>
    <path class="cls-1"
          d="M172.64,37.8a23,23,0,0,1-6.3,8.79A9.92,9.92,0,0,1,160,49.12q-4.28,0-5.26-5.07-3.15,5-7.24,5a6.15,6.15,0,0,1-4.85-2.07,8.13,8.13,0,0,1-1.83-5.57,14.55,14.55,0,0,1,1.55-6.59c.5-1,.93-1.81,1.3-2.47s.8-1.35,1.3-2.07.76-1.11.8-1.15c.7-1,1.43-1.54,2.17-1.54a2.56,2.56,0,0,1,1.82.65c.48.43.71.78.71,1a1.51,1.51,0,0,1-.12.65,15.23,15.23,0,0,0-1,1.29c-.23.34-.51.73-.84,1.18a15.05,15.05,0,0,0-3,8.53q0,4,2.41,4,3.09,0,6.74-8.35l1-2.22q1.49-5.51,3.21-5.51h.19c1.44,0,2.16.46,2.16,1.36a12.93,12.93,0,0,1-1.48,4.09,16.89,16.89,0,0,0-1.92,7.11q0,3.7,2.54,3.71A6,6,0,0,0,164.54,43,16.75,16.75,0,0,0,168,37.86a9.47,9.47,0,0,0,.61-1.11,8.76,8.76,0,0,1-3.49-3,7.11,7.11,0,0,1-1.27-4,4.79,4.79,0,0,1,1.46-3.52,5.53,5.53,0,0,1,4.11-1.46A4.7,4.7,0,0,1,173,26.52a6.1,6.1,0,0,1,1.33,4,15,15,0,0,1-.49,4.08,23.68,23.68,0,0,0,6-1.24,1.87,1.87,0,0,1,1-.31,1.25,1.25,0,0,1,1,.53,2.16,2.16,0,0,1,.43,1.39,1.17,1.17,0,0,1-.93,1.17,19.6,19.6,0,0,1-7.67,1.73Zm-5-7.42a3.8,3.8,0,0,0,2.29,3.46,10.62,10.62,0,0,0,.74-3.4c0-1.48-.47-2.22-1.42-2.22a1.35,1.35,0,0,0-1.14.65A2.51,2.51,0,0,0,167.63,30.38Z"/>
    <path class="cls-1"
          d="M176,42.38a25.14,25.14,0,0,1,1-6.4,25.77,25.77,0,0,1,2-5.47,5.26,5.26,0,0,1,1.7-2.14,3.66,3.66,0,0,1,1.61-.34,2.79,2.79,0,0,1,1.55.43,1.19,1.19,0,0,1,.65.93,4.44,4.44,0,0,1-.71,1.73A27.33,27.33,0,0,0,182,36a20.63,20.63,0,0,0-1.11,5.75q0,2.91,2.16,2.91c1.73,0,3.82-1.41,6.25-4.21a1.5,1.5,0,0,1,1.21-.62,1.94,1.94,0,0,1,1.3.53,1.6,1.6,0,0,1,.58,1.23,2.61,2.61,0,0,1-.68,1.58q-4.58,5.39-9.52,5.38a6,6,0,0,1-4.46-1.7A6.05,6.05,0,0,1,176,42.38ZM185.14,24Q181.8,24,181.8,21a3,3,0,0,1,1.08-2.44,4.16,4.16,0,0,1,2.75-.9q3.09,0,3.09,2.79a3.3,3.3,0,0,1-1,2.53A3.62,3.62,0,0,1,185.14,24Z"/>
    <path class="cls-1"
          d="M189.34,38.3v-.68a2.59,2.59,0,0,1-1.39.55,1.21,1.21,0,0,1-1-.52,2.06,2.06,0,0,1-.4-1.3,1.27,1.27,0,0,1,.74-1.18c.49-.26,1.28-.65,2.35-1.14A56,56,0,0,1,194,18.38a20,20,0,0,1,4.14-6.21Q200.6,9.72,203,9.72a4.28,4.28,0,0,1,3.37,1.18,4.18,4.18,0,0,1,1,2.84v.44a18.91,18.91,0,0,1-3.43,9.09,37,37,0,0,1-7.21,7.91,29.13,29.13,0,0,1,6.56-1.73,1.28,1.28,0,0,1,1,.53,2,2,0,0,1,.47,1.39q0,.87-1.05,1.05A48.37,48.37,0,0,0,194,35.58q-.12,2-.12,3.09c0,3.92.84,5.87,2.53,5.87q3,0,6.87-4.32a1.45,1.45,0,0,1,1.08-.44,1.87,1.87,0,0,1,1.24.53,1.67,1.67,0,0,1,.58,1.3,2.33,2.33,0,0,1-.74,1.57q-4.75,5.32-9.59,5.32a5.23,5.23,0,0,1-5-2.69A16.1,16.1,0,0,1,189.34,38.3Zm13.24-23.44c-1.16,0-2.31.86-3.47,2.6a29.82,29.82,0,0,0-4.39,12.12l1.52-1.67L198,26c.22-.25.72-.83,1.48-1.76A13.33,13.33,0,0,0,201,22.09l1-2a8.43,8.43,0,0,0,.86-2.35,10,10,0,0,0,.22-2C203.07,15.21,202.91,14.9,202.58,14.86Z"/>
    <path class="cls-1"
          d="M203.75,40.15a13.48,13.48,0,0,1,3-8.38,9.08,9.08,0,0,1,7.48-3.86,5.92,5.92,0,0,1,4.18,1.45A4.45,4.45,0,0,1,220,32.73a5.89,5.89,0,0,1-1.17,3.53c-.78,1.07-1.46,1.6-2,1.6a1.58,1.58,0,0,1-1.3-.52,1.61,1.61,0,0,1-.43-1,2.92,2.92,0,0,1,.4-1.27,3.34,3.34,0,0,0,.4-1.58,1.37,1.37,0,0,0-.56-1.2,2.13,2.13,0,0,0-1.29-.4A5.1,5.1,0,0,0,210.15,34a9.38,9.38,0,0,0-1.82,6.19,4.81,4.81,0,0,0,1.3,3.58,4.57,4.57,0,0,0,3.4,1.3q4.38,0,9.46-5.57a1.16,1.16,0,0,1,.8-.37,1.11,1.11,0,0,1,.84.53,1.78,1.78,0,0,1,.4,1.11,2,2,0,0,1-.25,1,16.29,16.29,0,0,1-4.91,4.83,13.05,13.05,0,0,1-7.3,2,8.15,8.15,0,0,1-6.77-3.4A8.27,8.27,0,0,1,203.75,40.15Z"/>
    <path class="cls-1"
          d="M221.25,43.93c0-.87,0-1.76.13-2.66a87,87,0,0,1,4.14-21.84,27.57,27.57,0,0,1,5-9.3c2.08-2.46,4.38-3.68,6.89-3.68a4.64,4.64,0,0,1,3.53,1.36,4.94,4.94,0,0,1,1.3,3.58v.44a21.75,21.75,0,0,1-3.81,9.09q-3.3,5-11.22,12.12l-1.11,6.18A27.65,27.65,0,0,1,233,30.91c2.58-2,4.42-3,5.54-3a4.11,4.11,0,0,1,2.59.71,2,2,0,0,1,.93,1.51,5.07,5.07,0,0,1-.31,1.7c-.2.6-.95,2.39-2.22,5.35s-1.92,5.12-1.92,6.44c0,.41.24.61.71.61a9,9,0,0,0,3.12-1.42,35.87,35.87,0,0,0,4.46-3.09,1.49,1.49,0,0,1,.77-.19q.47,0,.93.75a3.47,3.47,0,0,1,.46,1.88,2.43,2.43,0,0,1-1.24,2q-6.24,4.21-11,4.21a2.94,2.94,0,0,1-2.08-.93,4.08,4.08,0,0,1-1-3,17.4,17.4,0,0,1,1.48-5.87,41.37,41.37,0,0,0,1.48-4q0-.24-.18-.24a2.06,2.06,0,0,0-1,.49,25.1,25.1,0,0,0-4.82,4.92,20.09,20.09,0,0,0-3.28,5.38,10.29,10.29,0,0,1-1.24,2.72,2.17,2.17,0,0,1-1.73.59,1.74,1.74,0,0,1-1.73-1.15A8.59,8.59,0,0,1,221.25,43.93ZM236,11.46q-2.85,0-5.87,8.22a49.25,49.25,0,0,0-2.35,8.66A57.86,57.86,0,0,0,234.36,20q2.91-4.49,2.91-7.2A1.15,1.15,0,0,0,236,11.46Z"/>
</svg>
