<?xml version="1.0" encoding="UTF-8" standalone="no"?>
<svg
   width="120"
   height="60"
   version="1.1"
   id="svg10"
   xmlns:inkscape="http://www.inkscape.org/namespaces/inkscape"
   xmlns:sodipodi="http://sodipodi.sourceforge.net/DTD/sodipodi-0.dtd"
   xmlns="http://www.w3.org/2000/svg"
   xmlns:svg="http://www.w3.org/2000/svg">
  <defs
     id="defs14" />
  <sodipodi:namedview
     id="namedview12"
     pagecolor="#ffffff"
     bordercolor="#666666"
     borderopacity="1.0"
     inkscape:pageshadow="2"
     inkscape:pageopacity="0.0"
     inkscape:pagecheckerboard="0"
     showgrid="false"
     inkscape:zoom="11.15"
     inkscape:cx="59.955157"
     inkscape:cy="30"
     inkscape:window-width="1850"
     inkscape:window-height="1016"
     inkscape:window-x="0"
     inkscape:window-y="0"
     inkscape:window-maximized="1"
     inkscape:current-layer="svg10" />
  <path
     d="M14.612 47.39l-9.24-16c-.494-.855-.494-1.91 0-2.765l9.24-16.007c.493-.854 1.404-1.38 2.4-1.382h18.493c.983.005 1.89.53 2.38 1.382l9.25 16.008c.494.855.494 1.91 0 2.765L37.875 47.39c-.493.854-1.404 1.38-2.4 1.382h-18.49c-.984-.003-1.892-.53-2.385-1.382z"
     fill="#4386fa"
     id="path2" />
  <path
     d="M32.017 24.834s2.57 6.162-.933 9.656-9.88 1.257-9.88 1.257L34.177 48.77h1.317c.986-.002 1.897-.528 2.4-1.382l6.118-10.594z"
     opacity=".1"
     id="path4" />
  <path
     d="M35.052 37.455l-2.84-2.827a.44.44 0 0 0-.104-.08 7.72 7.72 0 0 0-11.587-10.159c-2.873 2.895-3 7.533-.288 10.57a7.73 7.73 0 0 0 10.533.941.49.49 0 0 0 .075.1l2.84 2.84a.44.44 0 0 0 .314.129.45.45 0 0 0 .314-.129l.753-.753a.44.44 0 0 0 .129-.314.45.45 0 0 0-.129-.314zm-9.047-1.836a5.81 5.81 0 0 1-5.366-3.586c-.9-2.17-.402-4.67 1.26-6.33a5.81 5.81 0 0 1 9.916 4.107c-.002 3.207-2.6 5.806-5.808 5.808zM22.293 29.5v2.4c.37.653.905 1.196 1.552 1.577v-3.982zm2.9-1.99v6.487c.513.094 1.04.094 1.552 0V27.5zm4.492 4.387v-1.42h-1.552v2.994c.646-.38 1.18-.92 1.552-1.572z"
     fill="#fff"
     id="path6" />
  <path
     d="m 69.59,19.556 h -7.01 v 2.082 h 4.982 c -0.248,2.924 -2.68,4.17 -4.972,4.17 -1.455,0.01 -2.855,-0.56 -3.89,-1.583 -1.035,-1.023 -1.62,-2.417 -1.624,-3.872 v -0.094 c -0.025,-1.474 0.544,-2.896 1.578,-3.945 1.034,-1.049 2.448,-1.64 3.922,-1.635 1.403,0.002 2.75,0.548 3.758,1.525 l 1.46,-1.503 c -1.415279,-1.36704 -3.3156,-2.115946 -5.283,-2.082 -6.0226,-0.126612 -9.82787,6.427473 -6.732,11.595 1.434493,2.390733 4.054689,3.813246 6.841,3.714 4.084,-0.008 7.1,-2.815 7.1,-6.968 0.0089,-0.464327 -0.034,-0.9282 -0.128,-1.383 z m 5.767,-1.503 c -2.692,-0.05576 -4.916255,2.087778 -4.96,4.78 v 0.105 c -0.016,2.73 2.185,4.956 4.915,4.972 2.73,0.016 4.956,-2.185 4.972,-4.915 0,-3.26 -2.56,-4.942 -4.917,-4.942 z m 0.027,1.94 c 1.417,0 2.75,1.128 2.75,3.006 0,1.878 -1.338,2.984 -2.765,2.984 -1.57,0 -2.8,-1.25 -2.8,-3.006 0,-1.756 1.209,-2.977 2.803,-2.977 z m 10.712,-1.94 c -2.686187,-0.04734 -4.901193,2.093753 -4.945,4.78 v 0.105 c -0.016,2.73 2.185,4.956 4.915,4.972 2.73,0.016 4.956,-2.185 4.972,-4.915 0,-3.25 -2.563,-4.937 -4.937,-4.937 z m 0.03,1.94 c 1.417,0 2.75,1.128 2.75,3.006 0,1.878 -1.338,2.984 -2.765,2.984 -1.57,0 -2.8,-1.25 -2.8,-3.006 0,-1.756 1.209,-2.977 2.802,-2.977 z m 10.52,-1.94 c -2.63,0 -4.723,2.314 -4.723,4.92 -0.04,2.64 2.038,4.83 4.678,4.927 1.040146,0.0545 2.043396,-0.392835 2.698,-1.203 v 0.973 c 0,1.7 -1.03,2.72 -2.585,2.72 -1.118,-0.014 -2.115,-0.708 -2.518,-1.75 l -1.88,0.782 c 0.667,1.417 2.007,2.912 4.41,2.912 2.63,0 4.64,-1.657 4.64,-5.13 v -8.85 H 99.3 v 0.827 c -0.67969,-0.741836 -1.647184,-1.153194 -2.653,-1.128 z m 0.192,1.92 c 1.296,0 2.63,1.108 2.63,3.006 0,1.898 -1.33,2.965 -2.66,2.965 -1.417,0 -2.72,-1.128 -2.72,-2.96 0,-1.88 1.364,-3.006 2.755,-3.006 z m 13.7,-1.92 c -2.495,0 -4.584,1.984 -4.584,4.915 -0.0976,2.721991 2.10456,4.970659 4.828,4.93 1.65006,0.0076 3.1972,-0.800942 4.133,-2.16 l -1.702,-1.128 c -0.5,0.85 -1.416,1.365 -2.4,1.353 -1.03602,0.04055 -1.99192,-0.555101 -2.412,-1.503 l 6.598,-2.735 -0.333,-0.8 c -0.65,-1.708 -2.276,-2.846 -4.103,-2.87 z m 0.087,1.88 c 0.76,-0.032 1.47,0.378 1.823,1.052 l -4.417,1.85 c -0.192,-1.428 1.16,-2.894 2.585,-2.894 z m -7.824,7.674 h 2.167 V 13.104 H 102.8 Z m -47.698,16.7 V 34.8 h 3.442 c 0.720236,-0.01498 1.417201,0.25532 1.939,0.752 0.532,0.465 0.83,1.142 0.812,1.85 0.04451,0.869515 -0.475851,1.668829 -1.289,1.98 v 0.053 c 0.467,0.146 0.877,0.437 1.168,0.83 0.291487,0.389128 0.44586,0.863854 0.439,1.35 0.018,0.737 -0.286,1.445 -0.833,1.94 -0.55524,0.504271 -1.284263,0.773801 -2.034,0.752 h -3.634 z m 1.22,-8.335 v 2.917 h 2.217 c 0.40822,0.01128 0.802737,-0.147753 1.089,-0.439 0.562,-0.54 0.584,-1.43 0.05,-1.995 l -0.038,-0.038 c -0.272,-0.288 -0.653,-0.448 -1.048,-0.44 H 56.34 Z m 0,4.055 v 3.12 h 2.46 c 0.864,0.008 1.572,-0.684 1.582,-1.55 0.0016,-0.41195 -0.167484,-0.806166 -0.467,-1.089 -0.308586,-0.309603 -0.731025,-0.478506 -1.168,-0.467 h -2.41 z m 8.043,-4.467 c -0.0028,0.941773 -1.299502,1.194696 -1.656,0.323 -0.361187,-0.87123 0.740805,-1.604584 1.405,-0.935 0.165,0.16 0.256,0.382 0.252,0.613 z m -0.252,2.254 v 6.5 h -1.225 v -6.5 z m 4.4,9.582 c -0.346,0.003 -0.7,-0.044 -1.022,-0.14 -0.307228,-0.08277 -0.600916,-0.209407 -0.872,-0.376 -0.255922,-0.168207 -0.484288,-0.374984 -0.677,-0.613 -0.184,-0.224 -0.327,-0.48 -0.424,-0.752 l 1.167,-0.48 c 0.125617,0.372359 0.368382,0.694058 0.692,0.917 0.33,0.23 0.725,0.35 1.128,0.346 0.58,0.033 1.147,-0.183 1.556,-0.598 0.393,-0.455 0.594,-1.045 0.56,-1.646 v -0.642 h -0.053 c -0.235146,0.349034 -0.557939,0.630099 -0.936,0.815 -0.398,0.2 -0.837,0.303 -1.28,0.3 -0.842,0.004 -1.643,-0.36 -2.194,-0.996 -0.600765,-0.67878 -0.924186,-1.558727 -0.906,-2.465 -0.02274,-0.904509 0.299774,-1.78374 0.902,-2.459 0.547,-0.644 1.35,-1.014 2.194,-1.01 0.444848,-0.0029 0.883974,0.10033 1.281,0.301 0.378061,0.184901 0.700854,0.465966 0.936,0.815 h 0.053 V 37.8 h 1.168 v 6.23 c 0.05,0.907 -0.27,1.795 -0.89,2.458 -0.637444,0.605531 -1.492448,0.927916 -2.371,0.894 z m 0.042,-3.987 c 0.563629,0.01518 1.104313,-0.223411 1.473,-0.65 0.793494,-0.987705 0.793494,-2.394295 0,-3.382 -0.365,-0.433 -0.907,-0.677 -1.473,-0.665 -0.565,-0.008 -1.105,0.236 -1.473,0.665 -0.417,0.467 -0.623,1.083 -0.598,1.694 -0.02566,0.618405 0.188593,1.222813 0.598,1.687 0.37,0.426 0.908,0.668 1.473,0.66 z"
     fill="#FFFFFF"
     id="path8"
     sodipodi:nodetypes="cccccsccsccccccccccccscsccssscccccsccccsssccscccscccssccccscsssccccccccccccccccccccccccccccccccccccccccccccccccccccccccccccccccccccccccccccccccccccccccccccccccccc" />
  <path
     d="m 94.591759,32.318261 m -12.257,11.978 -0.962,0.623 -0.653,-0.97 c -0.709208,0.355122 -1.490857,0.541636 -2.284,0.545 -1.3,0.028 -2.572,-0.494 -3.48,-1.44 -1.88,-1.982 -1.88,-5.087 0,-7.068 1.919651,-1.930317 5.043349,-1.930317 6.963,0 0.93281,0.930263 1.442278,2.203027 1.409,3.52 0.0042,0.716674 -0.14303,1.426153 -0.432,2.082 -0.280929,0.646037 -0.695729,1.22512 -1.217,1.699 z m -3.892,-0.97 c 0.555529,-1.26e-4 1.103493,-0.128817 1.601,-0.376 l -1.108,-1.666 0.962,-0.65 1.1,1.66 c 0.736883,-0.725486 1.132482,-1.728833 1.089,-2.762 0.037,-1.012 -0.333,-1.995 -1.048,-2.72 -0.672138,-0.708234 -1.612903,-1.098494 -2.589,-1.074 -0.98034,-0.02374 -1.925435,0.36606 -2.604,1.074 -1.38,1.55 -1.38,3.9 0,5.44 0.679766,0.713754 1.629651,1.106785 2.615,1.082 z m 11.835,0.963 h -1.17 v -0.91 h -0.053 c -0.207,0.34 -0.503,0.617 -0.857,0.8 -0.367028,0.20769 -0.781286,0.317539 -1.203,0.319 -0.682948,0.04373 -1.352282,-0.204955 -1.841,-0.684 -0.458,-0.54 -0.688,-1.24 -0.638,-1.946 v -4.088 h 1.22 v 4 c 0.028,1.066667 0.561333,1.6 1.6,1.6 0.475457,7.99e-4 0.924625,-0.218064 1.217,-0.593 0.329946,-0.397364 0.505048,-0.90065 0.493,-1.417 v -3.586 h 1.22 v 6.5 z m 4.344,0.214 c -0.892,0.026 -1.753,-0.333 -2.364,-0.984 -0.625,-0.673 -0.958,-1.566 -0.928,-2.484 -0.028,-0.91 0.298,-1.798 0.908,-2.475 1.256872,-1.298525 3.331657,-1.322337 4.618,-0.053 0.616,0.732 0.924,1.676 0.857,2.63 v 0.132 h -5.117 c -0.0065,0.578915 0.223975,1.135317 0.638,1.54 1.008723,0.983534 2.684996,0.686944 3.295,-0.583 l 1.09,0.53 c -0.278,0.533 -0.698,0.98 -1.214,1.29 -0.536,0.312 -1.147,0.47 -1.766,0.458 z m -1.954,-4.25 h 3.73 c -0.026,-0.435 -0.225,-0.84 -0.553,-1.128 -0.373,-0.3 -0.85,-0.468 -1.334,-0.443 -0.434,-0.01 -0.857,0.142 -1.188,0.424 -0.34,0.297 -0.57,0.7 -0.658,1.143 z m 7.376001,4.036 h -1.220001 v -6.5 h 1.168 v 1.063 h 0.053 c 0.143,-0.37 0.417,-0.682 0.752,-0.883 0.333,-0.23 0.723,-0.36 1.128,-0.375 0.30851,-0.0073 0.61532,0.04778 0.902,0.162 l -0.375,1.184 c -0.23043,-0.07845 -0.47414,-0.110402 -0.717,-0.094 -0.464,0.002 -0.903,0.206 -1.203,0.56 -0.33097,0.351626 -0.51394,0.817121 -0.511,1.3 v 3.59 z m 9.553,-6.5 -4.07,9.395 h -1.263 l 1.503,-3.28 -2.667,-6.113 h 1.33 l 1.94,4.678 h 0.027 l 1.88,-4.678 h 1.32 z"
     style="fill:#FFFFFF"
     id="path41" />
</svg>
