<svg width="828" height="599" viewBox="0 0 828 599" fill="none" xmlns="http://www.w3.org/2000/svg">
    <circle cx="528.5" cy="299.5" r="299.5" fill="#0070F4"/>
    <path d="M599 299.5C599 464.909 464.909 599 299.5 599C134.091 599 0 464.909 0 299.5C0 134.091 134.091 0 299.5 0C464.909 0 599 134.091 599 299.5Z" fill="#FFC400"/>
    <path d="M599 299.834C599 424.689 522.6 531.7 414 576.668C413.866 576.612 413.731 576.556 413.597 576.501C378.696 590.892 340.48 598.88 300.413 598.999C306.024 576.088 309 552.141 309 527.5C309 519.077 308.652 510.734 307.97 502.486C258.937 449.155 229 377.991 229 299.834C229 174.979 305.4 67.9676 414 23C522.6 67.9676 599 174.979 599 299.834Z" fill="#FA5574"/>
</svg>
