<svg width="448" height="448" viewBox="0 0 448 448" fill="none" xmlns="http://www.w3.org/2000/svg">
<circle cx="224" cy="224" r="224" fill="#0070F4"/>
<ellipse cx="224.384" cy="224" rx="132.94" ry="133.324" fill="#FF3773"/>
<path d="M357.324 224C357.324 206.593 353.886 189.356 347.205 173.273C340.524 157.191 330.732 142.578 318.387 130.269C306.042 117.96 291.387 108.196 275.258 101.535C259.129 94.873 241.842 91.4443 224.384 91.4443C206.926 91.4443 189.639 94.873 173.51 101.535C157.381 108.196 142.726 117.96 130.381 130.269C118.037 142.578 108.245 157.191 101.564 173.273C94.8829 189.356 91.4443 206.593 91.4443 224L224.384 224H357.324Z" fill="#FFA400"/>
</svg>
