<svg xmlns="http://www.w3.org/2000/svg" width="102" height="30" viewBox="0 0 102 30" fill="none">
    <g clip-path="url(#clip0_266_389)">
        <path d="M73.0399 25.3357C72.8599 25.1457 72.6299 25.0557 72.3399 25.0557C72.1899 25.0557 72.0599 25.0757 71.9399 25.1257C71.8199 25.1757 71.7099 25.2457 71.6299 25.3357C71.5399 25.4257 71.4699 25.5257 71.4299 25.6457C71.3799 25.7657 71.3599 25.8957 71.3599 26.0357V28.3757C71.3599 28.5757 71.3899 28.7357 71.4499 28.8557C71.5099 28.9857 71.5899 29.0857 71.6899 29.1657C71.7899 29.2457 71.8899 29.3057 72.0099 29.3357C72.1299 29.3657 72.2499 29.3857 72.3599 29.3857C72.4999 29.3857 72.6199 29.3557 72.7399 29.3057C72.8599 29.2557 72.9599 29.1757 73.0499 29.0857C73.1399 28.9957 73.2099 28.8857 73.2599 28.7757C73.3099 28.6557 73.3299 28.5357 73.3299 28.4057V28.1457H72.7199V28.3557C72.7199 28.4357 72.7099 28.5057 72.6799 28.5657C72.6599 28.6257 72.6299 28.6657 72.5899 28.6957C72.5499 28.7257 72.5099 28.7457 72.4599 28.7657C72.4099 28.7757 72.3699 28.7857 72.3299 28.7857C72.1899 28.7857 72.0899 28.7457 72.0399 28.6557C71.9899 28.5757 71.9599 28.4657 71.9599 28.3457V26.1657C71.9599 26.0257 71.9799 25.9057 72.0299 25.8057C72.0799 25.7157 72.1799 25.6657 72.3299 25.6657C72.4499 25.6657 72.5399 25.7057 72.6099 25.7957C72.6799 25.8857 72.7099 25.9857 72.7099 26.1057V26.3057H73.3199V26.0657C73.3199 25.9157 73.2999 25.7857 73.2499 25.6557C73.1999 25.5257 73.1299 25.4257 73.0399 25.3257V25.3357Z" fill="#222"/>
        <path d="M76.0996 25.3157C75.9996 25.2357 75.8896 25.1657 75.7696 25.1257C75.6496 25.0857 75.5296 25.0557 75.3996 25.0557C75.2696 25.0557 75.1496 25.0757 75.0296 25.1257C74.9096 25.1657 74.7996 25.2357 74.6996 25.3157C74.5996 25.4057 74.5196 25.5157 74.4596 25.6457C74.3996 25.7757 74.3696 25.9257 74.3696 26.0957V28.3457C74.3696 28.5257 74.3996 28.6757 74.4596 28.8057C74.5196 28.9357 74.5996 29.0357 74.6996 29.1257C74.7996 29.2157 74.8996 29.2757 75.0296 29.3257C75.1496 29.3657 75.2696 29.3957 75.3996 29.3957C75.5296 29.3957 75.6496 29.3757 75.7696 29.3257C75.8896 29.2857 75.9996 29.2157 76.0996 29.1257C76.1996 29.0457 76.2696 28.9357 76.3296 28.8057C76.3896 28.6757 76.4196 28.5257 76.4196 28.3457V26.0957C76.4196 25.9257 76.3896 25.7757 76.3296 25.6457C76.2696 25.5157 76.1896 25.4057 76.0996 25.3157ZM75.8096 28.3457C75.8096 28.4957 75.7696 28.6057 75.6896 28.6757C75.6096 28.7457 75.5096 28.7757 75.3996 28.7757C75.2896 28.7757 75.1896 28.7357 75.1096 28.6757C75.0296 28.6057 74.9896 28.4957 74.9896 28.3457V26.0957C74.9896 25.9457 75.0296 25.8357 75.1096 25.7657C75.1896 25.6957 75.2896 25.6657 75.3996 25.6657C75.5096 25.6657 75.6096 25.7057 75.6896 25.7657C75.7696 25.8357 75.8096 25.9457 75.8096 26.0957V28.3457Z" fill="#222"/>
        <path d="M78.9198 28.3259C78.9198 28.4759 78.8798 28.5859 78.8098 28.6559C78.7398 28.7259 78.6498 28.7659 78.5398 28.7659C78.4298 28.7659 78.3398 28.7259 78.2698 28.6559C78.1998 28.5859 78.1598 28.4759 78.1598 28.3259V25.0859H77.5498V28.3859C77.5498 28.5259 77.5798 28.6559 77.6298 28.7759C77.6798 28.8959 77.7498 28.9959 77.8498 29.0859C77.9398 29.1759 78.0498 29.2459 78.1598 29.3059C78.2698 29.3659 78.3998 29.3859 78.5398 29.3859C78.6798 29.3859 78.7998 29.3559 78.9198 29.3059C79.0398 29.2559 79.1398 29.1859 79.2398 29.0859C79.3298 28.9959 79.3998 28.8859 79.4498 28.7759C79.4998 28.6559 79.5198 28.5259 79.5198 28.3859V25.0859H78.9098V28.3259H78.9198Z" fill="#222"/>
        <path d="M82.1897 27.6557H82.1797L81.2597 25.0957H80.6797V29.3457H81.2897V26.7857H81.2997L82.2297 29.3457H82.7997V25.0957H82.1897V27.6557Z" fill="#222"/>
        <path d="M83.6499 25.6657H84.3499V29.3457H84.9599V25.6657H85.6699V25.0957H83.6499V25.6657Z" fill="#222"/>
        <path d="M89.9297 25.3157C89.8297 25.2357 89.7197 25.1657 89.5997 25.1257C89.4797 25.0857 89.3597 25.0557 89.2297 25.0557C89.0997 25.0557 88.9797 25.0757 88.8597 25.1257C88.7397 25.1657 88.6297 25.2357 88.5297 25.3157C88.4297 25.4057 88.3497 25.5157 88.2897 25.6457C88.2297 25.7757 88.1997 25.9257 88.1997 26.0957V28.3457C88.1997 28.5257 88.2297 28.6757 88.2897 28.8057C88.3497 28.9357 88.4297 29.0357 88.5297 29.1257C88.6297 29.2157 88.7297 29.2757 88.8597 29.3257C88.9797 29.3657 89.0997 29.3957 89.2297 29.3957C89.3597 29.3957 89.4797 29.3757 89.5997 29.3257C89.7197 29.2857 89.8297 29.2157 89.9297 29.1257C90.0297 29.0457 90.0997 28.9357 90.1597 28.8057C90.2197 28.6757 90.2497 28.5257 90.2497 28.3457V26.0957C90.2497 25.9257 90.2197 25.7757 90.1597 25.6457C90.0997 25.5157 90.0197 25.4057 89.9297 25.3157ZM89.6397 28.3457C89.6397 28.4957 89.5997 28.6057 89.5197 28.6757C89.4397 28.7457 89.3397 28.7757 89.2297 28.7757C89.1197 28.7757 89.0197 28.7357 88.9397 28.6757C88.8597 28.6057 88.8197 28.4957 88.8197 28.3457V26.0957C88.8197 25.9457 88.8597 25.8357 88.9397 25.7657C89.0197 25.6957 89.1197 25.6657 89.2297 25.6657C89.3397 25.6657 89.4397 25.7057 89.5197 25.7657C89.5997 25.8357 89.6397 25.9457 89.6397 26.0957V28.3457Z" fill="#222"/>
        <path d="M92.8799 27.6557H92.8699L91.9499 25.0957H91.3599V29.3457H91.9699V26.7857H91.9799L92.9099 29.3457H93.4899V25.0957H92.8799V27.6557Z" fill="#222"/>
        <path d="M97.7098 28.3259C97.7098 28.4759 97.6698 28.5859 97.5998 28.6559C97.5298 28.7259 97.4398 28.7659 97.3298 28.7659C97.2198 28.7659 97.1298 28.7259 97.0598 28.6559C96.9898 28.5859 96.9498 28.4759 96.9498 28.3259V25.0859H96.3398V28.3859C96.3398 28.5259 96.3698 28.6559 96.4198 28.7759C96.4698 28.8959 96.5398 28.9959 96.6398 29.0859C96.7298 29.1759 96.8398 29.2459 96.9498 29.3059C97.0598 29.3659 97.1898 29.3859 97.3298 29.3859C97.4698 29.3859 97.5898 29.3559 97.7098 29.3059C97.8298 29.2559 97.9298 29.1859 98.0298 29.0859C98.1198 28.9959 98.1898 28.8859 98.2398 28.7759C98.2898 28.6559 98.3098 28.5259 98.3098 28.3859V25.0859H97.6998V28.3259H97.7098Z" fill="#222"/>
        <path d="M100.86 25.1357C100.73 25.0757 100.6 25.0557 100.44 25.0557C100.26 25.0557 100.11 25.0857 99.9796 25.1457C99.8496 25.2057 99.7396 25.2857 99.6596 25.3957C99.5696 25.4957 99.5096 25.6257 99.4596 25.7657C99.4196 25.9057 99.3896 26.0557 99.3896 26.2157C99.3896 26.4857 99.4296 26.7057 99.5196 26.8857C99.6096 27.0657 99.7896 27.2057 100.05 27.3157L100.49 27.4957C100.57 27.5257 100.63 27.5557 100.67 27.5857C100.72 27.6157 100.75 27.6457 100.78 27.6957C100.8 27.7357 100.82 27.7957 100.83 27.8657C100.83 27.9357 100.84 28.0257 100.84 28.1457C100.84 28.2457 100.84 28.3257 100.84 28.4057C100.84 28.4857 100.82 28.5457 100.78 28.6057C100.75 28.6657 100.7 28.7057 100.65 28.7357C100.59 28.7657 100.51 28.7857 100.41 28.7857C100.25 28.7857 100.14 28.7357 100.08 28.6557C100.01 28.5657 99.9796 28.4657 99.9796 28.3557V28.1657H99.3696V28.3957C99.3696 28.5357 99.3996 28.6757 99.4496 28.7957C99.4996 28.9157 99.5796 29.0257 99.6696 29.1157C99.7596 29.2057 99.8696 29.2757 99.9996 29.3357C100.13 29.3857 100.26 29.4157 100.41 29.4157C100.61 29.4157 100.77 29.3857 100.91 29.3157C101.05 29.2557 101.16 29.1657 101.24 29.0557C101.32 28.9457 101.38 28.8157 101.41 28.6657C101.45 28.5157 101.46 28.3457 101.46 28.1657C101.46 28.0057 101.46 27.8757 101.44 27.7457C101.42 27.6257 101.39 27.5157 101.35 27.4157C101.3 27.3257 101.24 27.2457 101.15 27.1757C101.07 27.1057 100.96 27.0457 100.82 26.9957L100.35 26.8057C100.27 26.7757 100.21 26.7457 100.16 26.7057C100.11 26.6757 100.08 26.6357 100.06 26.5957C100.04 26.5557 100.02 26.5057 100.02 26.4457C100.02 26.3857 100.02 26.3157 100.02 26.2357C100.02 26.1657 100.02 26.0957 100.04 26.0257C100.05 25.9557 100.07 25.9057 100.11 25.8457C100.14 25.7957 100.18 25.7557 100.24 25.7257C100.29 25.6957 100.36 25.6757 100.44 25.6757C100.6 25.6757 100.71 25.7257 100.77 25.8257C100.84 25.9257 100.87 26.0457 100.87 26.1857V26.3257H101.48V26.0257C101.48 25.7757 101.39 25.5557 101.21 25.3657C101.12 25.2757 101.01 25.1957 100.88 25.1457L100.86 25.1357Z" fill="#222"/>
        <path d="M13.8198 16.6855H0.759766V29.3855H3.98977V25.8055H13.8198C14.4098 25.8055 14.8998 25.5155 15.2798 24.9255C15.6298 24.3955 15.7998 23.7555 15.7998 23.0055V19.4855C15.7998 18.7355 15.6298 18.1055 15.2798 17.5655C14.8998 16.9755 14.4098 16.6855 13.8198 16.6855ZM12.5698 21.8955C12.5698 22.0955 12.5098 22.2755 12.4198 22.4155C12.3498 22.5255 12.2898 22.5755 12.2498 22.5755H3.98977V19.9155H12.2398C12.2398 19.9155 12.3398 19.9655 12.4098 20.0755C12.5098 20.2355 12.5698 20.4155 12.5698 20.6055C12.5698 21.4355 12.5698 21.8655 12.5698 21.8955Z" fill="#222"/>
        <path d="M20.9798 16.6855H17.7598V29.3855H32.7898V26.1455H20.9798V16.6855Z" fill="#222"/>
        <path d="M46.7299 25.4055C46.7299 25.6355 46.6799 25.8355 46.5699 25.9955C46.4999 26.0955 46.4399 26.1555 46.3999 26.1555H38.4799C38.4799 26.1555 38.3799 26.1055 38.3099 25.9955C38.2099 25.8355 38.1499 25.6355 38.1499 25.4055V16.6855H34.9199V26.5855C34.9199 27.3355 35.0899 27.9655 35.4399 28.5055C35.8199 29.0955 36.3099 29.3855 36.8999 29.3855H47.9799C48.5699 29.3855 49.0599 29.0955 49.4399 28.5055C49.7899 27.9755 49.9599 27.3355 49.9599 26.5855V16.6855H46.7299V25.4055Z" fill="#222"/>
        <path d="M65.0296 16.6855H54.1796C53.5196 16.6855 52.9896 16.9955 52.5896 17.6155C52.2496 18.1355 52.0796 18.7655 52.0796 19.4855V21.8555C52.0796 22.5855 52.2496 23.2055 52.5896 23.7255C52.9896 24.3455 53.5196 24.6455 54.1796 24.6455H63.4496C63.4496 24.6455 63.4496 24.6855 63.4996 24.7655C63.6096 24.9355 63.6596 25.1455 63.6596 25.4055C63.6596 25.6655 63.6096 25.8655 63.4996 26.0455C63.4496 26.1255 63.4296 26.1555 63.4496 26.1555H55.7596C55.7596 26.1555 55.7596 26.1155 55.7096 26.0455C55.5996 25.8955 55.5496 25.6555 55.5496 25.3555H52.0896V26.5955C52.0896 27.3255 52.2596 27.9455 52.5996 28.4655C52.9996 29.0855 53.5296 29.3855 54.1896 29.3855H65.0396C65.6996 29.3855 66.2296 29.0755 66.6296 28.4655C66.9696 27.9455 67.1396 27.3155 67.1396 26.5955V24.2255C67.1396 23.4955 66.9696 22.8755 66.6296 22.3555C66.2296 21.7355 65.6996 21.4355 65.0396 21.4355H55.7696C55.7696 21.4355 55.7696 21.3955 55.7196 21.3155C55.6096 21.1455 55.5596 20.9355 55.5596 20.6755C55.5596 20.4155 55.6096 20.2155 55.7196 20.0355C55.7696 19.9655 55.7896 19.9255 55.7696 19.9255H63.4596C63.4596 19.9255 63.4596 19.9655 63.5096 20.0355C63.6196 20.1855 63.6696 20.4255 63.6696 20.7255H67.1296V19.4855C67.1296 18.7555 66.9596 18.1355 66.6196 17.6155C66.2196 16.9955 65.6896 16.6855 65.0296 16.6855Z" fill="#222"/>
        <path d="M30.83 0.945312H17.75V13.6553H30.83C31.41 13.6553 31.9 13.3653 32.27 12.7753C32.61 12.2453 32.79 11.6053 32.79 10.8553V8.48531C32.79 8.06531 32.6 7.70531 32.21 7.40531C32.19 7.36531 32.17 7.34531 32.15 7.30531C32.17 7.27531 32.19 7.24531 32.21 7.20531C32.59 6.90531 32.79 6.53531 32.79 6.12531V3.75531C32.79 3.00531 32.62 2.36531 32.27 1.83531C31.89 1.24531 31.41 0.955312 30.83 0.955312V0.945312ZM20.94 4.18531H29.27C29.27 4.18531 29.37 4.23531 29.44 4.34531C29.54 4.50531 29.59 4.70531 29.59 4.93531C29.59 5.16531 29.54 5.36531 29.44 5.52531C29.37 5.63531 29.31 5.68531 29.27 5.68531H20.94V4.18531ZM29.44 10.2653C29.37 10.3653 29.31 10.4253 29.27 10.4253H20.94V8.92531H29.27C29.27 8.92531 29.37 8.97531 29.44 9.08531C29.54 9.24531 29.59 9.44531 29.59 9.67531C29.59 9.90531 29.54 10.1053 29.44 10.2653Z" fill="#222"/>
        <path d="M65.1696 0.945547L54.0496 1.03555C53.4696 1.03555 52.9796 1.32555 52.6096 1.91555C52.2696 2.44555 52.0996 3.07555 52.0996 3.82555V10.8855C52.0996 11.6255 52.2696 12.2655 52.6096 12.7955C52.9896 13.3755 53.4696 13.6755 54.0496 13.6755L65.1696 13.5855C65.7496 13.5855 66.2396 13.2955 66.6096 12.7055C66.9496 12.1755 67.1296 11.5455 67.1296 10.7955V9.18555H63.9396C63.9396 9.70555 63.8896 10.0455 63.7896 10.2055C63.7196 10.3055 63.6596 10.3655 63.6196 10.3655L55.6196 10.4555C55.6196 10.4555 55.5196 10.4055 55.4496 10.2955C55.3496 10.1355 55.2996 9.93555 55.2996 9.70555V4.99555C55.2996 4.76555 55.3496 4.56555 55.4496 4.40555C55.5196 4.30555 55.5796 4.24555 55.6196 4.24555L63.6196 4.15555C63.6196 4.15555 63.7196 4.20555 63.7896 4.31555C63.8896 4.47555 63.9396 4.81555 63.9396 5.33555H67.1296V3.72555C67.1296 2.98555 66.9596 2.34555 66.6096 1.81555C66.2296 1.22555 65.7496 0.935547 65.1696 0.935547V0.945547Z" fill="#222"/>
        <path d="M84.2895 10.8553V0.945312H81.0995V9.67531C81.0995 9.90531 81.0495 10.1053 80.9495 10.2653C80.8795 10.3653 80.8195 10.4253 80.7795 10.4253H72.7795C72.7795 10.4253 72.6795 10.3753 72.6095 10.2653C72.5095 10.1053 72.4595 9.90531 72.4595 9.67531V0.945312H69.2695V10.8553C69.2695 11.6053 69.4395 12.2453 69.7795 12.7753C70.1595 13.3653 70.6395 13.6553 71.2195 13.6553H82.3395C82.9195 13.6553 83.4095 13.3653 83.7795 12.7753C84.1195 12.2453 84.2995 11.6053 84.2995 10.8553H84.2895Z" fill="#222"/>
        <path d="M47.9799 0.945313L36.8999 0.965312C36.3099 0.965312 35.8199 1.25531 35.4399 1.84531C35.0899 2.37531 34.9199 3.01531 34.9199 3.76531V13.6653H38.1499V10.5353L46.7299 10.5153V13.6453H49.9599V3.74531C49.9599 2.99531 49.7899 2.36531 49.4399 1.82531C49.0599 1.23531 48.5699 0.945313 47.9799 0.945313ZM46.7299 7.27531L38.1499 7.29531V4.94531C38.1499 4.71531 38.1999 4.51531 38.3099 4.35531C38.3799 4.25531 38.4399 4.19531 38.4799 4.19531L46.3999 4.17531C46.3999 4.17531 46.4999 4.22531 46.5699 4.33531C46.6699 4.49531 46.7299 4.69531 46.7299 4.92531V7.27531Z" fill="#222"/>
        <path d="M13.8198 0.945313L2.73977 0.965312C2.14977 0.965312 1.65977 1.25531 1.27977 1.84531C0.929766 2.37531 0.759766 3.01531 0.759766 3.76531V13.6653H3.98977V10.5353L12.5698 10.5153V13.6453H15.7998V3.74531C15.7998 2.99531 15.6298 2.36531 15.2798 1.82531C14.8998 1.23531 14.4098 0.945313 13.8198 0.945313ZM12.5698 7.27531L3.98977 7.29531V4.94531C3.98977 4.71531 4.03977 4.51531 4.14977 4.35531C4.21977 4.25531 4.27977 4.19531 4.31977 4.19531L12.2398 4.17531C12.2398 4.17531 12.3398 4.22531 12.4098 4.33531C12.5098 4.49531 12.5698 4.69531 12.5698 4.92531V7.27531Z" fill="#222"/>
        <path d="M90.0899 4.18555H97.7799C97.7799 4.18555 97.7799 4.22555 97.8299 4.29555C97.9399 4.44555 97.9899 4.68555 97.9899 4.98555H101.45V3.74555C101.45 3.01555 101.28 2.39555 100.94 1.86555C100.54 1.24555 100.01 0.935547 99.3499 0.935547H88.4999C87.8399 0.935547 87.3099 1.24555 86.9099 1.86555C86.5699 2.38555 86.3999 3.01555 86.3999 3.74555V6.11555C86.3999 6.84555 86.5699 7.46555 86.9099 7.99555C87.3099 8.61555 87.8399 8.92555 88.4999 8.92555H97.7699C97.7699 8.92555 97.7699 8.96555 97.8199 9.04555C97.9299 9.21555 97.9799 9.42555 97.9799 9.68555C97.9799 9.94555 97.9299 10.1455 97.8199 10.3255C97.7699 10.4055 97.7499 10.4355 97.7699 10.4355H90.0799C90.0799 10.4355 90.0799 10.3955 90.0299 10.3255C89.9199 10.1755 89.8699 9.93555 89.8699 9.63555H86.4099V10.8755C86.4099 11.6055 86.5799 12.2255 86.9199 12.7555C87.3199 13.3755 87.8499 13.6855 88.5099 13.6855H99.3599C100.02 13.6855 100.55 13.3755 100.95 12.7555C101.29 12.2355 101.46 11.6055 101.46 10.8755V8.50555C101.46 7.77555 101.29 7.15555 100.95 6.62555C100.55 6.00555 100.02 5.69555 99.3599 5.69555H90.0899C90.0899 5.69555 90.0899 5.65555 90.0399 5.57555C89.9299 5.40555 89.8799 5.19555 89.8799 4.93555C89.8799 4.67555 89.9299 4.47555 90.0399 4.29555C90.0899 4.21555 90.1099 4.18555 90.0899 4.18555Z" fill="#222"/>
    </g>
    <defs>
        <clipPath id="clip0_266_389">
            <rect width="100.7" height="28.44" fill="#222" transform="translate(0.759766 0.945312)"/>
        </clipPath>
    </defs>
</svg>
