<svg width="139" height="38" viewBox="0 0 640 172" fill="none" xmlns="http://www.w3.org/2000/svg">
    <path d="M528.8 38.8C492.2 38.8 462.5 68.5001 462.5 105.1C462.5 141.7 492.2 171.4 528.8 171.4C565.4 171.4 595.1 141.7 595.1 105.1C595.1 68.5001 565.4 38.8 528.8 38.8ZM528.8 145.1C507.3 145.1 489.8 127.2 489.8 105.1C489.8 83.0001 507.2 65.1 528.8 65.1C550.4 65.1 567.8 83.0001 567.8 105.1C567.7 127.2 550.3 145.1 528.8 145.1Z" fill="#151D51"></path>
    <path d="M446.1 40.8H418.8V169.5H446.1V40.8Z" fill="#151D51"></path>
    <path d="M65.2 65.2C80.6 65.2 92.7 73.4 98 87.6H127C119.3 57.5 96.5 38.8 65.8 38.8C28.4 38.8 0 68.5 0 105.2C0 141.9 28.4 171.5 65.8 171.5C96.5 171.5 119.3 152.8 127 122.7H98C92.7 136.9 80.5 145.1 65.2 145.1C42.9 145.1 27.4 127.2 27.4 105.1C27.4 83.0001 42.9 65.2 65.2 65.2Z" fill="#151D51"></path>
    <path d="M355.2 60V40.8H328V169.6H355.2V113.7C355.2 80.5 373.4 61.9 403.2 68.2V40.8C384.6 34.8 363.7 45.5 355.2 60Z" fill="#151D51"></path>
    <path d="M170 137V0H142.7V139.6C142.7 154.1 149 169.5 171.2 169.5H182V147.7H178C172.7 147.2 170 144.7 170 137Z" fill="#151D51"></path>
    <path d="M300.2 137V85.9001C300.2 61.1001 286.3 38.8 248 38.8C217.6 38.8 197.7 60.5001 195.1 81.8001H222.2C224.8 70.9001 233.7 62 247.7 62C264 62 272.9 70.6001 272.9 81.8001C272.9 86.1001 270.9 91.6 261.8 91.6L240 92C209.4 92 190.8 105.4 190.8 130.9C190.8 154.3 207.9 171.6 235.5 171.6C252.4 171.6 265.8 164.8 275.6 154.6C279.2 163.1 286.9 169.6 301.3 169.6H310.4V147.8H308.1C302.9 147.2 300.2 144.7 300.2 137ZM239.4 148.3C225.4 148.3 218.7 140.1 218.7 131.6C218.7 117.4 230.4 113.2 243.5 113.2L259.8 112.9C264.7 112.9 269 112.3 272.8 110.6V114C272.9 138.3 256 148.3 239.4 148.3Z" fill="#151D51"></path>
    <path d="M407.7 0.0999756C407.5 1.19998 407.5 2.39998 407.5 3.59998C407.5 17.5 418.7 28.7 432.6 28.7C446.5 28.7 457.7 17.5 457.7 3.59998C457.7 2.39998 457.6 1.19998 457.5 0.0999756H407.7Z" fill="#0D86FF"></path>
    <path d="M639.2 169.6C639.4 168.5 639.4 167.3 639.4 166.1C639.4 152.2 628.2 141 614.3 141C600.4 141 589.2 152.2 589.2 166.1C589.2 167.3 589.3 168.5 589.4 169.6H639.2Z" fill="#FAFF00"></path>
</svg>
