<svg width="141" height="44" viewBox="0 0 141 44" fill="none" xmlns="http://www.w3.org/2000/svg">
<path d="M42.5805 19.9742V0.269402H46.7423V8.9576H47.0019L54.0856 0.269402H59.0741L51.7692 9.0923L59.1606 19.9742H54.1817L48.7896 11.8729L46.7423 14.3745V19.9742H42.5805Z" fill="#14203B"/>
<path d="M78.2204 10.1218C78.2204 12.2706 77.8135 14.0987 76.9998 15.606C76.1924 17.1134 75.0902 18.2648 73.6934 19.0602C72.3029 19.8491 70.7394 20.2436 69.0029 20.2436C67.2536 20.2436 65.6837 19.8459 64.2932 19.0505C62.9027 18.2552 61.8038 17.1038 60.9964 15.5964C60.189 14.0891 59.7853 12.2642 59.7853 10.1218C59.7853 7.973 60.189 6.14492 60.9964 4.63755C61.8038 3.13019 62.9027 1.98203 64.2932 1.19306C65.6837 0.397688 67.2536 0 69.0029 0C70.7394 0 72.3029 0.397688 73.6934 1.19306C75.0902 1.98203 76.1924 3.13019 76.9998 4.63755C77.8135 6.14492 78.2204 7.973 78.2204 10.1218ZM74.0009 10.1218C74.0009 8.72989 73.7927 7.55607 73.3762 6.60034C72.9661 5.6446 72.3862 4.91978 71.6365 4.42588C70.8868 3.93198 70.0089 3.68503 69.0029 3.68503C67.9969 3.68503 67.119 3.93198 66.3693 4.42588C65.6196 4.91978 65.0365 5.6446 64.62 6.60034C64.2099 7.55607 64.0048 8.72989 64.0048 10.1218C64.0048 11.5137 64.2099 12.6875 64.62 13.6433C65.0365 14.599 65.6196 15.3238 66.3693 15.8177C67.119 16.3116 67.9969 16.5586 69.0029 16.5586C70.0089 16.5586 70.8868 16.3116 71.6365 15.8177C72.3862 15.3238 72.9661 14.599 73.3762 13.6433C73.7927 12.6875 74.0009 11.5137 74.0009 10.1218Z" fill="#14203B"/>
<path d="M88.2814 19.9742H81.3034V0.269402H88.3391C90.3191 0.269402 92.0235 0.663882 93.4525 1.45284C94.8814 2.23539 95.9803 3.3611 96.7493 4.82998C97.5246 6.29886 97.9123 8.05639 97.9123 10.1026C97.9123 12.1551 97.5246 13.9191 96.7493 15.3944C95.9803 16.8697 94.875 18.0018 93.4332 18.7908C91.9979 19.5797 90.2806 19.9742 88.2814 19.9742ZM85.4652 16.4046H88.1084C89.3387 16.4046 90.3735 16.1865 91.213 15.7504C92.0588 15.3078 92.6931 14.6247 93.1161 13.701C93.5454 12.7709 93.76 11.5714 93.76 10.1026C93.76 8.6465 93.5454 7.45665 93.1161 6.53299C92.6931 5.60932 92.062 4.92941 91.2226 4.49323C90.3832 4.05706 89.3483 3.83897 88.118 3.83897H85.4652V16.4046Z" fill="#14203B"/>
<path d="M100.995 19.9742V0.269402H114.259V3.70427H105.157V8.39955H113.577V11.8344H105.157V16.5393H114.298V19.9742H100.995Z" fill="#14203B"/>
<path d="M53.8923 33.9728H52.5873C52.4901 33.4864 52.3142 33.037 52.0597 32.6247C51.8098 32.2078 51.4951 31.8441 51.1156 31.5338C50.7361 31.2234 50.3058 30.9825 49.8245 30.8111C49.3432 30.6397 48.8225 30.554 48.2626 30.554C47.3648 30.554 46.5457 30.7879 45.8052 31.2558C45.0694 31.7237 44.4793 32.4116 44.0351 33.3196C43.5954 34.223 43.3756 35.3301 43.3756 36.6412C43.3756 37.9614 43.5954 39.0733 44.0351 39.9766C44.4793 40.88 45.0694 41.5656 45.8052 42.0335C46.5457 42.4967 47.3648 42.7284 48.2626 42.7284C48.8225 42.7284 49.3432 42.6427 49.8245 42.4712C50.3058 42.2998 50.7361 42.0613 51.1156 41.7555C51.4951 41.4451 51.8098 41.0815 52.0597 40.6645C52.3142 40.2476 52.4901 39.7959 52.5873 39.3095H53.8923C53.7766 39.9627 53.5591 40.5719 53.2398 41.1371C52.9251 41.6976 52.5225 42.1887 52.0319 42.6102C51.546 43.0318 50.986 43.3607 50.352 43.597C49.718 43.8332 49.0215 43.9514 48.2626 43.9514C47.0686 43.9514 46.0088 43.6525 45.0833 43.0549C44.1577 42.4527 43.4311 41.605 42.9036 40.5117C42.3806 39.4184 42.1191 38.1282 42.1191 36.6412C42.1191 35.1541 42.3806 33.8639 42.9036 32.7707C43.4311 31.6774 44.1577 30.8319 45.0833 30.2343C46.0088 29.6321 47.0686 29.331 48.2626 29.331C49.0215 29.331 49.718 29.4491 50.352 29.6854C50.986 29.917 51.546 30.2459 52.0319 30.6721C52.5225 31.0937 52.9251 31.5847 53.2398 32.1453C53.5591 32.7058 53.7766 33.315 53.8923 33.9728Z" fill="#14203B"/>
<path d="M56.9415 43.7568V29.5255H61.53C62.5388 29.5255 63.3811 29.7085 64.0568 30.0745C64.737 30.4358 65.2484 30.9385 65.5909 31.5824C65.938 32.2217 66.1115 32.956 66.1115 33.7852C66.1115 34.6144 65.938 35.3464 65.5909 35.981C65.2484 36.6157 64.7394 37.1114 64.0637 37.4681C63.388 37.8248 62.5504 38.0031 61.5508 38.0031H57.6426V36.8149H61.5161C62.2565 36.8149 62.872 36.6921 63.3626 36.4466C63.8578 36.2011 64.2257 35.8513 64.4663 35.3973C64.7116 34.9433 64.8342 34.4059 64.8342 33.7852C64.8342 33.1644 64.7116 32.6224 64.4663 32.1592C64.221 31.6913 63.8508 31.3299 63.3556 31.0751C62.8651 30.8203 62.245 30.6929 61.4953 30.6929H58.2396V43.7568H56.9415ZM63.2099 37.336L66.7085 43.7568H65.2091L61.7452 37.336H63.2099Z" fill="#14203B"/>
<path d="M69.2735 43.7568V29.5255H77.5203V30.6929H70.5716V36.0505H77.0829V37.2179H70.5716V42.5894H77.6591V43.7568H69.2735Z" fill="#14203B"/>
<path d="M80.9009 43.7568H79.5403L84.7119 29.5255H86.1002L91.2718 43.7568H89.9112L85.4547 31.2141H85.3575L80.9009 43.7568ZM81.8797 38.3019H88.9325V39.4693H81.8797V38.3019Z" fill="#14203B"/>
<path d="M91.1868 30.6929V29.5255H101.495V30.6929H96.9901V43.7568H95.692V30.6929H91.1868Z" fill="#14203B"/>
<path d="M115.481 36.6412C115.481 38.1236 115.217 39.4138 114.69 40.5117C114.162 41.605 113.436 42.4527 112.51 43.0549C111.589 43.6525 110.529 43.9514 109.331 43.9514C108.132 43.9514 107.07 43.6525 106.144 43.0549C105.224 42.4527 104.499 41.605 103.972 40.5117C103.449 39.4138 103.187 38.1236 103.187 36.6412C103.187 35.1587 103.449 33.8709 103.972 32.7776C104.499 31.6797 105.226 30.8319 106.151 30.2343C107.077 29.6321 108.137 29.331 109.331 29.331C110.529 29.331 111.589 29.6321 112.51 30.2343C113.436 30.8319 114.162 31.6797 114.69 32.7776C115.217 33.8709 115.481 35.1587 115.481 36.6412ZM114.218 36.6412C114.218 35.3672 114.005 34.2762 113.579 33.3683C113.153 32.4556 112.573 31.7584 111.837 31.2767C111.101 30.7949 110.266 30.554 109.331 30.554C108.401 30.554 107.568 30.7949 106.832 31.2767C106.096 31.7584 105.513 32.4533 105.082 33.3613C104.657 34.2693 104.444 35.3626 104.444 36.6412C104.444 37.9151 104.657 39.0061 105.082 39.9141C105.508 40.822 106.089 41.5193 106.825 42.0057C107.561 42.4875 108.396 42.7284 109.331 42.7284C110.266 42.7284 111.101 42.4875 111.837 42.0057C112.577 41.5239 113.16 40.829 113.586 39.921C114.012 39.0084 114.222 37.9151 114.218 36.6412Z" fill="#14203B"/>
<path d="M118.621 43.7568V29.5255H123.209C124.218 29.5255 125.06 29.7085 125.736 30.0745C126.416 30.4358 126.927 30.9385 127.27 31.5824C127.617 32.2217 127.791 32.956 127.791 33.7852C127.791 34.6144 127.617 35.3464 127.27 35.981C126.927 36.6157 126.418 37.1114 125.743 37.4681C125.067 37.8248 124.229 38.0031 123.23 38.0031H119.322V36.8149H123.195C123.936 36.8149 124.551 36.6921 125.042 36.4466C125.537 36.2011 125.905 35.8513 126.145 35.3973C126.391 34.9433 126.513 34.4059 126.513 33.7852C126.513 33.1644 126.391 32.6224 126.145 32.1592C125.9 31.6913 125.53 31.3299 125.035 31.0751C124.544 30.8203 123.924 30.6929 123.174 30.6929H119.919V43.7568H118.621ZM124.889 37.336L128.388 43.7568H126.888L123.424 37.336H124.889Z" fill="#14203B"/>
<path d="M138.672 33.0834C138.593 32.2912 138.244 31.6612 137.624 31.1933C137.003 30.7254 136.224 30.4914 135.284 30.4914C134.622 30.4914 134.039 30.6049 133.535 30.8319C133.035 31.0589 132.642 31.3739 132.355 31.777C132.072 32.1754 131.931 32.6294 131.931 33.1389C131.931 33.5142 132.012 33.8431 132.174 34.1257C132.336 34.4083 132.554 34.6515 132.827 34.8553C133.104 35.0545 133.41 35.2259 133.743 35.3695C134.081 35.5131 134.421 35.6336 134.764 35.7309L136.263 36.1617C136.716 36.2868 137.17 36.4466 137.624 36.6412C138.077 36.8357 138.491 37.0813 138.866 37.3777C139.246 37.6696 139.549 38.0286 139.775 38.4548C140.007 38.8764 140.123 39.3836 140.123 39.9766C140.123 40.7364 139.926 41.4197 139.533 42.0265C139.139 42.6334 138.575 43.1152 137.839 43.4719C137.103 43.824 136.221 44 135.194 44C134.227 44 133.387 43.8402 132.674 43.5205C131.961 43.1962 131.401 42.7492 130.994 42.1794C130.587 41.6096 130.358 40.9494 130.307 40.199H131.64C131.686 40.7595 131.871 41.2343 132.195 41.6235C132.519 42.0126 132.94 42.3091 133.458 42.5129C133.977 42.7121 134.555 42.8117 135.194 42.8117C135.902 42.8117 136.531 42.6936 137.082 42.4573C137.637 42.2165 138.072 41.8829 138.387 41.4567C138.706 41.0259 138.866 40.5256 138.866 39.9558C138.866 39.474 138.741 39.0709 138.491 38.7467C138.241 38.4178 137.892 38.1421 137.443 37.9198C136.999 37.6974 136.483 37.5005 135.895 37.3291L134.194 36.8288C133.079 36.4952 132.214 36.0343 131.598 35.446C130.983 34.8576 130.675 34.1072 130.675 33.1945C130.675 32.4302 130.878 31.7584 131.286 31.1794C131.698 30.5957 132.253 30.1417 132.952 29.8174C133.655 29.4885 134.444 29.324 135.319 29.324C136.203 29.324 136.985 29.4862 137.665 29.8104C138.345 30.1347 138.885 30.5818 139.283 31.1516C139.685 31.7167 139.9 32.3607 139.928 33.0834H138.672Z" fill="#14203B"/>
<path d="M0.000172235 0.621488V43.7743H32.0747L0.000172235 0.621488Z" fill="#2A68E8" fill-opacity="0.5"/>
<path d="M0 0.225586V43.7743L32.4706 0.225586H0Z" fill="#2A68E8"/>
</svg>
