<svg width="117" height="34" viewBox="0 0 117 34" fill="none" xmlns="http://www.w3.org/2000/svg"
     class="w-[82px] text-primary-500 transition-colors md:w-[117px]">
    <path d="M60.4299 23.2254C60.4299 22.5669 60.9124 21.9683 61.6361 21.9683H77.6784V13.7676H61.6361C60.9727 13.7676 60.4299 13.2887 60.4299 12.5106V9.8169C60.4299 9.15845 60.9124 8.55986 61.6361 8.55986H81.7191V0H50.9613C50.2979 0 49.6948 0.598592 49.6948 1.25704V33.8803H60.4902V23.2254H60.4299ZM45.3526 0H44.8701H42.3974H15.6201H13.0871H12.6649C12.0015 0 11.3985 0.598592 11.3985 1.25704V33.8803H22.1938V9.75704C22.1938 9.09859 22.7969 8.5 23.4603 8.5H34.6175C35.2809 8.5 35.884 9.09859 35.884 9.75704V33.8803H46.6191V1.25704C46.5588 0.598592 46.0763 0 45.3526 0ZM109.039 31.7254L112.778 34L117 27.3556L113.08 24.9014V22.0282V11.9718C113.08 7.78169 112.055 4.72887 109.944 2.75352C107.954 0.897887 104.214 0 98.8469 0H84.3124V8.5H96.4345C98.7263 8.5 100.415 8.97887 101.259 9.93662C102.164 10.9542 102.707 12.6901 102.707 15.2641V18.3768L93.5397 12.6303L89.318 19.3944L98.8469 25.3204L98.6057 25.3803H78.2814V33.8803H99.0882C103.491 33.8803 106.928 33.162 109.039 31.7254ZM0 33.8803H8.50361V25.3803H0V33.8803Z"
          fill="currentColor"></path>
</svg>
