<svg fill="none" xmlns="http://www.w3.org/2000/svg" viewBox="0 0 512 512"><g clip-path="url(#prefix__clip0_9_19)"><path d="M182.543 478.292c19.839 7.985 41.361 12.723 63.959 13.512 30.584 1.069 59.667-5.255 85.667-17.266-31.178-12.25-59.415-30.164-83.514-52.436-15.622 25.011-38.726 44.768-66.112 56.19z" fill="#FF9100"/><path d="M248.652 422.11c-55.011-50.878-88.383-124.516-85.563-205.285.092-2.622.23-5.244.393-7.864a142.5 142.5 0 00-74.4.778c-14.686 25.724-23.547 55.239-24.651 86.853C61.58 378.18 110.956 449.47 182.54 478.3c27.386-11.423 50.49-31.155 66.112-56.19z" fill="#FFC400"/><path d="M248.653 422.107c12.79-20.468 20.544-44.463 21.447-70.317 2.374-68.006-43.343-126.507-106.618-142.832-.162 2.621-.3 5.242-.392 7.865-2.82 80.768 30.552 154.407 85.563 205.284z" fill="#FF9100"/><path d="M263.024 17.799c-36.037 28.87-64.494 66.939-81.712 110.792-9.857 25.119-16.051 52.101-17.859 80.384 63.274 16.325 108.992 74.826 106.618 142.831-.903 25.854-8.68 49.826-21.448 70.318a266.403 266.403 0 0083.514 52.435c62.581-28.928 106.982-91.175 109.553-164.802 1.666-47.702-16.662-90.217-42.56-126.103C371.78 145.7 263.024 17.799 263.024 17.799z" fill="#DD2C00"/></g><defs><clipPath id="prefix__clip0_9_19"><path fill="#fff" d="M0 0h512v512H0z"/></clipPath></defs></svg>