<svg class="GlobalFooter_meta___7tB7 w-full h-auto" fill="currentColor" viewBox="0 0 87 17" xmlns="http://www.w3.org/2000/svg"><path fill="#ffffff" d="M35.866 16.001h-3.07l-6.708-6.857h-1.25V16h-2.275V0h7.618c3.207 0 5.117 1.714 5.117 4.572 0 2.857-1.91 4.572-5.117 4.572h-1.137L35.866 16Zm-2.842-11.43c0-1.622-.91-2.628-2.843-2.628h-5.344v5.258h5.344c1.933 0 2.843-1.006 2.843-2.63ZM41.689 16.344c-3.639 0-5.913-2.72-5.913-6.286 0-3.566 2.274-6.287 5.799-6.287 2.843 0 4.548 1.6 5.299 3.978.273.891.386 1.874.386 2.88v.229h-9.3c.068 1.92 1.477 3.771 3.729 3.771 1.933 0 2.82-1.12 3.002-1.943h2.342c-.546 1.943-2.365 3.658-5.344 3.658Zm-3.73-7.2h7.118c-.114-2.058-1.205-3.658-3.502-3.658-2.297 0-3.547 1.714-3.616 3.657ZM47.373 5.943V4.115h2.842V1.372h2.183v2.743h3.07v1.828h-3.07v7.2c0 .801.228 1.075 1.024 1.075h2.046v1.783h-2.501c-2.07 0-2.752-1.028-2.752-2.857v-7.2h-2.842ZM61.745 3.771c3.639 0 6.026 2.72 6.026 6.287 0 3.566-2.387 6.286-6.026 6.286s-6.026-2.72-6.026-6.286c0-3.566 2.387-6.287 6.026-6.287Zm0 1.83c-2.479 0-3.843 2.056-3.843 4.457 0 2.4 1.364 4.457 3.843 4.457s3.843-2.057 3.843-4.457S64.224 5.6 61.745 5.6ZM74.762 3.771c3.638 0 6.026 2.72 6.026 6.287 0 3.566-2.388 6.286-6.026 6.286-3.639 0-6.027-2.72-6.027-6.286 0-3.566 2.388-6.287 6.027-6.287Zm0 1.83c-2.48 0-3.844 2.056-3.844 4.457 0 2.4 1.365 4.457 3.844 4.457 2.478 0 3.843-2.057 3.843-4.457S77.24 5.6 74.762 5.6ZM84.234 0v16.001h-2.183V0h2.183ZM10 .75A.75.75 0 0 0 9.25 0H.75A.75.75 0 0 0 0 .75v3.5c0 .414.336.75.75.75h8.5a.75.75 0 0 1 .75.75v1a.75.75 0 0 1-.75.75h-5.5a.75.75 0 0 0-.75.75v3.5c0 .414.336.75.75.75h5.5a.75.75 0 0 1 .75.75v2c0 .415.336.75.75.75h3.5a.75.75 0 0 0 .75-.75v-3.5a.75.75 0 0 0-.75-.75h-3.5a.75.75 0 0 1-.75-.75v-1a.75.75 0 0 1 .75-.75h3.5a.75.75 0 0 0 .75-.75v-3.5a.75.75 0 0 0-.75-.75h-3.5a.75.75 0 0 1-.75-.75v-2Z"></path></svg>