<?xml version="1.0" encoding="utf-8"?>
<!-- Generator: Adobe Illustrator 26.2.1, SVG Export Plug-In . SVG Version: 6.00 Build 0)  -->
<svg version="1.1" id="Ebene_1" xmlns="http://www.w3.org/2000/svg" xmlns:xlink="http://www.w3.org/1999/xlink" x="0px" y="0px"
	 viewBox="0 0 1008 256" style="enable-background:new 0 0 1008 256;" xml:space="preserve">
<style type="text/css">
	.st0{clip-path:url(#SVGID_00000164480634293853006160000000729716027444203153_);}
	.st1{fill:#222222;}
</style>
<g>
	<defs>
		<rect id="SVGID_1_" width="1008" height="256"/>
	</defs>
	<clipPath id="SVGID_00000040544302742761762660000011951183660891087792_">
		<use xlink:href="#SVGID_1_"  style="overflow:visible;"/>
	</clipPath>
	<g style="clip-path:url(#SVGID_00000040544302742761762660000011951183660891087792_);">
		<path class="st1" d="M33.444,123.208v56.013c3.769,0.362,7.817,0.63,12.144,0.805c4.326,0.175,8.28,0.263,11.859,0.263
			c6.544,0.036,13.081-0.409,19.558-1.33c5.436-0.704,10.72-2.271,15.646-4.639c4.192-2.055,7.793-5.112,10.473-8.892
			c2.763-4.272,4.128-9.276,3.911-14.336c0-10.433-3.87-17.691-11.61-21.775c-7.74-4.085-18.42-6.121-32.04-6.109H33.444z
			 M33.444,96.951h24.003c12.967,0,23.132-1.815,30.493-5.444c7.361-3.629,11.047-10.135,11.059-19.517
			c0-8.834-3.823-15.118-11.468-18.852c-7.645-3.734-17.578-5.601-29.799-5.601c-5.227,0-9.85,0.088-13.904,0.263
			c-4.054,0.175-7.503,0.438-10.383,0.788v32.26L0,61.838V24.694c3.947-0.7,8.173-1.365,12.677-1.996
			c4.504-0.63,9.092-1.114,13.762-1.453c4.676-0.35,9.299-0.63,13.886-0.805c4.587-0.175,8.89-0.263,13.086-0.263
			c10.576-0.044,21.135,0.817,31.559,2.573c8.834,1.364,17.374,4.175,25.266,8.315c6.805,3.615,12.526,8.927,16.589,15.404
			c3.97,6.372,5.95,14.249,5.938,23.631c0.226,7.892-1.98,15.667-6.33,22.3c-4.457,6.405-10.554,11.538-17.673,14.879
			c11.332,3.711,19.694,9.201,25.088,16.471c5.393,7.27,8.072,16.472,8.036,27.604c0,18.963-7.017,33.171-21.051,42.623
			c-14.035,9.453-35.519,14.191-64.453,14.214c-9.897,0-19.878-0.309-29.941-0.928c-8.917-0.455-17.77-1.744-26.439-3.851V96.899
			L33.444,96.951z"/>
		<path class="st1" d="M208.503,206.073h-32.644V67.177h32.644V206.073z M212.059,26.549c0.129,2.671-0.336,5.338-1.361,7.814
			c-1.026,2.476-2.588,4.702-4.578,6.522c-3.806,3.466-8.826,5.348-14.01,5.251c-5.251,0.115-10.345-1.766-14.224-5.251
			c-1.99-1.82-3.552-4.046-4.578-6.522c-1.025-2.476-1.49-5.143-1.361-7.814c-0.158-2.705,0.284-5.412,1.294-7.933
			c1.01-2.521,2.564-4.795,4.556-6.666c3.883-3.479,8.974-5.359,14.224-5.251c5.182-0.089,10.2,1.792,14.01,5.251
			c2.008,1.863,3.579,4.133,4.605,6.655c1.025,2.521,1.481,5.232,1.334,7.944"/>
		<path class="st1" d="M248.416,30.54l32.644-5.251v42.01h84.153v26.694H281.06v56.539c0,11.156,1.778,19.121,5.334,23.893
			c3.556,4.773,9.672,7.166,18.349,7.177c5.318,0.078,10.622-0.546,15.771-1.855c3.706-0.972,7.357-2.141,10.935-3.501l5.334,25.504
			c-4.832,1.949-9.785,3.592-14.829,4.918c-7.009,1.808-14.233,2.679-21.478,2.591c-8.585,0.246-17.139-1.108-25.212-3.991
			c-6.299-2.352-11.831-6.345-16.002-11.553c-4.135-5.421-6.99-11.682-8.357-18.327c-1.71-8.058-2.527-16.274-2.436-24.506
			L248.416,30.54z"/>
		<path class="st1" d="M430.747-0.004c6.712-0.087,13.411,0.583,19.967,1.995c4.383,0.943,8.705,2.141,12.944,3.588l-6.205,26.554
			c-3.413-1.554-6.991-2.728-10.668-3.501c-4.299-0.915-8.688-1.362-13.086-1.33c-4.513-0.124-9.005,0.644-13.211,2.258
			c-3.366,1.329-6.338,3.473-8.641,6.232c-2.242,2.861-3.804,6.181-4.569,9.715c-0.922,4.05-1.376,8.19-1.352,12.34v9.295h43.224
			l-6.277,26.869h-36.947v112.028h-32.572V57.252c0-17.878,4.741-31.91,14.224-42.098C397.06,4.967,411.45-0.086,430.747-0.004z"/>
		<path class="st1" d="M564.559,136.529c0-13.805-3.01-24.739-9.032-32.803c-6.021-8.063-14.431-12.09-25.23-12.078
			c-10.798,0-19.202,4.026-25.212,12.078c-6.009,8.052-9.02,18.986-9.032,32.803c0,14.004,3.017,25.09,9.05,33.258
			c6.033,8.169,14.437,12.253,25.212,12.253c10.798,0,19.208-4.084,25.23-12.253c6.021-8.168,9.032-19.254,9.032-33.258H564.559z
			 M598.021,136.529c0.127,10.2-1.514,20.346-4.854,30.002c-2.943,8.544-7.626,16.406-13.761,23.106
			c-5.988,6.409-13.299,11.482-21.443,14.879c-8.754,3.593-18.164,5.381-27.648,5.251c-9.438,0.138-18.804-1.65-27.506-5.251
			c-8.1-3.419-15.372-8.49-21.335-14.879c-6.142-6.728-10.857-14.595-13.869-23.141c-3.432-9.625-5.129-19.766-5.014-29.967
			c-0.132-10.184,1.565-20.312,5.014-29.915c3.062-8.505,7.833-16.315,14.029-22.965c6.002-6.357,13.312-11.382,21.442-14.739
			c8.626-3.545,17.892-5.331,27.239-5.251c9.392-0.071,18.703,1.715,27.381,5.251c8.155,3.314,15.473,8.344,21.443,14.739
			c6.12,6.68,10.84,14.484,13.886,22.965c3.437,9.605,5.122,19.733,4.979,29.915"/>
		<path class="st1" d="M707.49,96.131c-3.671-1.14-7.405-2.075-11.183-2.801c-5.467-1.029-11.024-1.516-16.589-1.453
			c-3.847,0.02-7.685,0.377-11.468,1.068c-2.87,0.442-5.708,1.062-8.499,1.855v111.275h-32.626V73.83
			c7.708-2.706,15.598-4.881,23.612-6.512c10.331-2.125,20.863-3.152,31.417-3.063c2.169,0,4.676,0.14,7.556,0.403
			c2.881,0.263,5.761,0.63,8.641,1.068c2.881,0.438,5.654,0.963,8.357,1.593c2.703,0.63,4.854,1.19,6.472,1.75L707.49,96.131z"/>
		<path class="st1" d="M758.783,133.027c0,13.63,3.011,23.584,9.033,29.862c2.994,3.126,6.632,5.587,10.671,7.217
			c4.038,1.63,8.383,2.392,12.745,2.236c4.976,0.036,9.929-0.678,14.686-2.118c3.968-1.131,7.743-2.836,11.202-5.059v-71.96
			c-2.347-0.525-5.228-1.015-8.641-1.453c-4.296-0.498-8.62-0.72-12.944-0.665c-11.854,0-20.933,3.851-27.239,11.553
			C761.99,110.342,758.819,120.471,758.783,133.027z M849.693,191.982c0,22.172-5.714,38.369-17.14,48.592
			c-11.427,10.222-28.911,15.357-52.451,15.403c-8.458,0.001-16.9-0.725-25.23-2.17c-7.578-1.24-15.04-3.084-22.314-5.514
			l5.921-27.359c6.139,2.474,12.511,4.344,19.024,5.584c7.614,1.464,15.357,2.174,23.114,2.118c13.122,0,22.474-2.655,28.057-7.965
			c5.583-5.31,8.369-13.186,8.357-23.631v-5.251c-4.134,1.933-8.422,3.531-12.82,4.779c-5.915,1.68-12.051,2.488-18.206,2.398
			c-8.423,0.098-16.791-1.345-24.679-4.254c-7.258-2.684-13.805-6.951-19.149-12.48c-5.583-5.917-9.825-12.933-12.446-20.585
			c-3.122-9.192-4.625-18.842-4.445-28.532c-0.107-9.495,1.488-18.935,4.712-27.885c2.928-8.155,7.623-15.586,13.761-21.775
			c6.251-6.138,13.745-10.909,21.994-14.004c9.384-3.501,19.357-5.218,29.391-5.059c10.125-0.037,20.236,0.765,30.225,2.398
			c9.483,1.599,17.579,3.279,24.288,5.041L849.693,191.982z"/>
		<path class="st1" d="M975.361,122.942c0.027-4.271-0.609-8.521-1.884-12.603c-1.142-3.775-3.02-7.295-5.53-10.363
			c-2.414-2.917-5.449-5.277-8.89-6.914c-3.902-1.753-8.157-2.615-12.446-2.521c-4.571-0.102-9.103,0.857-13.228,2.801
			c-3.656,1.773-6.909,4.256-9.566,7.299c-2.638,3.06-4.692,6.565-6.063,10.346c-1.432,3.865-2.428,7.875-2.969,11.955H975.361z
			 M880.683,137.278c-0.22-10.954,1.656-21.85,5.53-32.12c3.278-8.533,8.28-16.322,14.704-22.896
			c5.956-5.997,13.121-10.701,21.034-13.811c7.723-3.049,15.966-4.624,24.287-4.639c19.416,0,34.564,5.928,45.445,17.784
			c10.877,11.856,16.327,29.565,16.327,53.125c0,1.751,0,3.764-0.15,5.969c-0.14,2.206-0.23,4.201-0.39,5.969h-93.058
			c0.841,11.098,4.818,19.698,11.93,25.802c7.112,6.103,17.407,9.16,30.884,9.172c7.293,0.065,14.571-0.645,21.709-2.118
			c5.296-1.041,10.485-2.553,15.504-4.516l4.321,26.256c-2.399,1.105-4.877,2.035-7.414,2.783c-3.55,1.066-7.152,1.954-10.793,2.661
			c-4.054,0.782-8.416,1.441-13.086,1.978c-4.721,0.541-9.471,0.81-14.224,0.805c-11.04,0.235-22.024-1.613-32.359-5.444
			c-8.637-3.268-16.393-8.448-22.67-15.141c-5.995-6.575-10.499-14.333-13.21-22.756c-2.967-9.321-4.425-19.044-4.321-28.812"/>
	</g>
</g>
</svg>
