<?xml version="1.0" encoding="UTF-8"?>
<svg xmlns="http://www.w3.org/2000/svg" xmlns:xlink="http://www.w3.org/1999/xlink" version="1.1" viewBox="0 0 169 36">
  <defs>
    <style>
      .cls-1 {
        fill: none;
      }

      .cls-2 {
        fill: #080c0f;
      }

      .cls-3 {
        fill: #f68645;
      }

      .cls-3, .cls-4, .cls-5 {
        fill-rule: evenodd;
      }

      .cls-6, .cls-4, .cls-5 {
        fill: #242e5f;
      }

      .cls-4 {
        stroke: #000;
        stroke-miterlimit: 10;
        stroke-width: .5px;
      }

      .cls-7 {
        clip-path: url(#clippath);
      }
    </style>
    <clipPath id="clippath">
      <rect class="cls-1" width="169" height="36"/>
    </clipPath>
  </defs>
  <!-- Generator: Adobe Illustrator 28.6.0, SVG Export Plug-In . SVG Version: 1.2.0 Build 709)  -->
  <g>
    <g id="Layer_1">
      <g class="cls-7">
        <g>
          <path class="cls-5" d="M15.6,24c2-.5,3.9-1.2,5.8-2.2-1,4.4-3.1,8-6.4,10.6-2.4-.5-4.6-1.6-6.4-3.2-1.8-1.6-3.2-3.5-4.1-5.7,3,1.5,6.7,1.7,11.1.5Z"/>
          <path class="cls-5" d="M23.1,17.6c3,2.7,5,6.3,5.8,10.3-1.3,1.5-3,2.7-4.8,3.6-1.9.9-4,1.3-6.1,1.3-.5,0-1,0-1.4,0,2.6-1.9,4.5-5,5.6-9.3l.9-5.8Z"/>
          <path class="cls-5" d="M11.8,4.8c1.9-.9,4-1.4,6.2-1.4.3,0,.7,0,1.3,0-2.5,2.1-4.3,5.3-5.2,9.6-.5,1.9-.7,3.9-.6,5.9-3.5-2.8-5.6-6.3-6.5-10.5,1.4-1.6,3-2.8,4.9-3.7h0Z"/>
          <path class="cls-4" d="M26.9,12.4c1.7,0,3.3.4,4.9.9.6,1.5.8,3.2.8,4.8,0,3-.9,6-2.7,8.4-.4-3.3-2.3-6.4-5.5-9.5l-4.7-3.6c2.3-.8,4.8-1.2,7.2-1.1h0Z"/>
          <path class="cls-5" d="M26.9,6.5c1.8,1.4,3.3,3.2,4.3,5.2-3.1-1.2-6.7-1-10.9.4l-5.4,2.4c.7-4.4,2.6-7.9,5.7-10.8,2.3.4,4.4,1.4,6.2,2.8Z"/>
          <path class="cls-5" d="M4,22.5c-.5-1.4-.7-2.9-.7-4.5,0-3.2,1-6.3,3-8.8.3,3.3,2.1,6.5,5.3,9.6,1.4,1.4,3,2.6,4.7,3.7-4,1.4-8.3,1.4-12.3,0h0Z"/>
          <path class="cls-6" d="M34.5,18c0-.5,0-1,0-1.5h1.5c0-.7-.1-1.2-.2-1.8l-1.5.3c0-.5-.2-1-.3-1.5l1.5-.4c-.2-.5-.3-1.1-.5-1.6l-1.4.6c-.2-.5-.4-.9-.6-1.4l1.4-.7c-.2-.5-.5-1-.8-1.4l-1.3.8c-.3-.4-.6-.8-.9-1.3l1.2-.9c-.3-.4-.7-.9-1.1-1.3l-1.1,1c-.3-.4-.7-.7-1.1-1.1l1-1.1c-.4-.4-.8-.7-1.3-1.1l-.9,1.2c-.4-.3-.8-.6-1.3-.9l.8-1.3c-.5-.3-1-.6-1.5-.8l-.7,1.4c-.5-.2-.9-.4-1.4-.6l.6-1.4c-.5-.2-1-.4-1.6-.5l-.4,1.5c-.5-.1-1-.2-1.5-.3l.3-1.5c-.6,0-1.1-.2-1.7-.2v1.5c-.6,0-1.1,0-1.6,0h0V0c-.6,0-1.1,0-1.7,0v1.5c-.4,0-.9.1-1.4.2l-.3-1.5c-.6.1-1.1.2-1.6.4l.4,1.5c-.5.1-1,.3-1.4.5l-.6-1.4c-.5.2-1,.4-1.5.7l.7,1.4c-.5.2-.9.5-1.3.7l-.8-1.3c-.5.3-.9.6-1.4.9l.9,1.2c-.4.3-.8.6-1.2,1l-1-1.1c-.4.4-.8.8-1.2,1.2l1.1,1c-.3.4-.7.8-1,1.2l-1.2-.9c-.3.4-.6.9-.9,1.4l1.3.8c-.3.4-.5.9-.7,1.3l-1.4-.7c-.2.5-.5,1-.7,1.5l1.4.6c-.2.5-.3,1-.5,1.4l-1.5-.4c-.1.5-.3,1.1-.4,1.6l1.5.3c0,.5-.2,1-.2,1.5H0c0,.4,0,1,0,1.5h0s1.5,0,1.5,0c0,.5,0,1,0,1.5H0c0,.7.1,1.2.2,1.8l1.5-.3c0,.5.2,1,.3,1.5l-1.5.4c.2.5.3,1.1.5,1.6l1.4-.6c.2.5.4.9.6,1.4l-1.4.7c.2.5.5,1,.8,1.5l1.3-.8c.3.4.6.8.9,1.3l-1.2.9c.3.4.7.9,1.1,1.3l1.1-1c.3.4.7.7,1.1,1.1l-1,1.1c.4.4.8.7,1.3,1.1l.9-1.2c.4.3.8.6,1.3.9l-.8,1.3c.5.3,1,.6,1.5.8l.7-1.4c.5.2.9.4,1.4.6l-.6,1.4c.5.2,1,.4,1.6.5l.4-1.5c.5.1,1,.3,1.5.3l-.3,1.5c.6,0,1.1.2,1.7.2v-1.5c.6,0,1.1,0,1.6,0v1.5c.6,0,1.1,0,1.7,0v-1.5c.4,0,.9-.1,1.4-.2l.3,1.5c.6-.1,1.1-.2,1.6-.4l-.4-1.5c.5-.1,1-.3,1.4-.5l.6,1.4c.5-.2,1-.4,1.5-.7l-.7-1.4c.5-.2.9-.5,1.3-.7l.8,1.3c.5-.3.9-.6,1.4-.9l-.9-1.2c.4-.3.8-.6,1.2-1l1,1.1c.4-.4.8-.8,1.2-1.2l-1.1-1c.3-.4.7-.8,1-1.2l1.2.9c.3-.4.6-.9.9-1.4l-1.3-.8c.3-.4.5-.9.7-1.3l1.4.7c.2-.5.5-1,.7-1.5l-1.4-.5c.2-.5.3-.9.5-1.4l1.5.4c.2-.5.3-1.1.4-1.6l-1.5-.3c0-.5.2-1,.2-1.5h1.5c0-.4,0-1,0-1.5h0s-1.5,0-1.5,0ZM18,33c-4,0-7.8-1.6-10.6-4.4-2.8-2.8-4.4-6.6-4.4-10.6,0-4,1.6-7.8,4.4-10.6,2.8-2.8,6.6-4.4,10.6-4.4,4,0,7.8,1.6,10.6,4.4,2.8,2.8,4.4,6.6,4.4,10.6,0,4-1.6,7.8-4.4,10.6-2.8,2.8-6.6,4.4-10.6,4.4Z"/>
          <path class="cls-3" d="M113.2,10.5v2.4h-3.6c0,0-.2,0-.3,0h-.4c-.6,0-1.1,0-1.6.1-.3,0-.7.1-1,.3-.2.1-.4.3-.5.5,0,.3-.1.6-.1.9v2.3h6.9v2.3h-6.9v5.9h-2.8v-10.4c0-.8.1-1.6.5-2.4.3-.6.7-1,1.3-1.3.6-.3,1.3-.5,1.9-.5.7,0,1.5,0,2.4,0h.4c0,0,.2,0,.3,0h3.6Z"/>
          <path class="cls-3" d="M126.5,12.9c-.2-.6-.6-1.2-1.2-1.6-.6-.4-1.2-.6-1.9-.7-.9-.1-1.8-.2-2.8-.2-1,0-2,0-2.9.2-.7,0-1.3.3-1.9.8-.5.4-.9,1-1,1.6-.2.9-.3,1.8-.3,2.7v3.9c0,1,0,2,.3,2.9.2.7.5,1.3,1.1,1.7.6.4,1.2.7,1.9.8,1,.1,1.9.2,2.9.2.9,0,1.9,0,2.8-.2.7-.1,1.4-.4,1.9-.8.5-.4.9-1,1.1-1.7.3-.9.4-1.9.3-2.9v-3.9c0-1,0-1.9-.4-2.8ZM124.1,15.7v3.9c0,.6,0,1.1-.2,1.7-.1.4-.3.7-.6,1-.3.2-.7.4-1.1.4-.5,0-1.1.1-1.6,0-.6,0-1.1,0-1.7,0-.4,0-.7-.2-1-.4-.3-.3-.4-.6-.5-1,0-.6-.1-1.1-.1-1.7v-3.9c0-.5,0-1,.1-1.4,0-.3.2-.7.4-.9.3-.3.6-.4,1-.5.6-.1,1.2-.2,1.8-.1.5,0,1.1,0,1.6,0,.4,0,.7.2,1.1.4.3.2.5.5.6.9.1.5.2,1.1.1,1.6h0Z"/>
          <path class="cls-3" d="M140,12.2c.3.8.5,1.6.5,2.4v.8h-2.8v-.8c0-.3,0-.7-.1-1-.1-.2-.3-.4-.5-.5-.3-.1-.6-.2-.9-.2-.4,0-.9,0-1.5,0-.6,0-1.1,0-1.7.1-.4,0-.7.2-1,.5-.3.3-.4.6-.5,1,0,.6-.1,1.1-.1,1.7v3.2c0,.6,0,1.2.1,1.8,0,.4.2.7.4,1,.3.3.6.5,1,.5.6,0,1.2.1,1.8.1.6,0,1,0,1.5,0,.4,0,.7-.1,1-.3.3-.1.5-.4.6-.6.1-.4.2-.8.2-1.2v-.8h2.8v.9c0,.9,0,1.7-.4,2.5-.3.5-.7,1-1.2,1.3-.6.3-1.3.5-1.9.5-.7,0-1.6,0-2.5.1-1,0-2.1,0-3.1-.2-.7-.2-1.3-.5-1.8-1-.5-.5-.8-1.2-.9-1.8-.2-.9-.2-1.8-.2-2.7v-3.3c0-1,0-1.9.3-2.9.2-.7.6-1.3,1.1-1.8.5-.4,1.2-.7,1.9-.9.9-.2,1.9-.2,2.8-.2.9,0,1.7,0,2.4,0,.6,0,1.3.2,1.8.5.5.3.9.7,1.2,1.3h0Z"/>
          <path class="cls-3" d="M151.9,10.5h2.8v10.4c0,.8-.1,1.7-.5,2.4-.3.6-.7,1-1.3,1.3-.6.3-1.3.5-1.9.6-.7,0-1.6.1-2.4.1s-1.7,0-2.4-.1c-.7,0-1.3-.2-1.9-.6-.6-.3-1-.7-1.3-1.3-.4-.7-.5-1.6-.5-2.4v-10.4h2.8v10.4c0,.3,0,.6.1.9,0,.2.3.5.5.6.3.2.6.3,1,.3.5,0,1.1.1,1.6,0,.5,0,1.1,0,1.6,0,.4,0,.7-.1,1-.3.2-.1.4-.4.5-.6.1-.3.2-.6.1-1v-10.4Z"/>
          <path class="cls-3" d="M164.9,10.5c.6,0,1.2.2,1.7.4.5.3.9.7,1.2,1.2.3.7.5,1.5.4,2.3v.5h-2.8v-.5c0-.3,0-.6-.1-.9,0-.2-.2-.4-.4-.5-.2-.1-.5-.2-.8-.2h-1.2c-.7,0-1.3,0-1.7,0-.3,0-.7.1-1,.3-.1,0-.2.1-.3.2,0,0-.1.2-.2.3,0,.3-.1.6-.1.9,0,.4,0,.7,0,1.1,0,.1,0,.2.2.3,0,0,.2.2.3.2.3.2.6.2,1,.3.4,0,1,0,1.7.1,1.1,0,2.1.2,2.8.2.6,0,1.2.3,1.7.6.4.3.8.7.9,1.2.2.7.3,1.4.3,2.2,0,.8,0,1.6-.4,2.4-.2.5-.6,1-1.1,1.3-.5.3-1.2.5-1.8.6-.8,0-1.6.1-2.4.1-.8,0-1.6,0-2.3,0-.7,0-1.3-.2-2-.4-.6-.3-1-.7-1.4-1.2-.4-.7-.5-1.6-.5-2.4v-.7h2.8v.7c0,.3,0,.7.1,1,.1.2.3.4.6.5.3.1.7.2,1,.2.4,0,1,0,1.6,0,.5,0,1,0,1.5,0,.3,0,.6-.2.9-.4.2-.2.4-.4.4-.7,0-.3,0-.7,0-1.1,0-.4,0-.8-.2-1.1-.1-.3-.4-.4-.6-.5-.3-.1-.7-.2-1-.2-.4,0-.9,0-1.4,0-.8,0-1.5,0-2.2-.1-.6,0-1.2-.2-1.8-.5-.5-.3-.9-.7-1.2-1.2-.3-.8-.5-1.6-.4-2.4,0-.8.1-1.6.4-2.4.3-.5.7-1,1.3-1.2.6-.3,1.3-.4,1.9-.5.7,0,1.5,0,2.4,0,.7,0,1.4,0,2.1,0Z"/>
          <path class="cls-2" d="M59,24.4c-.8.5-1.7.8-2.6,1-.9.2-1.8.3-2.8.3-1.1,0-2.1-.2-3.1-.5-.9-.3-1.7-.9-2.4-1.5-.7-.7-1.2-1.5-1.6-2.4-.4-1-.6-2-.6-3.1,0-1.1.2-2.1.6-3.1.4-.9.9-1.7,1.7-2.4.7-.7,1.5-1.2,2.4-1.5,1-.4,2-.6,3-.5.9,0,1.8.1,2.7.4.9.3,1.7.8,2.3,1.5l-1.3,1.3c-.5-.5-1.1-.9-1.8-1.2-.7-.3-1.4-.4-2.1-.4-.8,0-1.6.1-2.3.4-.7.3-1.3.7-1.8,1.2-.5.5-.9,1.2-1.2,1.9-.3.8-.4,1.6-.4,2.4,0,.8.1,1.6.4,2.4.3.7.7,1.3,1.2,1.9.5.5,1.2,1,1.9,1.2.8.3,1.6.5,2.4.4.6,0,1.2,0,1.8-.2.6-.1,1.2-.3,1.7-.6v-4.4h-3.3v-1.6h5v7Z"/>
          <path class="cls-2" d="M62.6,11h9v1.6h-7.3v4.5h6.8v1.6h-6.8v5.1h7.7v1.6h-9.4v-14.3Z"/>
          <path class="cls-2" d="M79.2,11h1.6l6.1,14.3h-2l-1.5-3.5h-7.2l-1.5,3.5h-1.9l6.3-14.3ZM80,13.2h0l-3,7.1h5.8l-2.8-7.1Z"/>
          <path class="cls-2" d="M88.8,11h3.7c.7,0,1.4,0,2.1.1.6,0,1.3.2,1.8.5.5.3,1,.7,1.3,1.2.4.6.5,1.4.5,2.1,0,.5,0,.9-.2,1.4-.2.4-.4.8-.7,1.2-.7.7-1.6,1.1-2.6,1.2l4.1,6.6h-2.1l-3.9-6.4h-2.2v6.4h-1.7v-14.3ZM90.5,17.3h1.5c.5,0,1,0,1.5,0,.5,0,.9-.1,1.4-.3.4-.1.8-.4,1.1-.7.3-.4.4-.9.4-1.4,0-.4,0-.9-.3-1.2-.2-.3-.5-.6-.8-.7-.3-.2-.7-.3-1.1-.3-.4,0-.8,0-1.2,0h-2.4v4.7Z"/>
        </g>
      </g>
    </g>
  </g>
</svg>