<svg width="173" height="63" viewBox="0 0 173 63" fill="none" xmlns="http://www.w3.org/2000/svg">
<path d="M73.5921 27.9475C73.2355 26.3574 72.1758 25.1517 70.4587 24.3704C69.6919 24.0008 68.0659 23.4978 65.1764 22.7381C62.8805 22.1325 61.9017 21.6671 61.4972 21.3922C61.0528 21.0762 60.8625 20.7226 60.8625 20.2071C60.8625 17.8494 63.5812 17.595 64.7502 17.595C66.8285 17.595 69.2566 18.2509 71.0843 19.306L71.7884 19.7132L73.4577 16.8387L72.8025 16.4167C70.7208 15.0753 67.7811 14.2734 64.9405 14.2734C60.1288 14.2734 57.1401 16.63 57.1401 20.4226C57.1401 21.9637 57.7565 23.2195 58.9221 24.0533C59.9476 24.7902 61.6727 25.4688 64.1771 26.127C64.3956 26.2032 64.6181 26.2672 64.8437 26.3186C64.985 26.3528 65.1171 26.3848 65.2265 26.4213L66.571 26.7635L67.6352 27.0908C68.3941 27.2984 68.5627 27.3943 69.0606 27.6794L69.1564 27.7342C69.529 27.9292 69.5916 28.0421 69.8024 28.4186L69.8423 28.4813C69.9984 28.7094 70.0246 29.0094 70.0246 29.5968C70.0246 30.4192 69.6828 30.9987 68.9615 31.4219C68.0978 31.926 67.0097 32.1815 65.729 32.1815C63.212 32.1815 60.4318 31.407 58.4743 30.1592L57.769 29.7177L56.0371 32.5557L56.6729 32.9937C58.9574 34.5666 62.2709 35.5031 65.5342 35.5031C70.5043 35.5031 73.7163 33.0998 73.7163 29.3801C73.7265 28.8995 73.6849 28.4191 73.5921 27.9475Z" fill="#003BA8"/>
<path d="M83.8308 19.7188C81.5736 19.7188 79.6286 20.4921 78.0471 22.0149C76.4656 23.5376 75.6543 25.4299 75.6543 27.6109C75.6543 29.7918 76.461 31.6727 78.0471 33.2C79.6331 34.7273 81.5736 35.4973 83.8308 35.4973C86.0879 35.4973 88.0341 34.7239 89.6156 33.2C91.2233 31.651 92.0391 29.769 92.0391 27.6109C92.0391 25.4528 91.2233 23.565 89.6156 22.0149C88.0341 20.4921 86.0834 19.7188 83.8308 19.7188ZM80.4581 24.303C81.3563 23.4225 82.5637 22.93 83.8208 22.9313C85.0779 22.9325 86.2843 23.4275 87.1806 24.3098C87.6255 24.7374 87.9793 25.2507 88.2207 25.8188C88.4621 26.3869 88.5862 26.9981 88.5854 27.6154C88.5847 28.2328 88.4591 28.8436 88.2163 29.4111C87.9735 29.9786 87.6185 30.4911 87.1727 30.9176C86.7368 31.3608 86.2155 31.7106 85.6404 31.9459C85.0654 32.1812 84.4485 32.2971 83.8273 32.2864C81.2067 32.2864 79.0703 30.1864 79.0703 27.6097C79.0562 26.992 79.1723 26.3782 79.4108 25.8083C79.6493 25.2384 80.005 24.7251 80.4547 24.3019" fill="#003BA8"/>
<path d="M113.65 19.7222C111.476 19.7222 109.448 20.4066 107.611 21.7525C106.62 20.4362 105.064 19.7222 103.132 19.7222C101.34 19.7222 99.7949 20.1898 98.1837 21.2506V19.9959H94.7051V35.2326H98.1826V24.5174C99.7128 23.2924 100.848 22.851 102.398 22.851C104.291 22.851 105.335 24.0304 105.335 26.1714V35.2326H108.786V26.3356C108.786 25.6839 108.718 25.034 108.583 24.3965C109.832 23.3841 111.393 22.8367 113 22.8475C114.866 22.8475 115.936 24.0578 115.936 26.1679V35.2292H119.387V25.7048C119.387 22.0696 117.136 19.7188 113.651 19.7188" fill="#003BA8"/>
<path d="M131.482 19.7205C129.529 19.7108 127.615 20.2597 125.964 21.3026V19.9932H122.488V35.231H125.967V24.623C127.359 23.4265 128.964 22.8436 130.866 22.8436C132.813 22.8436 133.884 24.0231 133.884 26.164V35.2253H137.362V25.7009C137.362 22.0657 135.058 19.7148 131.491 19.7148" fill="#003BA8"/>
<path d="M144.229 19.9922H140.777V35.23H144.229V19.9922Z" fill="#003BA8"/>
<path d="M161 22.0149C159.419 20.4921 157.468 19.7188 155.216 19.7188C152.963 19.7188 151.013 20.4921 149.432 22.0149C147.85 23.5376 147.039 25.4299 147.039 27.6109C147.039 29.7918 147.846 31.6727 149.432 33.2C151.018 34.7273 152.964 35.4973 155.216 35.4973C157.467 35.4973 159.419 34.7239 161 33.2C162.609 31.6499 163.425 29.7678 163.425 27.6109C163.425 25.4539 162.605 23.5673 161 22.0149ZM151.843 24.303C152.741 23.4225 153.948 22.93 155.206 22.9313C156.463 22.9325 157.669 23.4275 158.565 24.3098C159.511 25.2098 159.97 26.29 159.97 27.6109C159.985 28.2312 159.866 28.8474 159.623 29.418C159.379 29.9886 159.016 30.5003 158.559 30.9187C158.122 31.3618 157.601 31.7116 157.026 31.9469C156.45 32.1822 155.833 32.2981 155.212 32.2875C152.591 32.2875 150.455 30.1876 150.455 27.6109C150.441 26.9932 150.557 26.3795 150.796 25.8096C151.034 25.2397 151.39 24.7264 151.839 24.303" fill="#003BA8"/>
<path d="M61.464 41.4167L61.1541 41.9494C60.4196 41.5369 59.5942 41.3138 58.7522 41.3003C57.8509 41.3003 57.0761 41.6585 57.0761 42.522C57.0729 42.6526 57.1033 42.7818 57.1643 42.8972C57.2254 43.0127 57.3151 43.1105 57.4248 43.1813C57.6663 43.3455 58.1323 43.5235 58.8285 43.7048C59.7879 43.9569 60.3975 44.1405 60.6596 44.2672C61.1913 44.5105 61.5111 44.8694 61.6189 45.3439C61.6473 45.4908 61.6603 45.6403 61.6577 45.7899C61.6577 47.0503 60.4761 47.68 59.037 47.68C57.9421 47.68 56.8197 47.3697 56.0449 46.837L56.364 46.3135C57.1921 46.8115 58.1393 47.0759 59.1054 47.0788C59.5562 47.0915 60.0022 46.9836 60.3975 46.7663C60.5606 46.6806 60.6964 46.5506 60.7891 46.3912C60.8818 46.2318 60.9277 46.0495 60.9216 45.8652C60.9216 45.6371 60.9114 45.458 60.8077 45.3029C60.7366 45.1449 60.6124 45.0169 60.4567 44.9413C60.2718 44.8247 60.0689 44.7396 59.8563 44.6892L59.478 44.5751L59.0131 44.4611C58.8992 44.4223 58.7613 44.4029 58.6348 44.355C57.7825 44.1268 57.1832 43.8987 56.8437 43.6569C56.6766 43.5377 56.542 43.3784 56.4523 43.1937C56.3625 43.009 56.3204 42.8047 56.3298 42.5995C56.3298 41.2809 57.4635 40.6992 58.8194 40.6992C59.7594 40.6992 60.7564 40.9604 61.464 41.4167Z" fill="#003BA8"/>
<path d="M59.0341 47.7772C57.9095 47.7772 56.7701 47.4555 55.9873 46.916L55.9121 46.8647L56.3303 46.1803L56.4135 46.2327C57.2263 46.7199 58.1551 46.9791 59.1025 46.9833C59.5393 46.9975 59.972 46.8947 60.3558 46.6856C60.5044 46.6084 60.6279 46.4906 60.7121 46.3458C60.7962 46.2009 60.8374 46.0351 60.831 45.8677C60.831 45.6544 60.8241 45.4936 60.7318 45.359C60.6697 45.216 60.5586 45.0999 60.4185 45.0317L60.3912 45.0168C60.2207 44.9102 60.0335 44.8331 59.8374 44.7887L59.4557 44.6746L58.9999 44.5606C58.9452 44.5423 58.894 44.5309 58.8415 44.5172C58.7641 44.5001 58.688 44.4776 58.6137 44.4499C57.7466 44.2218 57.1507 43.9937 56.8009 43.7404C56.6219 43.612 56.4776 43.441 56.3809 43.2429C56.2843 43.0448 56.2383 42.8258 56.2471 42.6055C56.2471 41.3736 57.2373 40.6094 58.8324 40.6094C59.8101 40.6094 60.8173 40.8831 61.5283 41.3417L61.6058 41.3919L61.2013 42.0877L61.1192 42.0397C60.3993 41.6355 59.5905 41.4164 58.7652 41.4021C58.3938 41.4021 57.1848 41.4842 57.1848 42.5279C57.1815 42.6432 57.2082 42.7574 57.2624 42.8592C57.3165 42.961 57.3962 43.0469 57.4936 43.1085C57.7215 43.2671 58.1875 43.4382 58.8609 43.6184C59.8625 43.8807 60.4561 44.0621 60.7091 44.1887C61.2651 44.4419 61.6058 44.8263 61.7197 45.3294C61.7501 45.4833 61.7638 45.6401 61.7607 45.797C61.7573 46.9947 60.6874 47.7772 59.0341 47.7772ZM56.1742 46.8088C56.9228 47.2958 57.9847 47.5844 59.0364 47.5844C60.2032 47.5844 61.5648 47.1145 61.5648 45.7902C61.5677 45.6471 61.5555 45.5041 61.5283 45.3636C61.428 44.9164 61.1318 44.5868 60.6236 44.3552C60.3752 44.2355 59.7987 44.0587 58.8085 43.7986C58.0986 43.6104 57.6304 43.4347 57.3751 43.2614C57.252 43.1821 57.1513 43.0725 57.0827 42.9431C57.0141 42.8136 56.9798 42.6687 56.9832 42.5222C56.9832 41.6976 57.6463 41.2048 58.7561 41.2048C59.5825 41.2192 60.3936 41.4299 61.1227 41.8196L61.338 41.4489C60.6612 41.0394 59.7292 40.7953 58.8233 40.7953C57.325 40.7953 56.4305 41.4706 56.4305 42.5998C56.4211 42.7895 56.4594 42.9786 56.542 43.1496C56.6246 43.3207 56.7489 43.4681 56.9034 43.5785C57.2293 43.8123 57.8218 44.0416 58.6638 44.2629C58.7348 44.2889 58.8075 44.3098 58.8814 44.3256C58.9384 44.3404 58.9954 44.3541 59.0478 44.3712L59.5035 44.4853L59.8875 44.5993C60.0983 44.6484 60.2996 44.7316 60.4835 44.8457L60.5074 44.8594C60.6769 44.9428 60.8126 45.0822 60.8914 45.2541C61.011 45.4263 61.0201 45.6248 61.0201 45.8643C61.0267 46.0653 60.9768 46.2642 60.8761 46.4382C60.7754 46.6122 60.6279 46.7544 60.4504 46.8487C60.0386 47.0744 59.5741 47.1862 59.1048 47.1726C58.1533 47.1708 57.219 46.9191 56.3952 46.4426L56.1742 46.8088Z" fill="#003BA8"/>
<path d="M76.5393 42.4315C76.857 42.9616 77.0248 43.5682 77.0248 44.1864C77.0248 44.8046 76.857 45.4111 76.5393 45.9413C76.2231 46.4747 75.7725 46.9157 75.2326 47.2201C74.6928 47.5246 74.0825 47.6818 73.4629 47.6762C71.5362 47.7252 69.8407 46.0793 69.8897 44.1858C69.8897 42.257 71.4849 40.6955 73.4629 40.6955C74.0827 40.6898 74.693 40.8472 75.2329 41.1519C75.7728 41.4566 76.2233 41.8978 76.5393 42.4315ZM70.6144 44.1858C70.6114 44.7491 70.7755 45.3005 71.0859 45.7703C71.3962 46.2402 71.8388 46.6073 72.3577 46.8251C72.8766 47.0429 73.4483 47.1017 74.0006 46.9941C74.5529 46.8864 75.0608 46.6171 75.4601 46.2203C75.8594 45.8234 76.1321 45.3169 76.2436 44.7648C76.3551 44.2128 76.3005 43.64 76.0867 43.119C75.8728 42.598 75.5094 42.1523 75.0423 41.8382C74.5752 41.5241 74.0256 41.3559 73.4629 41.3548C71.9042 41.3251 70.587 42.6437 70.6144 44.1858Z" fill="#003BA8"/>
<path d="M73.3781 47.777C72.4199 47.7673 71.5044 47.3786 70.8315 46.6957C70.498 46.3692 70.234 45.9786 70.0552 45.5474C69.8765 45.1161 69.7866 44.6532 69.7912 44.1863C69.7889 42.2107 71.4411 40.6058 73.459 40.6058C74.0964 40.5972 74.7248 40.7576 75.2804 41.0707C75.8359 41.3838 76.2988 41.8385 76.622 42.3886C76.9479 42.9338 77.1199 43.5572 77.1199 44.1926C77.1199 44.8279 76.9479 45.4513 76.622 45.9965C76.2984 46.5463 75.8355 47.0007 75.28 47.3138C74.7246 47.6268 74.0963 47.7874 73.459 47.7793L73.3781 47.777ZM73.4612 40.794C71.5436 40.794 69.9837 42.3168 69.9837 44.1886C69.9795 44.6296 70.0644 45.067 70.2334 45.4743C70.4024 45.8816 70.652 46.2505 70.9671 46.5588C71.3448 46.934 71.8026 47.2188 72.3059 47.3918C72.8093 47.5647 73.3452 47.6214 73.8735 47.5575C74.4019 47.4937 74.9089 47.3109 75.3567 47.023C75.8045 46.7351 76.1813 46.3494 76.459 45.895C76.767 45.3794 76.9297 44.7899 76.9297 44.1891C76.9297 43.5884 76.767 42.9989 76.459 42.4833C76.1523 41.9618 75.7132 41.5308 75.1863 41.2341C74.6594 40.9374 74.0634 40.7856 73.459 40.794H73.4612ZM73.4521 47.1166C72.8734 47.1179 72.3072 46.9475 71.8252 46.6268C71.3432 46.3061 70.967 45.8496 70.7441 45.3149C70.5211 44.7802 70.4616 44.1914 70.5729 43.6228C70.6841 43.0543 70.9613 42.5315 71.3693 42.1206C71.9103 41.5754 72.6446 41.2662 73.4122 41.2605H73.4635C73.8476 41.2613 74.2278 41.3378 74.5824 41.4856C74.937 41.6334 75.259 41.8497 75.5301 42.1222C75.8011 42.3946 76.0159 42.7178 76.1622 43.0733C76.3085 43.4289 76.3835 43.8097 76.3827 44.1943C76.382 44.5788 76.3056 44.9594 76.1579 45.3143C76.0102 45.6693 75.7941 45.9917 75.522 46.263C75.2499 46.5344 74.927 46.7494 74.5719 46.8959C74.2167 47.0423 73.8362 47.1173 73.4521 47.1166ZM73.4145 41.4533C72.6968 41.458 72.0102 41.7472 71.5049 42.2575C71.2496 42.5091 71.0475 42.8095 70.9105 43.1408C70.7735 43.4722 70.7044 43.8277 70.7073 44.1863C70.7073 44.9153 70.9966 45.6145 71.5116 46.1301C72.0265 46.6456 72.725 46.9352 73.4533 46.9352C74.1815 46.9352 74.88 46.6456 75.395 46.1301C75.91 45.6145 76.1993 44.9153 76.1993 44.1863C76.2053 43.8266 76.1369 43.4696 75.9985 43.1377C75.86 42.8057 75.6545 42.5061 75.3948 42.2575C75.1438 41.9981 74.8425 41.7928 74.5095 41.6541C74.1764 41.5154 73.8185 41.4463 73.4578 41.451L73.4145 41.4533Z" fill="#003BA8"/>
<path d="M90.5305 41.4277H86.4434V44.026H90.1818V44.6272H86.4434V47.5837H85.7461V40.7969H90.5305V41.4277Z" fill="#003BA8"/>
<path d="M86.5383 47.6777H85.6484V40.6992H90.6254V41.5182H86.5383V43.9238H90.2779V44.7223H86.5383V47.6777ZM85.841 47.4849H86.3458V44.5284H90.0853V44.12H86.3458V41.3289H90.434V40.892H85.841V47.4849Z" fill="#003BA8"/>
<path d="M103.688 41.398H101.325V47.5837H100.627V41.398H98.2637V40.7969H103.688V41.398Z" fill="#003BA8"/>
<path d="M101.421 47.6783H100.531V41.4938H98.168V40.6953H103.784V41.4938H101.421V47.6783ZM100.725 47.4867H101.23V41.301H103.594V40.8926H98.3605V41.301H100.725V47.4867Z" fill="#003BA8"/>
<path d="M118.881 47.5837H118.125L116.236 41.8337L114.348 47.5837H113.582L111.258 40.7969H112.033L113.989 46.5469L115.868 40.7969H116.604L118.474 46.5469L120.43 40.7969H121.205L118.881 47.5837Z" fill="#003BA8"/>
<path d="M118.949 47.6788H118.056L116.233 42.1399L114.41 47.6788H113.506L111.113 40.6992H112.091L113.977 46.2405L115.788 40.6992H116.677L118.478 46.2405L120.364 40.6992H121.342L118.949 47.6788ZM118.195 47.486H118.811L121.071 40.892H120.501L118.474 46.8496L116.537 40.892H115.94L113.994 46.8484L111.966 40.892H111.396L113.654 47.486H114.281L116.24 41.5239L118.195 47.486Z" fill="#003BA8"/>
<path d="M135.039 47.5837H134.215L133.417 45.7906H129.688L128.885 47.5837H128.051L131.093 40.7969H132.005L135.039 47.5837ZM129.876 45.218H133.208L131.542 41.5622L129.876 45.218Z" fill="#003BA8"/>
<path d="M135.187 47.6788H134.153L133.349 45.8846H129.744L128.946 47.6788H127.902L131.03 40.6992H132.058L135.187 47.6788ZM134.275 47.486H134.887L131.932 40.892H131.146L128.192 47.486H128.814L129.611 45.6918H133.465L134.275 47.486ZM133.354 45.3131H129.724L131.539 41.3289L133.354 45.3131ZM130.023 45.1204H133.056L131.539 41.7931L130.023 45.1204Z" fill="#003BA8"/>
<path d="M143.344 40.7969H146.23C148.195 40.7969 148.99 41.4265 148.99 42.9002C148.99 44.0546 148.496 44.6648 147.362 44.8884L149.243 47.5837H148.428L146.642 44.9853C146.477 44.9956 146.294 45.0047 146.09 45.0047H144.047V47.5837H143.349L143.344 40.7969ZM144.041 41.4265V44.4526H146.258C147.702 44.4526 148.264 44.0158 148.264 42.9401C148.264 41.8645 147.702 41.4265 146.258 41.4265H144.041Z" fill="#003BA8"/>
<path d="M149.427 47.6777H148.378L146.588 45.0816C146.435 45.0907 146.269 45.0975 146.084 45.0975H144.136V47.6777H143.246V40.6992H146.229C148.231 40.6992 149.086 41.3574 149.086 42.8984C149.086 44.0573 148.602 44.6949 147.523 44.9515L149.427 47.6777ZM148.479 47.4849H149.058L147.2 44.8261L147.345 44.7975C148.43 44.5842 148.894 44.0173 148.894 42.9041C148.894 41.4783 148.122 40.8977 146.23 40.8977H143.44V47.4917H143.945V44.907H146.084C146.286 44.907 146.466 44.8979 146.631 44.8877H146.685L148.479 47.4849ZM146.259 44.5455H143.945V41.3289H146.259C147.751 41.3289 148.36 41.7954 148.36 42.9383C148.36 44.0812 147.751 44.5466 146.259 44.5466V44.5455ZM144.136 44.3538H146.258C147.632 44.3538 148.166 43.9569 148.166 42.9383C148.166 41.9197 147.633 41.5182 146.259 41.5182H144.136V44.3538Z" fill="#003BA8"/>
<path d="M162.574 41.4277H158.244V43.8515H162.234V44.4526H158.244V46.9541H162.671V47.5837H157.547V40.7969H162.574V41.4277Z" fill="#003BA8"/>
<path d="M162.767 47.6777H157.451V40.6992H162.67V41.5182H158.34V43.7493H162.328V44.5477H158.34V46.8564H162.765L162.767 47.6777ZM157.639 47.4849H162.569V47.0469H158.151V44.3538H162.139V43.9455H158.151V41.3289H162.481V40.892H157.647L157.639 47.4849Z" fill="#003BA8"/>
<mask id="mask0_2080_35398" style="mask-type:luminance" maskUnits="userSpaceOnUse" x="11" y="8" width="30" height="21">
<path d="M27.962 9.30233L26.998 9.86467L11.7298 18.7548C11.6501 18.8005 11.5806 18.8541 11.5019 18.9043C11.4066 19.7479 11.5618 20.601 11.9481 21.3569C12.3343 22.1128 12.9345 22.738 13.6737 23.1543L23.0328 28.4743C22.7124 28.2776 22.4485 28.001 22.2668 27.6716C22.0852 27.3422 21.992 26.9712 21.9965 26.595C22.001 26.2187 22.1029 25.8501 22.2924 25.5251C22.4818 25.2001 22.7523 24.9299 23.0773 24.7409L27.2043 22.3456L39.7378 15.0637C39.8701 14.9874 39.98 14.8775 40.0564 14.7451C40.1328 14.6128 40.173 14.4626 40.173 14.3098C40.173 14.1569 40.1328 14.0067 40.0564 13.8744C39.98 13.742 39.8701 13.6321 39.7378 13.5558L32.3088 9.29092C31.6468 8.91151 30.8968 8.71286 30.1339 8.71486C29.371 8.71686 28.622 8.91944 27.962 9.30233Z" fill="white"/>
</mask>
<g mask="url(#mask0_2080_35398)">
<path d="M19.1729 -4.17748L2.56445 23.125L32.4749 41.359L49.0833 14.0566L19.1729 -4.17748Z" fill="url(#paint0_linear_2080_35398)"/>
</g>
<mask id="mask1_2080_35398" style="mask-type:luminance" maskUnits="userSpaceOnUse" x="9" y="18" width="22" height="23">
<path d="M9.82847 21.0461C9.68532 21.4438 9.60162 21.8604 9.58008 22.2826V27.6356L9.60628 36.3045C9.61654 39.6534 13.2444 41.7362 16.1363 40.0526L28.6049 32.7924C28.9138 32.6424 29.2536 32.5669 29.5969 32.572C29.9402 32.5772 30.2775 32.6628 30.5818 32.8221L28.8271 31.8172L24.0598 29.0694L23.0845 28.507C23.0674 28.4956 23.0514 28.4831 23.0343 28.474L13.6729 23.1563C12.935 22.739 12.3362 22.1134 11.9512 21.3576C11.5662 20.6018 11.412 19.7492 11.508 18.9062C10.7353 19.4217 10.1482 20.1718 9.83303 21.0461" fill="white"/>
</mask>
<g mask="url(#mask1_2080_35398)">
<path d="M30.583 18.9062H9.58008V41.7408H30.583V18.9062Z" fill="url(#paint1_linear_2080_35398)"/>
</g>
<mask id="mask2_2080_35398" style="mask-type:luminance" maskUnits="userSpaceOnUse" x="16" y="34" width="30" height="21">
<path d="M33.4873 38.2584L29.3615 40.6537L16.8279 47.9356C16.6956 48.0118 16.5857 48.1216 16.5092 48.2538C16.4328 48.3861 16.3926 48.5362 16.3926 48.689C16.3926 48.8418 16.4328 48.9919 16.5092 49.1242C16.5857 49.2564 16.6956 49.3662 16.8279 49.4424L24.2512 53.705C24.9132 54.0849 25.6635 54.2835 26.4266 54.2809C27.1897 54.2783 27.9386 54.0746 28.598 53.6901L29.5631 53.1278L44.8313 44.2399C44.9111 44.1932 44.9794 44.1384 45.0535 44.0905C45.148 43.2469 44.9924 42.3942 44.606 41.6386C44.2196 40.883 43.6195 40.258 42.8806 39.8416L33.5329 34.5273C33.8527 34.7243 34.1161 35.0008 34.2973 35.3301C34.4785 35.6593 34.5713 36.0299 34.5667 36.4058C34.5621 36.7817 34.4603 37.1499 34.2711 37.4746C34.0819 37.7993 33.8118 38.0694 33.4873 38.2584Z" fill="white"/>
</mask>
<g mask="url(#mask2_2080_35398)">
<path d="M28.2253 20.2384L6.43555 46.2344L33.2581 68.7653L55.0478 42.7694L28.2253 20.2384Z" fill="url(#paint2_linear_2080_35398)"/>
</g>
<mask id="mask3_2080_35398" style="mask-type:luminance" maskUnits="userSpaceOnUse" x="25" y="22" width="22" height="23">
<path d="M40.4302 22.9422L27.9593 30.2035C27.6505 30.3539 27.3106 30.4295 26.9672 30.4242C26.6238 30.4188 26.2864 30.3327 25.9824 30.1727L27.7337 31.1845L32.501 33.9311L33.4764 34.4946C33.4946 34.506 33.5094 34.5186 33.5276 34.53L42.8857 39.8465C43.6246 40.263 44.2246 40.8879 44.611 41.6435C44.9974 42.3991 45.1531 43.2519 45.0585 44.0954C45.8309 43.5799 46.4177 42.8298 46.7324 41.9556C46.8776 41.5594 46.9633 41.1439 46.9864 40.7225V35.3615L46.9602 26.6926C46.9605 25.9279 46.7591 25.1767 46.3763 24.5149C45.9936 23.8531 45.4431 23.3042 44.7805 22.9237C44.118 22.5431 43.3668 22.3444 42.6029 22.3477C41.839 22.3509 41.0896 22.556 40.4302 22.9422Z" fill="white"/>
</mask>
<g mask="url(#mask3_2080_35398)">
<path d="M31.8583 12.91L16.2324 38.0117L41.1118 53.5326L56.7377 28.4308L31.8583 12.91Z" fill="url(#paint3_linear_2080_35398)"/>
</g>
<defs>
<linearGradient id="paint0_linear_2080_35398" x1="20.9126" y1="26.9183" x2="31.81" y2="9.0426" gradientUnits="userSpaceOnUse">
<stop stop-color="#29218C"/>
<stop offset="0.04" stop-color="#27319C"/>
<stop offset="0.15" stop-color="#205AC4"/>
<stop offset="0.2" stop-color="#1E6AD3"/>
<stop offset="1" stop-color="#1681E3"/>
</linearGradient>
<linearGradient id="paint1_linear_2080_35398" x1="10.0828" y1="30.1665" x2="31.0941" y2="30.1665" gradientUnits="userSpaceOnUse">
<stop stop-color="#0BA1FA"/>
<stop offset="0.66" stop-color="#1D6BD4"/>
<stop offset="0.76" stop-color="#225CC9"/>
<stop offset="0.96" stop-color="#3034AD"/>
<stop offset="1" stop-color="#332BA6"/>
</linearGradient>
<linearGradient id="paint2_linear_2080_35398" x1="36.0268" y1="38.61" x2="26.2913" y2="50.1998" gradientUnits="userSpaceOnUse">
<stop stop-color="#29218C"/>
<stop offset="0.11" stop-color="#3C2EA1"/>
<stop offset="0.27" stop-color="#4E3AB5"/>
<stop offset="0.44" stop-color="#5B43C3"/>
<stop offset="0.65" stop-color="#6348CB"/>
<stop offset="1" stop-color="#654ACE"/>
</linearGradient>
<linearGradient id="paint3_linear_2080_35398" x1="33.4413" y1="31.6894" x2="51.8995" y2="43.1796" gradientUnits="userSpaceOnUse">
<stop stop-color="#9769F6"/>
<stop offset="1" stop-color="#332BA6"/>
</linearGradient>
</defs>
</svg>
