<svg width="192" height="45" viewBox="0 0 192 45" fill="none" xmlns="http://www.w3.org/2000/svg">
<path fill-rule="evenodd" clip-rule="evenodd" d="M30.7554 27.9866C30.7554 27.1907 31.4 26.5461 32.1959 26.5461H42.6846C42.8877 25.3756 43.0001 24.1735 43.0001 22.9447H9.86726C10.6632 22.9447 11.3078 23.5893 11.3078 24.3852C11.3078 25.1811 10.6632 25.8258 9.86726 25.8258H7.70643C6.91052 25.8258 6.26587 26.4704 6.26587 27.2663C6.26587 28.0623 6.90692 28.7069 7.70211 28.7069H19.2345C20.0304 28.7069 20.6714 29.3516 20.6714 30.1475C20.6714 30.9434 20.0261 31.588 19.2309 31.588H12.0281C11.2322 31.588 10.5875 32.2327 10.5875 33.0286C10.5875 33.8245 11.2308 34.4691 12.0259 34.4699H13.4687C14.2646 34.4691 14.9085 35.1145 14.9085 35.9176V35.9536C14.9085 36.7265 14.2819 37.3524 13.5097 37.3524L6.99335 37.351C8.10906 38.5214 9.36739 39.5485 10.7266 40.4352L12.7477 41.6157C14.5368 42.5147 16.4729 43.1629 18.5106 43.5173C18.7872 43.5648 19.0652 43.608 19.3454 43.6448C19.3824 43.65 19.42 43.6546 19.4571 43.6591L19.4693 43.6606C19.7178 43.6923 19.967 43.7211 20.2177 43.7434C20.301 43.7512 20.3844 43.757 20.4677 43.7629C20.5011 43.7653 20.5344 43.7676 20.5677 43.7701C20.6115 43.7733 20.6553 43.7765 20.699 43.7798C20.8445 43.7907 20.99 43.8016 21.1367 43.8083C21.4602 43.8234 21.785 43.8328 22.112 43.8328C22.439 43.8328 22.7639 43.8234 23.0873 43.8076C23.234 43.8009 23.3795 43.79 23.525 43.7791C23.5687 43.7758 23.6125 43.7725 23.6563 43.7694C23.6898 43.7669 23.7233 43.7645 23.7569 43.7622C23.8403 43.7563 23.9237 43.7504 24.0063 43.7427C24.257 43.7197 24.5055 43.6916 24.754 43.6599C24.7742 43.6571 24.7943 43.6547 24.8143 43.6522C24.8355 43.6496 24.8567 43.647 24.8779 43.6441C25.1581 43.6073 25.4361 43.5648 25.7127 43.5166C27.7503 43.1622 29.6865 42.5139 31.4756 41.615L32.6115 40.9516H24.2728C23.4769 40.9516 22.8323 40.307 22.8323 39.5111C22.8323 38.7152 23.4769 38.0705 24.2728 38.0705H27.8742C28.6701 38.0705 29.3148 37.4259 29.3148 36.63C29.3148 35.8341 28.6701 35.1894 27.8742 35.1894H26.4337C25.6378 35.1894 24.9931 34.5448 24.9931 33.7489C24.9931 32.9529 25.6378 32.3083 26.4337 32.3083H33.6365C34.4324 32.3083 35.077 31.6637 35.077 30.8677C35.077 30.0718 34.4324 29.4272 33.6365 29.4272H32.1959C31.4 29.4272 30.7554 28.7825 30.7554 27.9866ZM24.2728 25.8258H25.7134C26.5093 25.8258 27.1539 26.4705 27.1539 27.2664C27.1539 28.0623 26.5093 28.7069 25.7134 28.7069H24.2728C23.4769 28.7069 22.8322 28.0623 22.8322 27.2664C22.8322 26.4705 23.4769 25.8258 24.2728 25.8258Z" fill="#118DF0"/>
<path d="M24.2728 40.9517C23.4769 40.9517 22.8323 40.307 22.8323 39.5111C22.8323 38.7152 23.4769 38.0705 24.2728 38.0705H27.8742C28.6701 38.0705 29.3148 37.4259 29.3148 36.63C29.3148 35.8341 28.6701 35.1894 27.8742 35.1894H26.4337C25.6378 35.1894 24.9931 34.5448 24.9931 33.7489C24.9931 32.953 25.6378 32.3083 26.4337 32.3083H33.6365C34.4324 32.3083 35.077 31.6637 35.077 30.8678C35.077 30.0718 34.4324 29.4272 33.6365 29.4272H32.1959C31.4 29.4272 30.7553 28.7825 30.7553 27.9866C30.7553 27.1907 31.4 26.5461 32.1959 26.5461H42.6846C41.6892 32.2701 38.3658 37.1904 33.7236 40.302L32.6115 40.9517H24.2728Z" fill="#55D590"/>
<path d="M11.3078 24.3849C11.3078 25.1808 10.6631 25.8254 9.86723 25.8254H7.70639C6.91048 25.8254 6.26583 26.4701 6.26583 27.266C6.26583 28.0619 6.90688 28.7065 7.70207 28.7065C11.5448 28.7065 16.4952 28.7065 19.2345 28.7065C20.0304 28.7065 20.6714 29.3519 20.6714 30.1471C20.6714 30.9423 20.0268 31.5876 19.2309 31.5876H12.0281C11.2322 31.5876 10.5875 32.233 10.5875 33.0282C10.5875 33.8241 11.2307 34.4688 12.0266 34.4688C12.4905 34.4688 13.0055 34.4688 13.4693 34.4688C14.2652 34.4688 14.9092 35.1134 14.9092 35.9165V35.9525C14.9092 36.7254 14.2825 37.3513 13.5104 37.3513L6.99403 37.3499C3.42145 33.6015 1.22388 28.5315 1.22388 22.9443H9.86723C10.6631 22.9443 11.3078 23.5889 11.3078 24.3849Z" fill="#55D590"/>
<path d="M25.7134 28.707H24.2728C23.4769 28.707 22.8323 28.0624 22.8323 27.2665C22.8323 26.4706 23.4769 25.8259 24.2728 25.8259H25.7134C26.5093 25.8259 27.1539 26.4706 27.1539 27.2665C27.1539 28.0624 26.5093 28.707 25.7134 28.707Z" fill="#55D590"/>
<path fill-rule="evenodd" clip-rule="evenodd" d="M13.4082 18.0131C13.4082 18.809 12.7636 19.4537 11.9677 19.4537H1.47896C1.27584 20.6241 1.16348 21.8263 1.16348 23.0551H34.2963C33.5004 23.0551 32.8558 22.4104 32.8558 21.6145C32.8558 20.8186 33.5004 20.174 34.2963 20.174H36.4571C37.2531 20.174 37.8977 19.5293 37.8977 18.7334C37.8977 17.9375 37.2567 17.2929 36.4615 17.2929H24.9291C24.1332 17.2929 23.4921 16.6482 23.4921 15.8523C23.4921 15.0564 24.1375 14.4117 24.9327 14.4117H32.1355C32.9314 14.4117 33.576 13.7671 33.576 12.9712C33.576 12.1753 32.9328 11.5306 32.1376 11.5299H30.6949C29.899 11.5306 29.2551 10.8852 29.2551 10.0821V10.0461C29.2551 9.27326 29.8817 8.64734 30.6539 8.64734L37.1702 8.64878C36.0545 7.47833 34.7962 6.45121 33.437 5.56455L31.4159 4.38401C29.6267 3.4851 27.6906 2.83685 25.653 2.48247C25.3764 2.43494 25.0983 2.39172 24.8182 2.35498C24.7811 2.34979 24.7436 2.34518 24.7064 2.34063L24.6943 2.33914C24.4458 2.30745 24.1966 2.27864 23.9459 2.25631C23.8626 2.24859 23.7792 2.24271 23.6959 2.23683C23.6625 2.23448 23.6292 2.23213 23.5958 2.22966C23.552 2.22649 23.5083 2.22321 23.4645 2.21993C23.319 2.20903 23.1736 2.19813 23.0268 2.19148C22.7034 2.17636 22.3786 2.16699 22.0516 2.16699C21.7246 2.16699 21.3997 2.17636 21.0763 2.1922C20.9296 2.19885 20.7841 2.20975 20.6386 2.22065C20.5948 2.22393 20.5511 2.22721 20.5073 2.23038C20.4738 2.23286 20.4402 2.23522 20.4067 2.23758C20.3233 2.24345 20.2399 2.24932 20.1572 2.25703C19.9066 2.28008 19.6581 2.30817 19.4096 2.33986C19.3894 2.34265 19.3693 2.3451 19.3493 2.34754C19.328 2.35014 19.3069 2.35273 19.2857 2.35571C19.0055 2.39244 18.7275 2.43494 18.4509 2.48319C16.4132 2.83757 14.4771 3.48582 12.6879 4.38473L11.5521 5.04811H19.8907C20.6866 5.04811 21.3313 5.69276 21.3313 6.48867C21.3313 7.28457 20.6866 7.92922 19.8907 7.92922H16.2893C15.4934 7.92922 14.8488 8.57387 14.8488 9.36978C14.8488 10.1657 15.4934 10.8103 16.2893 10.8103H17.7299C18.5258 10.8103 19.1705 11.455 19.1705 12.2509C19.1705 13.0468 18.5258 13.6915 17.7299 13.6915H10.5271C9.7312 13.6915 9.08655 14.3361 9.08655 15.132C9.08655 15.9279 9.7312 16.5726 10.5271 16.5726H11.9677C12.7636 16.5726 13.4082 17.2172 13.4082 18.0131ZM19.8908 20.1742H18.4502C17.6543 20.1742 17.0097 19.5295 17.0097 18.7336C17.0097 17.9377 17.6543 17.2931 18.4502 17.2931H19.8908C20.6867 17.2931 21.3313 17.9377 21.3313 18.7336C21.3313 19.5295 20.6867 20.1742 19.8908 20.1742Z" fill="#118DF0"/>
<path d="M19.8907 5.0481C20.6866 5.0481 21.3313 5.69275 21.3313 6.48865C21.3313 7.28456 20.6866 7.92921 19.8907 7.92921H16.2893C15.4934 7.92921 14.8488 8.57386 14.8488 9.36977C14.8488 10.1657 15.4934 10.8103 16.2893 10.8103H17.7299C18.5258 10.8103 19.1705 11.455 19.1705 12.2509C19.1705 13.0468 18.5258 13.6914 17.7299 13.6914H10.5271C9.73121 13.6914 9.08655 14.3361 9.08655 15.132C9.08655 15.9279 9.73121 16.5726 10.5271 16.5726H11.9677C12.7636 16.5726 13.4082 17.2172 13.4082 18.0131C13.4082 18.809 12.7636 19.4537 11.9677 19.4537H1.47897C2.47439 13.7296 5.79776 8.80939 10.44 5.69779L11.5521 5.0481H19.8907Z" fill="#55D590"/>
<path d="M32.8558 21.6147C32.8558 20.8187 33.5004 20.1741 34.2963 20.1741H36.4572C37.2531 20.1741 37.8977 19.5294 37.8977 18.7335C37.8977 17.9376 37.2567 17.293 36.4615 17.293C32.6188 17.293 27.6683 17.293 24.9291 17.293C24.1332 17.293 23.4922 16.6476 23.4922 15.8524C23.4922 15.0572 24.1368 14.4119 24.9327 14.4119H32.1355C32.9314 14.4119 33.5761 13.7665 33.5761 12.9713C33.5761 12.1754 32.9329 11.5308 32.137 11.5308C31.6731 11.5308 31.1581 11.5308 30.6942 11.5308C29.8983 11.5308 29.2544 10.8861 29.2544 10.083V10.047C29.2544 9.27412 29.881 8.64819 30.6532 8.64819L37.1695 8.64963C40.7421 12.398 42.9397 17.468 42.9397 23.0552H34.2963C33.5004 23.0552 32.8558 22.4106 32.8558 21.6147Z" fill="#55D590"/>
<path d="M18.4502 17.293H19.8907C20.6866 17.293 21.3313 17.9376 21.3313 18.7335C21.3313 19.5294 20.6866 20.1741 19.8907 20.1741H18.4502C17.6543 20.1741 17.0096 19.5294 17.0096 18.7335C17.0096 17.9376 17.6543 17.293 18.4502 17.293Z" fill="#00AEFF"/>
<path d="M60.9391 17.5161H51V20.1656H54.4404V29.5591H57.4986V20.1656H60.9391V17.5161Z" fill="black"/>
<path d="M67.9624 20.7161C66.7009 20.7161 65.7452 21.129 65.2291 21.7656V17.5161H62.3621V29.5591H65.2291V24.8624C65.2291 23.6409 65.9554 23.0903 67.0067 23.0903C67.9241 23.0903 68.6696 23.5892 68.6696 24.6559V29.5591H71.5366V24.2774C71.5366 21.9548 69.8928 20.7161 67.9624 20.7161Z" fill="black"/>
<path d="M76.2465 26.2903H83.0319C83.1083 25.9634 83.1465 25.6194 83.1465 25.2581C83.1465 22.6602 81.0823 20.7161 78.2917 20.7161C75.2718 20.7161 73.2075 22.6946 73.2075 25.2581C73.2075 27.8215 75.2335 29.8 78.5019 29.8C80.3177 29.8 81.7321 29.1979 82.6687 28.028L80.3751 26.8409C79.9928 27.2194 79.3238 27.4946 78.5402 27.4946C77.4889 27.4946 76.6097 27.1849 76.2465 26.2903ZM76.1892 24.3634C76.4568 23.486 77.1831 23.0043 78.2726 23.0043C79.1327 23.0043 79.9928 23.3656 80.2986 24.3634H76.1892Z" fill="black"/>
<path d="M95.0715 17.5161H90.0064V29.5591H93.0646V25.7742H95.0715C97.7092 25.7742 99.7544 23.9333 99.7544 21.6452C99.7544 19.357 97.7092 17.5161 95.0715 17.5161ZM95.0715 23.1935H93.0646V20.0968H95.0715C96.0081 20.0968 96.6962 20.7677 96.6962 21.6452C96.6962 22.5226 96.0081 23.1935 95.0715 23.1935Z" fill="black"/>
<path d="M101.365 29.5591H104.232V17H101.365V29.5591Z" fill="black"/>
<path d="M113.448 20.957V21.7656C112.817 21.1118 111.881 20.7161 110.6 20.7161C108.096 20.7161 106.032 22.6946 106.032 25.2581C106.032 27.8215 108.096 29.8 110.6 29.8C111.881 29.8 112.817 29.4043 113.448 28.7505V29.5591H116.315V20.957H113.448ZM111.173 27.357C109.855 27.357 108.899 26.5484 108.899 25.2581C108.899 23.9677 109.855 23.1591 111.173 23.1591C112.492 23.1591 113.448 23.9677 113.448 25.2581C113.448 26.5484 112.492 27.357 111.173 27.357Z" fill="black"/>
<path d="M124.199 20.7161C122.937 20.7161 121.981 21.129 121.465 21.7656V20.957H118.598V29.5591H121.465V24.8624C121.465 23.6409 122.192 23.0903 123.243 23.0903C124.16 23.0903 124.906 23.5892 124.906 24.6559V29.5591H127.773V24.2774C127.773 21.9548 126.129 20.7161 124.199 20.7161Z" fill="black"/>
<path d="M132.483 26.2903H139.268C139.345 25.9634 139.383 25.6194 139.383 25.2581C139.383 22.6602 137.318 20.7161 134.528 20.7161C131.508 20.7161 129.444 22.6946 129.444 25.2581C129.444 27.8215 131.47 29.8 134.738 29.8C136.554 29.8 137.968 29.1979 138.905 28.028L136.611 26.8409C136.229 27.2194 135.56 27.4946 134.776 27.4946C133.725 27.4946 132.846 27.1849 132.483 26.2903ZM132.425 24.3634C132.693 23.486 133.419 23.0043 134.509 23.0043C135.369 23.0043 136.229 23.3656 136.535 24.3634H132.425Z" fill="black"/>
<path d="M146.509 23.4344V20.957H144.54V18.5484L141.673 19.3226V20.957H140.144V23.4344H141.673V26.4796C141.673 28.8882 142.763 29.9032 146.509 29.5591V27.2194C145.248 27.2882 144.54 27.2194 144.54 26.4796V23.4344H146.509Z" fill="black"/>
<path d="M162.058 29.5591H165.403L160.854 17.5161H156.955L152.406 29.5591H155.751L156.42 27.6667H161.389L162.058 29.5591ZM157.337 25.086L158.905 20.6645L160.472 25.086H157.337Z" fill="black"/>
<path d="M172.343 20.7161C171.063 20.7161 170.126 21.1118 169.495 21.7656V20.957H166.628V33H169.495V28.7505C170.126 29.4043 171.063 29.8 172.343 29.8C174.847 29.8 176.911 27.8215 176.911 25.2581C176.911 22.6946 174.847 20.7161 172.343 20.7161ZM171.77 27.357C170.451 27.357 169.495 26.5484 169.495 25.2581C169.495 23.9677 170.451 23.1591 171.77 23.1591C173.089 23.1591 174.044 23.9677 174.044 25.2581C174.044 26.5484 173.089 27.357 171.77 27.357Z" fill="black"/>
<path d="M184.432 20.7161C183.151 20.7161 182.215 21.1118 181.584 21.7656V20.957H178.717V33H181.584V28.7505C182.215 29.4043 183.151 29.8 184.432 29.8C186.936 29.8 189 27.8215 189 25.2581C189 22.6946 186.936 20.7161 184.432 20.7161ZM183.858 27.357C182.54 27.357 181.584 26.5484 181.584 25.2581C181.584 23.9677 182.54 23.1591 183.858 23.1591C185.177 23.1591 186.133 23.9677 186.133 25.2581C186.133 26.5484 185.177 27.357 183.858 27.357Z" fill="black"/>
</svg>
