<?xml version="1.0" encoding="UTF-8"?>
<svg id="Layer_2" xmlns="http://www.w3.org/2000/svg" viewBox="0 0 216.74 37.84">
    <defs>
        <style>
            .cls-1{fill:none;isolation:isolate;}.cls-2,.cls-3{fill:#0af;}.cls-4{fill:#444444;}.cls-3{fill-rule:evenodd;}
        </style>
    </defs>
    <g id="Graphics">
        <path class="cls-2"
              d="m0,2.45l16.37-.03,7.22,9.32c.78-1.01,1.84-2.19,2.67-3.16,1.68-1.95,3.44-3.8,5.53-5.31,1.51-1.09,3.14-1.98,4.93-2.54,1.23-.39,2.48-.58,3.76-.68.74-.06,2.9-.08,3.55,0,1.95.21,3.8.67,5.55,1.52,1.64.8,3.17,1.78,4.38,3.14,1.14,1.28,2.72,3.32,2.99,3.74-.02.05-4.44,2.99-6.35,4.24-1.29.84-3.88,2.56-3.88,2.57.02.02-.42-.71-.65-1.08-.86-1.4-2.07-1.77-3.22-1.76-1.57,0-2.8.99-3.46,1.85-.23.31-14.02,17.13-15.76,19.3L0,2.45Zm41.98,1.23c-.54.02-2.51-.14-4.76.86-2.4.91-4.34,2.5-6.12,4.29-1.15,1.15-9.69,11.9-10.65,13.17-.02.02-.48.62-.48.62.03.04.55.74.58.79.97,1.29,1.94,2.58,2.9,3.87.14.19.21.28.21.27,1-1.25,2.22-2.75,3.22-4q.44-.55.44-.56c-.52-.68-1.48-1.95-1.99-2.64-.18-.24-.34-.41-.34-.45.24-.31,2.09-2.59,2.43-3,.03.04.09.1.34.43.56.73,1.12,1.47,1.67,2.21.06.07.33.43.34.43s.24-.29.34-.41c1.26-1.57,2.52-3.13,3.8-4.68.82-1,1.71-1.94,2.52-2.95.7-.86,1.49-1.62,2.46-2.17,1.17-.66,2.42-.86,3.77-.86,1.62,0,3.01.54,4.27,1.48.18.13.46.34.46.34.02.02.33-.2.51-.33,1.02-.69,2.05-1.35,3.09-2.01.42-.27.76-.49.76-.51s-.36-.42-.64-.7c-2.49-2.29-5.42-3.48-9.14-3.49h0ZM7.6,6.15c-.08,0,2.56,3.54,3.75,5.11,1.02,1.35,2.05,2.69,3.07,4.04.99,1.31,2.95,3.99,3.15,4.22l3.63-4.66c-1.37-1.8-6.58-8.7-6.6-8.72l-6.99.02h-.01Z"/>
        <path class="cls-3"
              d="m56.42,24.45c-2.06,3.15-4.82,5.39-8.39,6.66-1.8.64-3.65.93-5.53.91-1.43-.02-3.63-.35-5.02-.76-2.11-.63-3.19-1.49-4.91-2.9-.35-.28-.59-.49-.89-.75-.12-.09-.34-.3-.35-.31,0,0,2.32-2.87,2.32-2.88,0,0,.65.62.99.88.85.65.92.76,1.76,1.29.97.61,2.01,1.03,3.13,1.32,1.35.35,2.71.45,4.07.35,2.12-.16,4.1-.82,5.9-1.98.8-.52,1.52-1.13,2.19-1.8.22-.21.27-.3.27-.3-1.27-.84-2.87-1.89-4.13-2.74-.23-.15-.26-.18-.27-.19-1.02.96-2.51,1.63-3.8,1.78-2.14.25-4.13-.21-5.8-1.67-.15-.13-.43-.39-.45-.41-.05-.04-.57-.5-.58-.52,0-.02,2.01-2.44,2.05-2.49.03-.04.3-.37.31-.38,0,0,.52.42.62.52.74.66,1.49,1.14,2.41,1.3.71.12,1.39-.11,2.04-.41.61-.28,1.14-.79,1.55-1.29.56-.76.65-.95.88-1.31,0,0,.94.6.97.62,2.45,1.64,4.23,2.74,6.68,4.37.91.6,1.82,1.19,2.73,1.79,0,.13-.52.98-.74,1.3h-.01Z"/>
        <g class="cls-1">
            <g class="cls-1">
                <path class="cls-4" d="m85.84,6.52l-9.82,22.7h-5.19l-9.79-22.7h5.67l6.91,16.21,7-16.21h5.22Z"/>
            </g>
            <g class="cls-1">
                <path class="cls-4"
                      d="m87.08,6.52c0-1.59,1.26-2.82,3.15-2.82s3.15,1.17,3.15,2.72c0,1.69-1.26,2.92-3.15,2.92s-3.15-1.23-3.15-2.82Zm.62,5.25h5.06v17.44h-5.06V11.77Z"/>
                <path class="cls-4"
                      d="m95.77,27.59l1.69-3.63c1.56,1,3.92,1.69,6.06,1.69,2.33,0,3.21-.62,3.21-1.59,0-2.85-10.54.06-10.54-6.91,0-3.31,2.98-5.64,8.07-5.64,2.4,0,5.06.55,6.71,1.52l-1.69,3.6c-1.72-.97-3.44-1.3-5.03-1.3-2.27,0-3.24.71-3.24,1.62,0,2.98,10.54.1,10.54,6.97,0,3.24-3.02,5.54-8.24,5.54-2.95,0-5.93-.81-7.56-1.88Z"/>
            </g>
            <g class="cls-1">
                <path class="cls-4"
                      d="m113.6,17.86c0-6.84,5.25-11.74,12.32-11.74,3.92,0,7.2,1.43,9.34,4.02l-3.37,3.11c-1.52-1.75-3.44-2.66-5.71-2.66-4.25,0-7.26,2.98-7.26,7.26s3.02,7.26,7.26,7.26c2.27,0,4.18-.91,5.71-2.69l3.37,3.11c-2.14,2.63-5.42,4.05-9.37,4.05-7.04,0-12.29-4.9-12.29-11.74Z"/>
            </g>
            <g class="cls-1">
                <path class="cls-4"
                      d="m153.76,19.26v9.95h-4.73v-2.17c-.94,1.59-2.76,2.43-5.32,2.43-4.08,0-6.52-2.27-6.52-5.29s2.17-5.22,7.49-5.22h4.02c0-2.17-1.3-3.44-4.02-3.44-1.85,0-3.76.62-5.03,1.62l-1.82-3.53c1.91-1.36,4.73-2.11,7.52-2.11,5.32,0,8.4,2.46,8.4,7.75Zm-5.06,4.44v-1.78h-3.47c-2.37,0-3.11.88-3.11,2.04,0,1.26,1.07,2.11,2.85,2.11,1.69,0,3.15-.78,3.73-2.37Z"/>
            </g>
            <g class="cls-1">
                <path class="cls-4"
                      d="m177.34,20.49c0,5.48-3.79,8.98-8.69,8.98-2.17,0-3.96-.68-5.25-2.11v8.14h-5.06V11.77h4.83v2.01c1.26-1.52,3.14-2.27,5.48-2.27,4.9,0,8.69,3.5,8.69,8.98Zm-5.12,0c0-3.02-1.91-4.83-4.44-4.83s-4.44,1.82-4.44,4.83,1.91,4.83,4.44,4.83,4.44-1.82,4.44-4.83Z"/>
            </g>
            <g class="cls-1">
                <path class="cls-4"
                      d="m179.25,26.29c0-1.88,1.39-3.11,3.14-3.11s3.15,1.23,3.15,3.11-1.39,3.18-3.15,3.18-3.14-1.33-3.14-3.18Z"/>
            </g>
            <g class="cls-1">
                <path class="cls-4"
                      d="m204.74,19.26v9.95h-4.73v-2.17c-.94,1.59-2.76,2.43-5.32,2.43-4.09,0-6.52-2.27-6.52-5.29s2.17-5.22,7.49-5.22h4.02c0-2.17-1.3-3.44-4.02-3.44-1.85,0-3.76.62-5.03,1.62l-1.82-3.53c1.91-1.36,4.73-2.11,7.52-2.11,5.32,0,8.4,2.46,8.4,7.75Zm-5.06,4.44v-1.78h-3.47c-2.37,0-3.11.88-3.11,2.04,0,1.26,1.07,2.11,2.85,2.11,1.69,0,3.14-.78,3.73-2.37Z"/>
                <path class="cls-4"
                      d="m208.7,6.52c0-1.59,1.26-2.82,3.15-2.82s3.14,1.17,3.14,2.72c0,1.69-1.26,2.92-3.14,2.92s-3.15-1.23-3.15-2.82Zm.62,5.25h5.06v17.44h-5.06V11.77Z"/>
            </g>
        </g>
    </g>
</svg>
