<svg width="428" height="306" viewBox="0 0 428 306" fill="none" xmlns="http://www.w3.org/2000/svg">
<line x1="351" y1="48" x2="351" y2="132" stroke="#858585" stroke-opacity="0.48" stroke-width="2"/>
<line x1="78" y1="114" x2="78" y2="198" stroke="#858585" stroke-opacity="0.48" stroke-width="2"/>
<line x1="37" y1="23" x2="387" y2="23" stroke="#858585" stroke-opacity="0.48" stroke-width="2"/>
<line x1="151" y1="113" x2="203" y2="113" stroke="#858585" stroke-opacity="0.48" stroke-width="2"/>
<line x1="78.2425" y1="137.03" x2="230.243" y2="175.03" stroke="#858585" stroke-opacity="0.48" stroke-width="2"/>
<line x1="81.2425" y1="221.03" x2="233.243" y2="259.03" stroke="#858585" stroke-opacity="0.48" stroke-width="2"/>
<line x1="229" y1="269" x2="229" y2="222" stroke="#858585" stroke-opacity="0.48" stroke-width="2"/>
<rect x="80" width="153" height="48" rx="16" fill="#0070F4"/>
<path d="M125.999 29C125.893 29 125.802 28.9627 125.727 28.888C125.653 28.8133 125.615 28.7227 125.615 28.616V18.2C125.615 18.0827 125.653 17.9867 125.727 17.912C125.802 17.8373 125.893 17.8 125.999 17.8H132.943C133.061 17.8 133.157 17.8373 133.231 17.912C133.306 17.9867 133.343 18.0827 133.343 18.2V19.32C133.343 19.4373 133.306 19.5333 133.231 19.608C133.157 19.672 133.061 19.704 132.943 19.704H127.807V22.744H132.623C132.741 22.744 132.837 22.7813 132.911 22.856C132.986 22.9307 133.023 23.0267 133.023 23.144V24.264C133.023 24.3707 132.986 24.4613 132.911 24.536C132.837 24.6107 132.741 24.648 132.623 24.648H127.807V28.616C127.807 28.7227 127.77 28.8133 127.695 28.888C127.621 28.9627 127.525 29 127.407 29H125.999ZM135.557 29C135.451 29 135.36 28.9627 135.285 28.888C135.211 28.8133 135.173 28.7227 135.173 28.616V21.064C135.173 20.9573 135.211 20.8667 135.285 20.792C135.36 20.7173 135.451 20.68 135.557 20.68H136.885C137.003 20.68 137.093 20.7173 137.157 20.792C137.232 20.8667 137.269 20.9573 137.269 21.064V28.616C137.269 28.7227 137.232 28.8133 137.157 28.888C137.093 28.9627 137.003 29 136.885 29H135.557ZM135.493 19.304C135.376 19.304 135.28 19.272 135.205 19.208C135.141 19.1333 135.109 19.0373 135.109 18.92V17.768C135.109 17.6613 135.141 17.5707 135.205 17.496C135.28 17.4213 135.376 17.384 135.493 17.384H136.949C137.067 17.384 137.163 17.4213 137.237 17.496C137.312 17.5707 137.349 17.6613 137.349 17.768V18.92C137.349 19.0373 137.312 19.1333 137.237 19.208C137.163 19.272 137.067 19.304 136.949 19.304H135.493ZM140.104 29C139.997 29 139.907 28.9627 139.832 28.888C139.757 28.8133 139.72 28.7227 139.72 28.616V21.08C139.72 20.9627 139.757 20.8667 139.832 20.792C139.907 20.7173 139.997 20.68 140.104 20.68H141.4C141.507 20.68 141.597 20.7173 141.672 20.792C141.757 20.8667 141.8 20.9627 141.8 21.08V21.736C142.045 21.3947 142.36 21.1333 142.744 20.952C143.139 20.7707 143.592 20.68 144.104 20.68H144.76C144.877 20.68 144.968 20.7173 145.032 20.792C145.107 20.8667 145.144 20.9573 145.144 21.064V22.216C145.144 22.3227 145.107 22.4133 145.032 22.488C144.968 22.5627 144.877 22.6 144.76 22.6H143.512C143 22.6 142.6 22.744 142.312 23.032C142.035 23.32 141.896 23.7147 141.896 24.216V28.616C141.896 28.7227 141.859 28.8133 141.784 28.888C141.709 28.9627 141.613 29 141.496 29H140.104ZM149.867 29.16C148.683 29.16 147.744 28.8187 147.051 28.136C146.357 27.4533 145.984 26.4827 145.931 25.224C145.92 25.1173 145.915 24.984 145.915 24.824C145.915 24.6533 145.92 24.52 145.931 24.424C145.973 23.624 146.155 22.9307 146.475 22.344C146.805 21.7573 147.259 21.3093 147.835 21C148.411 20.68 149.088 20.52 149.867 20.52C150.731 20.52 151.456 20.7013 152.043 21.064C152.629 21.416 153.072 21.912 153.371 22.552C153.669 23.1813 153.819 23.912 153.819 24.744V25.08C153.819 25.1867 153.781 25.2773 153.707 25.352C153.632 25.4267 153.536 25.464 153.419 25.464H148.107C148.107 25.464 148.107 25.48 148.107 25.512C148.107 25.544 148.107 25.5707 148.107 25.592C148.117 25.9653 148.187 26.312 148.315 26.632C148.453 26.9413 148.651 27.192 148.907 27.384C149.173 27.576 149.488 27.672 149.851 27.672C150.149 27.672 150.4 27.6293 150.603 27.544C150.805 27.448 150.971 27.3413 151.099 27.224C151.227 27.1067 151.317 27.0107 151.371 26.936C151.467 26.808 151.541 26.7333 151.595 26.712C151.659 26.68 151.749 26.664 151.867 26.664H153.243C153.349 26.664 153.435 26.696 153.499 26.76C153.573 26.824 153.605 26.904 153.595 27C153.584 27.1707 153.493 27.3787 153.323 27.624C153.163 27.8693 152.928 28.1093 152.619 28.344C152.309 28.5787 151.92 28.776 151.451 28.936C150.992 29.0853 150.464 29.16 149.867 29.16ZM148.107 24.12H151.643V24.072C151.643 23.656 151.573 23.2933 151.435 22.984C151.296 22.6747 151.093 22.4293 150.827 22.248C150.56 22.0667 150.24 21.976 149.867 21.976C149.493 21.976 149.173 22.0667 148.907 22.248C148.64 22.4293 148.437 22.6747 148.299 22.984C148.171 23.2933 148.107 23.656 148.107 24.072V24.12ZM160.029 29.16C159.037 29.16 158.194 28.9893 157.501 28.648C156.818 28.296 156.296 27.8 155.933 27.16C155.57 26.5093 155.368 25.7307 155.325 24.824C155.314 24.3867 155.309 23.9173 155.309 23.416C155.309 22.9147 155.314 22.4347 155.325 21.976C155.368 21.08 155.57 20.3067 155.933 19.656C156.306 19.0053 156.834 18.5093 157.517 18.168C158.21 17.816 159.048 17.64 160.029 17.64C160.754 17.64 161.405 17.736 161.981 17.928C162.557 18.12 163.048 18.3867 163.453 18.728C163.858 19.0587 164.173 19.448 164.397 19.896C164.621 20.344 164.738 20.8293 164.749 21.352C164.76 21.448 164.728 21.528 164.653 21.592C164.589 21.656 164.509 21.688 164.413 21.688H162.893C162.776 21.688 162.68 21.6613 162.605 21.608C162.53 21.544 162.477 21.4427 162.445 21.304C162.274 20.6 161.981 20.12 161.565 19.864C161.149 19.608 160.632 19.48 160.013 19.48C159.298 19.48 158.728 19.6827 158.301 20.088C157.874 20.4827 157.645 21.1387 157.613 22.056C157.581 22.9307 157.581 23.8267 157.613 24.744C157.645 25.6613 157.874 26.3227 158.301 26.728C158.728 27.1227 159.298 27.32 160.013 27.32C160.632 27.32 161.149 27.192 161.565 26.936C161.981 26.6693 162.274 26.1893 162.445 25.496C162.477 25.3467 162.53 25.2453 162.605 25.192C162.68 25.1387 162.776 25.112 162.893 25.112H164.413C164.509 25.112 164.589 25.144 164.653 25.208C164.728 25.272 164.76 25.352 164.749 25.448C164.738 25.9707 164.621 26.456 164.397 26.904C164.173 27.352 163.858 27.7467 163.453 28.088C163.048 28.4187 162.557 28.68 161.981 28.872C161.405 29.064 160.754 29.16 160.029 29.16ZM167.046 29C166.929 29 166.833 28.9627 166.758 28.888C166.684 28.8133 166.646 28.7227 166.646 28.616V18.2C166.646 18.0827 166.684 17.9867 166.758 17.912C166.833 17.8373 166.929 17.8 167.046 17.8H168.31C168.46 17.8 168.572 17.8427 168.646 17.928C168.721 18.0027 168.769 18.0613 168.79 18.104L171.878 23.864L174.998 18.104C175.02 18.0613 175.068 18.0027 175.142 17.928C175.217 17.8427 175.329 17.8 175.478 17.8H176.726C176.844 17.8 176.94 17.8373 177.014 17.912C177.089 17.9867 177.126 18.0827 177.126 18.2V28.616C177.126 28.7227 177.089 28.8133 177.014 28.888C176.94 28.9627 176.844 29 176.726 29H175.382C175.265 29 175.169 28.9627 175.094 28.888C175.03 28.8133 174.998 28.7227 174.998 28.616V21.688L172.758 25.96C172.705 26.056 172.636 26.1413 172.55 26.216C172.465 26.28 172.353 26.312 172.214 26.312H171.558C171.409 26.312 171.292 26.28 171.206 26.216C171.132 26.1413 171.068 26.056 171.014 25.96L168.774 21.688V28.616C168.774 28.7227 168.737 28.8133 168.662 28.888C168.588 28.9627 168.497 29 168.39 29H167.046ZM183.503 29.16C182.511 29.16 181.679 29.016 181.007 28.728C180.346 28.4293 179.839 28.0453 179.487 27.576C179.146 27.096 178.965 26.5947 178.943 26.072C178.943 25.976 178.975 25.896 179.039 25.832C179.103 25.768 179.183 25.736 179.279 25.736H180.703C180.842 25.736 180.943 25.768 181.007 25.832C181.082 25.8853 181.146 25.9547 181.199 26.04C181.263 26.2427 181.386 26.4453 181.567 26.648C181.749 26.84 181.994 27 182.303 27.128C182.623 27.256 183.023 27.32 183.503 27.32C184.271 27.32 184.842 27.192 185.215 26.936C185.599 26.68 185.791 26.3333 185.791 25.896C185.791 25.5867 185.69 25.3413 185.487 25.16C185.285 24.968 184.97 24.7973 184.543 24.648C184.127 24.488 183.573 24.3227 182.879 24.152C182.079 23.96 181.407 23.7307 180.863 23.464C180.33 23.1867 179.925 22.84 179.647 22.424C179.381 22.008 179.247 21.48 179.247 20.84C179.247 20.2213 179.413 19.672 179.743 19.192C180.085 18.712 180.565 18.3333 181.183 18.056C181.813 17.7787 182.559 17.64 183.423 17.64C184.117 17.64 184.73 17.736 185.263 17.928C185.797 18.1093 186.239 18.3547 186.591 18.664C186.943 18.9627 187.21 19.288 187.391 19.64C187.583 19.9813 187.685 20.3173 187.695 20.648C187.695 20.7333 187.663 20.8133 187.599 20.888C187.546 20.952 187.466 20.984 187.359 20.984H185.871C185.786 20.984 185.701 20.9627 185.615 20.92C185.53 20.8773 185.461 20.7973 185.407 20.68C185.343 20.3493 185.135 20.0667 184.783 19.832C184.431 19.5973 183.978 19.48 183.423 19.48C182.847 19.48 182.383 19.5867 182.031 19.8C181.679 20.0133 181.503 20.344 181.503 20.792C181.503 21.0907 181.589 21.3413 181.759 21.544C181.941 21.736 182.223 21.9067 182.607 22.056C183.002 22.2053 183.519 22.3653 184.159 22.536C185.066 22.7387 185.807 22.9733 186.383 23.24C186.959 23.5067 187.381 23.848 187.647 24.264C187.914 24.6693 188.047 25.1867 188.047 25.816C188.047 26.52 187.855 27.1227 187.471 27.624C187.098 28.1147 186.57 28.4933 185.887 28.76C185.205 29.0267 184.41 29.16 183.503 29.16Z" fill="white"/>
<rect x="273" width="155" height="48" rx="16" fill="#FFA000"/>
<path d="M318.734 29C318.627 29 318.536 28.9627 318.462 28.888C318.387 28.8133 318.35 28.7227 318.35 28.616V18.2C318.35 18.0827 318.387 17.9867 318.462 17.912C318.536 17.8373 318.627 17.8 318.734 17.8H325.678C325.795 17.8 325.891 17.8373 325.966 17.912C326.04 17.9867 326.078 18.0827 326.078 18.2V19.32C326.078 19.4373 326.04 19.5333 325.966 19.608C325.891 19.672 325.795 19.704 325.678 19.704H320.542V22.744H325.358C325.475 22.744 325.571 22.7813 325.646 22.856C325.72 22.9307 325.758 23.0267 325.758 23.144V24.264C325.758 24.3707 325.72 24.4613 325.646 24.536C325.571 24.6107 325.475 24.648 325.358 24.648H320.542V28.616C320.542 28.7227 320.504 28.8133 320.43 28.888C320.355 28.9627 320.259 29 320.142 29H318.734ZM328.292 29C328.185 29 328.094 28.9627 328.02 28.888C327.945 28.8133 327.908 28.7227 327.908 28.616V21.064C327.908 20.9573 327.945 20.8667 328.02 20.792C328.094 20.7173 328.185 20.68 328.292 20.68H329.62C329.737 20.68 329.828 20.7173 329.892 20.792C329.966 20.8667 330.004 20.9573 330.004 21.064V28.616C330.004 28.7227 329.966 28.8133 329.892 28.888C329.828 28.9627 329.737 29 329.62 29H328.292ZM328.228 19.304C328.11 19.304 328.014 19.272 327.94 19.208C327.876 19.1333 327.844 19.0373 327.844 18.92V17.768C327.844 17.6613 327.876 17.5707 327.94 17.496C328.014 17.4213 328.11 17.384 328.228 17.384H329.684C329.801 17.384 329.897 17.4213 329.972 17.496C330.046 17.5707 330.084 17.6613 330.084 17.768V18.92C330.084 19.0373 330.046 19.1333 329.972 19.208C329.897 19.272 329.801 19.304 329.684 19.304H328.228ZM332.838 29C332.732 29 332.641 28.9627 332.566 28.888C332.492 28.8133 332.454 28.7227 332.454 28.616V21.08C332.454 20.9627 332.492 20.8667 332.566 20.792C332.641 20.7173 332.732 20.68 332.838 20.68H334.134C334.241 20.68 334.332 20.7173 334.406 20.792C334.492 20.8667 334.534 20.9627 334.534 21.08V21.736C334.78 21.3947 335.094 21.1333 335.478 20.952C335.873 20.7707 336.326 20.68 336.838 20.68H337.494C337.612 20.68 337.702 20.7173 337.766 20.792C337.841 20.8667 337.878 20.9573 337.878 21.064V22.216C337.878 22.3227 337.841 22.4133 337.766 22.488C337.702 22.5627 337.612 22.6 337.494 22.6H336.246C335.734 22.6 335.334 22.744 335.046 23.032C334.769 23.32 334.63 23.7147 334.63 24.216V28.616C334.63 28.7227 334.593 28.8133 334.518 28.888C334.444 28.9627 334.348 29 334.23 29H332.838ZM342.601 29.16C341.417 29.16 340.478 28.8187 339.785 28.136C339.092 27.4533 338.718 26.4827 338.665 25.224C338.654 25.1173 338.649 24.984 338.649 24.824C338.649 24.6533 338.654 24.52 338.665 24.424C338.708 23.624 338.889 22.9307 339.209 22.344C339.54 21.7573 339.993 21.3093 340.569 21C341.145 20.68 341.822 20.52 342.601 20.52C343.465 20.52 344.19 20.7013 344.777 21.064C345.364 21.416 345.806 21.912 346.105 22.552C346.404 23.1813 346.553 23.912 346.553 24.744V25.08C346.553 25.1867 346.516 25.2773 346.441 25.352C346.366 25.4267 346.27 25.464 346.153 25.464H340.841C340.841 25.464 340.841 25.48 340.841 25.512C340.841 25.544 340.841 25.5707 340.841 25.592C340.852 25.9653 340.921 26.312 341.049 26.632C341.188 26.9413 341.385 27.192 341.641 27.384C341.908 27.576 342.222 27.672 342.585 27.672C342.884 27.672 343.134 27.6293 343.337 27.544C343.54 27.448 343.705 27.3413 343.833 27.224C343.961 27.1067 344.052 27.0107 344.105 26.936C344.201 26.808 344.276 26.7333 344.329 26.712C344.393 26.68 344.484 26.664 344.601 26.664H345.977C346.084 26.664 346.169 26.696 346.233 26.76C346.308 26.824 346.34 26.904 346.329 27C346.318 27.1707 346.228 27.3787 346.057 27.624C345.897 27.8693 345.662 28.1093 345.353 28.344C345.044 28.5787 344.654 28.776 344.185 28.936C343.726 29.0853 343.198 29.16 342.601 29.16ZM340.841 24.12H344.377V24.072C344.377 23.656 344.308 23.2933 344.169 22.984C344.03 22.6747 343.828 22.4293 343.561 22.248C343.294 22.0667 342.974 21.976 342.601 21.976C342.228 21.976 341.908 22.0667 341.641 22.248C341.374 22.4293 341.172 22.6747 341.033 22.984C340.905 23.2933 340.841 23.656 340.841 24.072V24.12ZM352.859 29.16C352.241 29.16 351.723 29.0533 351.307 28.84C350.902 28.6267 350.566 28.3547 350.299 28.024V28.616C350.299 28.7227 350.262 28.8133 350.187 28.888C350.123 28.9627 350.033 29 349.915 29H348.651C348.545 29 348.454 28.9627 348.379 28.888C348.305 28.8133 348.267 28.7227 348.267 28.616V18.024C348.267 17.9173 348.305 17.8267 348.379 17.752C348.454 17.6773 348.545 17.64 348.651 17.64H350.011C350.129 17.64 350.219 17.6773 350.283 17.752C350.358 17.8267 350.395 17.9173 350.395 18.024V21.576C350.662 21.2667 350.993 21.016 351.387 20.824C351.793 20.6213 352.283 20.52 352.859 20.52C353.425 20.52 353.915 20.616 354.331 20.808C354.747 21 355.094 21.272 355.371 21.624C355.659 21.9653 355.878 22.3653 356.027 22.824C356.177 23.2827 356.257 23.7787 356.267 24.312C356.278 24.504 356.283 24.68 356.283 24.84C356.283 24.9893 356.278 25.16 356.267 25.352C356.246 25.9067 356.161 26.4187 356.011 26.888C355.862 27.3467 355.649 27.7467 355.371 28.088C355.094 28.4293 354.747 28.696 354.331 28.888C353.915 29.0693 353.425 29.16 352.859 29.16ZM352.267 27.448C352.726 27.448 353.083 27.352 353.339 27.16C353.595 26.9573 353.777 26.696 353.883 26.376C354.001 26.056 354.07 25.704 354.091 25.32C354.113 25 354.113 24.68 354.091 24.36C354.07 23.976 354.001 23.624 353.883 23.304C353.777 22.984 353.595 22.728 353.339 22.536C353.083 22.3333 352.726 22.232 352.267 22.232C351.841 22.232 351.494 22.328 351.227 22.52C350.961 22.712 350.758 22.9573 350.619 23.256C350.481 23.544 350.406 23.848 350.395 24.168C350.385 24.36 350.379 24.568 350.379 24.792C350.379 25.0053 350.385 25.208 350.395 25.4C350.417 25.7307 350.486 26.056 350.603 26.376C350.731 26.6853 350.929 26.9413 351.195 27.144C351.473 27.3467 351.83 27.448 352.267 27.448ZM360.48 29.16C359.925 29.16 359.424 29.0533 358.976 28.84C358.528 28.616 358.17 28.3227 357.904 27.96C357.648 27.5867 357.52 27.1707 357.52 26.712C357.52 25.9653 357.818 25.3733 358.416 24.936C359.024 24.488 359.824 24.1893 360.816 24.04L363.008 23.72V23.384C363.008 22.936 362.896 22.5893 362.672 22.344C362.448 22.0987 362.064 21.976 361.52 21.976C361.136 21.976 360.821 22.056 360.576 22.216C360.341 22.3653 360.165 22.568 360.048 22.824C359.962 22.9627 359.84 23.032 359.68 23.032H358.416C358.298 23.032 358.208 23 358.144 22.936C358.09 22.872 358.064 22.7867 358.064 22.68C358.074 22.5093 358.144 22.3013 358.272 22.056C358.4 21.8107 358.602 21.576 358.88 21.352C359.157 21.1173 359.514 20.92 359.952 20.76C360.389 20.6 360.917 20.52 361.536 20.52C362.208 20.52 362.773 20.6053 363.232 20.776C363.701 20.936 364.074 21.1547 364.352 21.432C364.629 21.7093 364.832 22.0347 364.96 22.408C365.088 22.7813 365.152 23.176 365.152 23.592V28.616C365.152 28.7227 365.114 28.8133 365.04 28.888C364.965 28.9627 364.874 29 364.768 29H363.472C363.354 29 363.258 28.9627 363.184 28.888C363.12 28.8133 363.088 28.7227 363.088 28.616V27.992C362.949 28.1947 362.762 28.3867 362.528 28.568C362.293 28.7387 362.005 28.8827 361.664 29C361.333 29.1067 360.938 29.16 360.48 29.16ZM361.024 27.64C361.397 27.64 361.733 27.56 362.032 27.4C362.341 27.24 362.581 26.9947 362.752 26.664C362.933 26.3227 363.024 25.896 363.024 25.384V25.048L361.424 25.304C360.794 25.4 360.325 25.5547 360.016 25.768C359.706 25.9813 359.552 26.2427 359.552 26.552C359.552 26.7867 359.621 26.9893 359.76 27.16C359.909 27.32 360.096 27.4427 360.32 27.528C360.544 27.6027 360.778 27.64 361.024 27.64ZM370.356 29.16C369.716 29.16 369.167 29.0853 368.708 28.936C368.26 28.7867 367.892 28.6 367.604 28.376C367.316 28.152 367.103 27.928 366.964 27.704C366.826 27.48 366.751 27.2933 366.74 27.144C366.73 27.0267 366.762 26.936 366.836 26.872C366.922 26.7973 367.012 26.76 367.108 26.76H368.372C368.415 26.76 368.452 26.7653 368.484 26.776C368.516 26.7867 368.559 26.8187 368.612 26.872C368.751 26.9893 368.895 27.112 369.044 27.24C369.204 27.368 369.391 27.48 369.604 27.576C369.818 27.6613 370.084 27.704 370.404 27.704C370.82 27.704 371.167 27.624 371.444 27.464C371.732 27.2933 371.876 27.0533 371.876 26.744C371.876 26.52 371.812 26.3387 371.684 26.2C371.567 26.0613 371.343 25.9387 371.012 25.832C370.682 25.7147 370.212 25.592 369.604 25.464C369.007 25.3253 368.511 25.1493 368.116 24.936C367.722 24.7227 367.428 24.456 367.236 24.136C367.044 23.816 366.948 23.4427 366.948 23.016C366.948 22.6 367.071 22.2053 367.316 21.832C367.572 21.448 367.946 21.1333 368.436 20.888C368.938 20.6427 369.556 20.52 370.292 20.52C370.868 20.52 371.37 20.5947 371.796 20.744C372.223 20.8827 372.575 21.0587 372.852 21.272C373.14 21.4853 373.359 21.704 373.508 21.928C373.658 22.1413 373.738 22.328 373.748 22.488C373.759 22.6053 373.727 22.7013 373.652 22.776C373.578 22.84 373.492 22.872 373.396 22.872H372.212C372.159 22.872 372.111 22.8613 372.068 22.84C372.026 22.8187 371.983 22.792 371.94 22.76C371.823 22.6533 371.695 22.5413 371.556 22.424C371.418 22.3067 371.247 22.2053 371.044 22.12C370.852 22.024 370.596 21.976 370.276 21.976C369.871 21.976 369.562 22.0667 369.348 22.248C369.135 22.4187 369.028 22.6373 369.028 22.904C369.028 23.0853 369.076 23.2453 369.172 23.384C369.279 23.512 369.487 23.6347 369.796 23.752C370.106 23.8693 370.575 23.992 371.204 24.12C371.919 24.248 372.484 24.44 372.9 24.696C373.327 24.9413 373.626 25.2293 373.796 25.56C373.978 25.88 374.068 26.2373 374.068 26.632C374.068 27.112 373.924 27.544 373.636 27.928C373.359 28.312 372.943 28.616 372.388 28.84C371.844 29.0533 371.167 29.16 370.356 29.16ZM379.304 29.16C378.12 29.16 377.181 28.8187 376.488 28.136C375.795 27.4533 375.421 26.4827 375.368 25.224C375.357 25.1173 375.352 24.984 375.352 24.824C375.352 24.6533 375.357 24.52 375.368 24.424C375.411 23.624 375.592 22.9307 375.912 22.344C376.243 21.7573 376.696 21.3093 377.272 21C377.848 20.68 378.525 20.52 379.304 20.52C380.168 20.52 380.893 20.7013 381.48 21.064C382.067 21.416 382.509 21.912 382.808 22.552C383.107 23.1813 383.256 23.912 383.256 24.744V25.08C383.256 25.1867 383.219 25.2773 383.144 25.352C383.069 25.4267 382.973 25.464 382.856 25.464H377.544C377.544 25.464 377.544 25.48 377.544 25.512C377.544 25.544 377.544 25.5707 377.544 25.592C377.555 25.9653 377.624 26.312 377.752 26.632C377.891 26.9413 378.088 27.192 378.344 27.384C378.611 27.576 378.925 27.672 379.288 27.672C379.587 27.672 379.837 27.6293 380.04 27.544C380.243 27.448 380.408 27.3413 380.536 27.224C380.664 27.1067 380.755 27.0107 380.808 26.936C380.904 26.808 380.979 26.7333 381.032 26.712C381.096 26.68 381.187 26.664 381.304 26.664H382.68C382.787 26.664 382.872 26.696 382.936 26.76C383.011 26.824 383.043 26.904 383.032 27C383.021 27.1707 382.931 27.3787 382.76 27.624C382.6 27.8693 382.365 28.1093 382.056 28.344C381.747 28.5787 381.357 28.776 380.888 28.936C380.429 29.0853 379.901 29.16 379.304 29.16ZM377.544 24.12H381.08V24.072C381.08 23.656 381.011 23.2933 380.872 22.984C380.733 22.6747 380.531 22.4293 380.264 22.248C379.997 22.0667 379.677 21.976 379.304 21.976C378.931 21.976 378.611 22.0667 378.344 22.248C378.077 22.4293 377.875 22.6747 377.736 22.984C377.608 23.2933 377.544 23.656 377.544 24.072V24.12Z" fill="white"/>
<rect y="174" width="149" height="48" rx="16" fill="#84D0F0"/>
<path d="M59.685 203C59.5997 203 59.5197 202.968 59.445 202.904C59.381 202.84 59.349 202.76 59.349 202.664C59.349 202.621 59.3597 202.573 59.381 202.52L63.237 192.2C63.269 192.093 63.3277 192.003 63.413 191.928C63.509 191.843 63.637 191.8 63.797 191.8H65.541C65.701 191.8 65.8237 191.843 65.909 191.928C65.9943 192.003 66.0583 192.093 66.101 192.2L69.957 202.52C69.9677 202.573 69.973 202.621 69.973 202.664C69.973 202.76 69.941 202.84 69.877 202.904C69.813 202.968 69.7383 203 69.653 203H68.261C68.1117 203 67.9997 202.968 67.925 202.904C67.861 202.829 67.8183 202.76 67.797 202.696L67.045 200.744H62.293L61.541 202.696C61.5197 202.76 61.4717 202.829 61.397 202.904C61.333 202.968 61.2263 203 61.077 203H59.685ZM62.853 198.904H66.485L64.661 193.96L62.853 198.904ZM71.6748 206.04C71.5681 206.04 71.4774 206.003 71.4028 205.928C71.3281 205.853 71.2908 205.763 71.2908 205.656V195.064C71.2908 194.957 71.3281 194.867 71.4028 194.792C71.4774 194.717 71.5681 194.68 71.6748 194.68H72.9388C73.0561 194.68 73.1468 194.717 73.2108 194.792C73.2854 194.867 73.3228 194.957 73.3228 195.064V195.704C73.5788 195.363 73.9148 195.08 74.3307 194.856C74.7468 194.632 75.2641 194.52 75.8828 194.52C76.4481 194.52 76.9388 194.611 77.3548 194.792C77.7708 194.973 78.1174 195.235 78.3948 195.576C78.6721 195.907 78.8854 196.301 79.0347 196.76C79.1841 197.219 79.2694 197.725 79.2908 198.28C79.3014 198.461 79.3068 198.648 79.3068 198.84C79.3068 199.032 79.3014 199.224 79.2908 199.416C79.2801 199.949 79.2001 200.445 79.0508 200.904C78.9014 201.352 78.6828 201.747 78.3948 202.088C78.1174 202.419 77.7708 202.68 77.3548 202.872C76.9388 203.064 76.4481 203.16 75.8828 203.16C75.3068 203.16 74.8161 203.059 74.4108 202.856C74.0054 202.643 73.6748 202.365 73.4188 202.024V205.656C73.4188 205.763 73.3814 205.853 73.3068 205.928C73.2428 206.003 73.1521 206.04 73.0348 206.04H71.6748ZM75.2908 201.448C75.7494 201.448 76.1068 201.352 76.3628 201.16C76.6188 200.957 76.8001 200.696 76.9068 200.376C77.0241 200.056 77.0934 199.704 77.1148 199.32C77.1361 199 77.1361 198.68 77.1148 198.36C77.0934 197.976 77.0241 197.624 76.9068 197.304C76.8001 196.984 76.6188 196.728 76.3628 196.536C76.1068 196.333 75.7494 196.232 75.2908 196.232C74.8534 196.232 74.4961 196.333 74.2188 196.536C73.9521 196.739 73.7548 197 73.6268 197.32C73.5094 197.629 73.4401 197.949 73.4188 198.28C73.4081 198.472 73.4028 198.675 73.4028 198.888C73.4028 199.101 73.4081 199.309 73.4188 199.512C73.4294 199.832 73.5041 200.141 73.6428 200.44C73.7814 200.728 73.9841 200.968 74.2508 201.16C74.5174 201.352 74.8641 201.448 75.2908 201.448ZM81.5029 206.04C81.3962 206.04 81.3055 206.003 81.2309 205.928C81.1562 205.853 81.1189 205.763 81.1189 205.656V195.064C81.1189 194.957 81.1562 194.867 81.2309 194.792C81.3055 194.717 81.3962 194.68 81.5029 194.68H82.7669C82.8842 194.68 82.9749 194.717 83.0389 194.792C83.1135 194.867 83.1509 194.957 83.1509 195.064V195.704C83.4069 195.363 83.7429 195.08 84.1589 194.856C84.5749 194.632 85.0922 194.52 85.7109 194.52C86.2762 194.52 86.7669 194.611 87.1829 194.792C87.5989 194.973 87.9455 195.235 88.2229 195.576C88.5002 195.907 88.7135 196.301 88.8629 196.76C89.0122 197.219 89.0975 197.725 89.1189 198.28C89.1295 198.461 89.1349 198.648 89.1349 198.84C89.1349 199.032 89.1295 199.224 89.1189 199.416C89.1082 199.949 89.0282 200.445 88.8789 200.904C88.7295 201.352 88.5109 201.747 88.2229 202.088C87.9455 202.419 87.5989 202.68 87.1829 202.872C86.7669 203.064 86.2762 203.16 85.7109 203.16C85.1349 203.16 84.6442 203.059 84.2389 202.856C83.8335 202.643 83.5029 202.365 83.2469 202.024V205.656C83.2469 205.763 83.2095 205.853 83.1349 205.928C83.0709 206.003 82.9802 206.04 82.8629 206.04H81.5029ZM85.1189 201.448C85.5775 201.448 85.9349 201.352 86.1909 201.16C86.4469 200.957 86.6282 200.696 86.7349 200.376C86.8522 200.056 86.9215 199.704 86.9429 199.32C86.9642 199 86.9642 198.68 86.9429 198.36C86.9215 197.976 86.8522 197.624 86.7349 197.304C86.6282 196.984 86.4469 196.728 86.1909 196.536C85.9349 196.333 85.5775 196.232 85.1189 196.232C84.6815 196.232 84.3242 196.333 84.0469 196.536C83.7802 196.739 83.5829 197 83.4549 197.32C83.3375 197.629 83.2682 197.949 83.2469 198.28C83.2362 198.472 83.2309 198.675 83.2309 198.888C83.2309 199.101 83.2362 199.309 83.2469 199.512C83.2575 199.832 83.3322 200.141 83.4709 200.44C83.6095 200.728 83.8122 200.968 84.0789 201.16C84.3455 201.352 84.6922 201.448 85.1189 201.448Z" fill="white"/>
<rect x="156" y="174" width="149" height="48" rx="16" fill="#84D0F0"/>
<path d="M203.283 203C203.123 203 202.995 202.957 202.899 202.872C202.814 202.776 202.755 202.659 202.723 202.52L200.819 192.264C200.819 192.232 200.814 192.205 200.803 192.184C200.803 192.163 200.803 192.147 200.803 192.136C200.803 192.04 200.835 191.96 200.899 191.896C200.974 191.832 201.054 191.8 201.139 191.8H202.547C202.814 191.8 202.963 191.907 202.995 192.12L204.323 199.368L205.763 194.68C205.795 194.595 205.849 194.509 205.923 194.424C206.009 194.328 206.131 194.28 206.291 194.28H207.155C207.326 194.28 207.449 194.328 207.523 194.424C207.598 194.509 207.646 194.595 207.667 194.68L209.123 199.352L210.451 192.12C210.483 191.907 210.633 191.8 210.899 191.8H212.307C212.393 191.8 212.467 191.832 212.531 191.896C212.595 191.96 212.627 192.04 212.627 192.136C212.627 192.147 212.627 192.163 212.627 192.184C212.627 192.205 212.622 192.232 212.611 192.264L210.707 202.52C210.686 202.659 210.627 202.776 210.531 202.872C210.435 202.957 210.307 203 210.147 203H209.075C208.915 203 208.787 202.957 208.691 202.872C208.606 202.787 208.547 202.696 208.515 202.6L206.723 197.256L204.931 202.6C204.889 202.696 204.825 202.787 204.739 202.872C204.654 202.957 204.526 203 204.355 203H203.283ZM217.57 203.16C216.386 203.16 215.447 202.819 214.754 202.136C214.06 201.453 213.687 200.483 213.634 199.224C213.623 199.117 213.618 198.984 213.618 198.824C213.618 198.653 213.623 198.52 213.634 198.424C213.676 197.624 213.858 196.931 214.178 196.344C214.508 195.757 214.962 195.309 215.538 195C216.114 194.68 216.791 194.52 217.57 194.52C218.434 194.52 219.159 194.701 219.746 195.064C220.332 195.416 220.775 195.912 221.074 196.552C221.372 197.181 221.522 197.912 221.522 198.744V199.08C221.522 199.187 221.484 199.277 221.41 199.352C221.335 199.427 221.239 199.464 221.122 199.464H215.81C215.81 199.464 215.81 199.48 215.81 199.512C215.81 199.544 215.81 199.571 215.81 199.592C215.82 199.965 215.89 200.312 216.018 200.632C216.156 200.941 216.354 201.192 216.61 201.384C216.876 201.576 217.191 201.672 217.554 201.672C217.852 201.672 218.103 201.629 218.306 201.544C218.508 201.448 218.674 201.341 218.802 201.224C218.93 201.107 219.02 201.011 219.074 200.936C219.17 200.808 219.244 200.733 219.298 200.712C219.362 200.68 219.452 200.664 219.57 200.664H220.946C221.052 200.664 221.138 200.696 221.202 200.76C221.276 200.824 221.308 200.904 221.298 201C221.287 201.171 221.196 201.379 221.026 201.624C220.866 201.869 220.631 202.109 220.322 202.344C220.012 202.579 219.623 202.776 219.154 202.936C218.695 203.085 218.167 203.16 217.57 203.16ZM215.81 198.12H219.346V198.072C219.346 197.656 219.276 197.293 219.138 196.984C218.999 196.675 218.796 196.429 218.53 196.248C218.263 196.067 217.943 195.976 217.57 195.976C217.196 195.976 216.876 196.067 216.61 196.248C216.343 196.429 216.14 196.675 216.002 196.984C215.874 197.293 215.81 197.656 215.81 198.072V198.12ZM227.828 203.16C227.209 203.16 226.692 203.053 226.276 202.84C225.871 202.627 225.535 202.355 225.268 202.024V202.616C225.268 202.723 225.231 202.813 225.156 202.888C225.092 202.963 225.001 203 224.884 203H223.62C223.513 203 223.423 202.963 223.348 202.888C223.273 202.813 223.236 202.723 223.236 202.616V192.024C223.236 191.917 223.273 191.827 223.348 191.752C223.423 191.677 223.513 191.64 223.62 191.64H224.98C225.097 191.64 225.188 191.677 225.252 191.752C225.327 191.827 225.364 191.917 225.364 192.024V195.576C225.631 195.267 225.961 195.016 226.356 194.824C226.761 194.621 227.252 194.52 227.828 194.52C228.393 194.52 228.884 194.616 229.3 194.808C229.716 195 230.063 195.272 230.34 195.624C230.628 195.965 230.847 196.365 230.996 196.824C231.145 197.283 231.225 197.779 231.236 198.312C231.247 198.504 231.252 198.68 231.252 198.84C231.252 198.989 231.247 199.16 231.236 199.352C231.215 199.907 231.129 200.419 230.98 200.888C230.831 201.347 230.617 201.747 230.34 202.088C230.063 202.429 229.716 202.696 229.3 202.888C228.884 203.069 228.393 203.16 227.828 203.16ZM227.236 201.448C227.695 201.448 228.052 201.352 228.308 201.16C228.564 200.957 228.745 200.696 228.852 200.376C228.969 200.056 229.039 199.704 229.06 199.32C229.081 199 229.081 198.68 229.06 198.36C229.039 197.976 228.969 197.624 228.852 197.304C228.745 196.984 228.564 196.728 228.308 196.536C228.052 196.333 227.695 196.232 227.236 196.232C226.809 196.232 226.463 196.328 226.196 196.52C225.929 196.712 225.727 196.957 225.588 197.256C225.449 197.544 225.375 197.848 225.364 198.168C225.353 198.36 225.348 198.568 225.348 198.792C225.348 199.005 225.353 199.208 225.364 199.4C225.385 199.731 225.455 200.056 225.572 200.376C225.7 200.685 225.897 200.941 226.164 201.144C226.441 201.347 226.799 201.448 227.236 201.448ZM236.185 203.16C235.545 203.16 234.995 203.085 234.537 202.936C234.089 202.787 233.721 202.6 233.433 202.376C233.145 202.152 232.931 201.928 232.793 201.704C232.654 201.48 232.579 201.293 232.569 201.144C232.558 201.027 232.59 200.936 232.665 200.872C232.75 200.797 232.841 200.76 232.937 200.76H234.201C234.243 200.76 234.281 200.765 234.313 200.776C234.345 200.787 234.387 200.819 234.441 200.872C234.579 200.989 234.723 201.112 234.873 201.24C235.033 201.368 235.219 201.48 235.433 201.576C235.646 201.661 235.913 201.704 236.233 201.704C236.649 201.704 236.995 201.624 237.273 201.464C237.561 201.293 237.705 201.053 237.705 200.744C237.705 200.52 237.641 200.339 237.513 200.2C237.395 200.061 237.171 199.939 236.841 199.832C236.51 199.715 236.041 199.592 235.433 199.464C234.835 199.325 234.339 199.149 233.945 198.936C233.55 198.723 233.257 198.456 233.065 198.136C232.873 197.816 232.777 197.443 232.777 197.016C232.777 196.6 232.899 196.205 233.145 195.832C233.401 195.448 233.774 195.133 234.265 194.888C234.766 194.643 235.385 194.52 236.121 194.52C236.697 194.52 237.198 194.595 237.625 194.744C238.051 194.883 238.403 195.059 238.681 195.272C238.969 195.485 239.187 195.704 239.337 195.928C239.486 196.141 239.566 196.328 239.577 196.488C239.587 196.605 239.555 196.701 239.481 196.776C239.406 196.84 239.321 196.872 239.225 196.872H238.041C237.987 196.872 237.939 196.861 237.897 196.84C237.854 196.819 237.811 196.792 237.769 196.76C237.651 196.653 237.523 196.541 237.385 196.424C237.246 196.307 237.075 196.205 236.873 196.12C236.681 196.024 236.425 195.976 236.105 195.976C235.699 195.976 235.39 196.067 235.177 196.248C234.963 196.419 234.857 196.637 234.857 196.904C234.857 197.085 234.905 197.245 235.001 197.384C235.107 197.512 235.315 197.635 235.625 197.752C235.934 197.869 236.403 197.992 237.033 198.12C237.747 198.248 238.313 198.44 238.729 198.696C239.155 198.941 239.454 199.229 239.625 199.56C239.806 199.88 239.897 200.237 239.897 200.632C239.897 201.112 239.753 201.544 239.465 201.928C239.187 202.312 238.771 202.616 238.217 202.84C237.673 203.053 236.995 203.16 236.185 203.16ZM241.932 203C241.826 203 241.735 202.963 241.66 202.888C241.586 202.813 241.548 202.723 241.548 202.616V195.064C241.548 194.957 241.586 194.867 241.66 194.792C241.735 194.717 241.826 194.68 241.932 194.68H243.26C243.378 194.68 243.468 194.717 243.532 194.792C243.607 194.867 243.644 194.957 243.644 195.064V202.616C243.644 202.723 243.607 202.813 243.532 202.888C243.468 202.963 243.378 203 243.26 203H241.932ZM241.868 193.304C241.751 193.304 241.655 193.272 241.58 193.208C241.516 193.133 241.484 193.037 241.484 192.92V191.768C241.484 191.661 241.516 191.571 241.58 191.496C241.655 191.421 241.751 191.384 241.868 191.384H243.324C243.442 191.384 243.538 191.421 243.612 191.496C243.687 191.571 243.724 191.661 243.724 191.768V192.92C243.724 193.037 243.687 193.133 243.612 193.208C243.538 193.272 243.442 193.304 243.324 193.304H241.868ZM249.527 203C248.887 203 248.348 202.888 247.911 202.664C247.474 202.44 247.148 202.109 246.935 201.672C246.722 201.224 246.615 200.669 246.615 200.008V196.376H245.351C245.244 196.376 245.154 196.339 245.079 196.264C245.004 196.189 244.967 196.099 244.967 195.992V195.064C244.967 194.957 245.004 194.867 245.079 194.792C245.154 194.717 245.244 194.68 245.351 194.68H246.615V192.024C246.615 191.917 246.647 191.827 246.711 191.752C246.786 191.677 246.882 191.64 246.999 191.64H248.295C248.402 191.64 248.492 191.677 248.567 191.752C248.642 191.827 248.679 191.917 248.679 192.024V194.68H250.679C250.786 194.68 250.876 194.717 250.951 194.792C251.026 194.867 251.063 194.957 251.063 195.064V195.992C251.063 196.099 251.026 196.189 250.951 196.264C250.876 196.339 250.786 196.376 250.679 196.376H248.679V199.848C248.679 200.285 248.754 200.627 248.903 200.872C249.063 201.117 249.335 201.24 249.719 201.24H250.823C250.93 201.24 251.02 201.277 251.095 201.352C251.17 201.427 251.207 201.517 251.207 201.624V202.616C251.207 202.723 251.17 202.813 251.095 202.888C251.02 202.963 250.93 203 250.823 203H249.527ZM256.21 203.16C255.026 203.16 254.088 202.819 253.394 202.136C252.701 201.453 252.328 200.483 252.274 199.224C252.264 199.117 252.258 198.984 252.258 198.824C252.258 198.653 252.264 198.52 252.274 198.424C252.317 197.624 252.498 196.931 252.818 196.344C253.149 195.757 253.602 195.309 254.178 195C254.754 194.68 255.432 194.52 256.21 194.52C257.074 194.52 257.8 194.701 258.386 195.064C258.973 195.416 259.416 195.912 259.714 196.552C260.013 197.181 260.162 197.912 260.162 198.744V199.08C260.162 199.187 260.125 199.277 260.05 199.352C259.976 199.427 259.88 199.464 259.762 199.464H254.45C254.45 199.464 254.45 199.48 254.45 199.512C254.45 199.544 254.45 199.571 254.45 199.592C254.461 199.965 254.53 200.312 254.658 200.632C254.797 200.941 254.994 201.192 255.25 201.384C255.517 201.576 255.832 201.672 256.194 201.672C256.493 201.672 256.744 201.629 256.946 201.544C257.149 201.448 257.314 201.341 257.442 201.224C257.57 201.107 257.661 201.011 257.714 200.936C257.81 200.808 257.885 200.733 257.938 200.712C258.002 200.68 258.093 200.664 258.21 200.664H259.586C259.693 200.664 259.778 200.696 259.842 200.76C259.917 200.824 259.949 200.904 259.938 201C259.928 201.171 259.837 201.379 259.666 201.624C259.506 201.869 259.272 202.109 258.962 202.344C258.653 202.579 258.264 202.776 257.794 202.936C257.336 203.085 256.808 203.16 256.21 203.16ZM254.45 198.12H257.986V198.072C257.986 197.656 257.917 197.293 257.778 196.984C257.64 196.675 257.437 196.429 257.17 196.248C256.904 196.067 256.584 195.976 256.21 195.976C255.837 195.976 255.517 196.067 255.25 196.248C254.984 196.429 254.781 196.675 254.642 196.984C254.514 197.293 254.45 197.656 254.45 198.072V198.12Z" fill="white"/>
<rect x="200" y="90" width="228" height="48" rx="16" fill="#D7D7D7"/>
<path d="M236.107 119.16C235.115 119.16 234.272 118.989 233.579 118.648C232.896 118.296 232.374 117.8 232.011 117.16C231.648 116.509 231.446 115.731 231.403 114.824C231.392 114.387 231.387 113.917 231.387 113.416C231.387 112.915 231.392 112.435 231.403 111.976C231.446 111.08 231.648 110.307 232.011 109.656C232.384 109.005 232.912 108.509 233.595 108.168C234.288 107.816 235.126 107.64 236.107 107.64C236.832 107.64 237.483 107.736 238.059 107.928C238.635 108.12 239.126 108.387 239.531 108.728C239.936 109.059 240.251 109.448 240.475 109.896C240.699 110.344 240.816 110.829 240.827 111.352C240.838 111.448 240.806 111.528 240.731 111.592C240.667 111.656 240.587 111.688 240.491 111.688H238.971C238.854 111.688 238.758 111.661 238.683 111.608C238.608 111.544 238.555 111.443 238.523 111.304C238.352 110.6 238.059 110.12 237.643 109.864C237.227 109.608 236.71 109.48 236.091 109.48C235.376 109.48 234.806 109.683 234.379 110.088C233.952 110.483 233.723 111.139 233.691 112.056C233.659 112.931 233.659 113.827 233.691 114.744C233.723 115.661 233.952 116.323 234.379 116.728C234.806 117.123 235.376 117.32 236.091 117.32C236.71 117.32 237.227 117.192 237.643 116.936C238.059 116.669 238.352 116.189 238.523 115.496C238.555 115.347 238.608 115.245 238.683 115.192C238.758 115.139 238.854 115.112 238.971 115.112H240.491C240.587 115.112 240.667 115.144 240.731 115.208C240.806 115.272 240.838 115.352 240.827 115.448C240.816 115.971 240.699 116.456 240.475 116.904C240.251 117.352 239.936 117.747 239.531 118.088C239.126 118.419 238.635 118.68 238.059 118.872C237.483 119.064 236.832 119.16 236.107 119.16ZM246.213 119.16C245.359 119.16 244.639 119.011 244.053 118.712C243.477 118.413 243.034 117.992 242.725 117.448C242.426 116.904 242.255 116.269 242.213 115.544C242.202 115.352 242.197 115.117 242.197 114.84C242.197 114.563 242.202 114.328 242.213 114.136C242.255 113.4 242.431 112.765 242.741 112.232C243.061 111.688 243.509 111.267 244.085 110.968C244.671 110.669 245.381 110.52 246.213 110.52C247.045 110.52 247.749 110.669 248.325 110.968C248.911 111.267 249.359 111.688 249.669 112.232C249.989 112.765 250.17 113.4 250.213 114.136C250.223 114.328 250.229 114.563 250.229 114.84C250.229 115.117 250.223 115.352 250.213 115.544C250.17 116.269 249.994 116.904 249.685 117.448C249.386 117.992 248.943 118.413 248.357 118.712C247.781 119.011 247.066 119.16 246.213 119.16ZM246.213 117.576C246.778 117.576 247.215 117.4 247.525 117.048C247.834 116.685 248.005 116.157 248.037 115.464C248.047 115.304 248.053 115.096 248.053 114.84C248.053 114.584 248.047 114.376 248.037 114.216C248.005 113.533 247.834 113.011 247.525 112.648C247.215 112.285 246.778 112.104 246.213 112.104C245.647 112.104 245.21 112.285 244.901 112.648C244.591 113.011 244.421 113.533 244.389 114.216C244.378 114.376 244.373 114.584 244.373 114.84C244.373 115.096 244.378 115.304 244.389 115.464C244.421 116.157 244.591 116.685 244.901 117.048C245.21 117.4 245.647 117.576 246.213 117.576ZM252.385 119C252.279 119 252.188 118.963 252.113 118.888C252.039 118.813 252.001 118.723 252.001 118.616V111.064C252.001 110.957 252.039 110.867 252.113 110.792C252.188 110.717 252.279 110.68 252.385 110.68H253.697C253.804 110.68 253.895 110.717 253.969 110.792C254.044 110.867 254.081 110.957 254.081 111.064V111.72C254.359 111.379 254.711 111.096 255.137 110.872C255.575 110.637 256.113 110.52 256.753 110.52C257.404 110.52 257.969 110.669 258.449 110.968C258.929 111.256 259.297 111.667 259.553 112.2C259.82 112.733 259.953 113.373 259.953 114.12V118.616C259.953 118.723 259.916 118.813 259.841 118.888C259.767 118.963 259.676 119 259.569 119H258.161C258.055 119 257.964 118.963 257.889 118.888C257.815 118.813 257.777 118.723 257.777 118.616V114.216C257.777 113.597 257.623 113.112 257.313 112.76C257.015 112.408 256.577 112.232 256.001 112.232C255.447 112.232 255.004 112.408 254.673 112.76C254.343 113.112 254.177 113.597 254.177 114.216V118.616C254.177 118.723 254.14 118.813 254.065 118.888C253.991 118.963 253.9 119 253.793 119H252.385ZM265.652 119C265.012 119 264.473 118.888 264.036 118.664C263.599 118.44 263.273 118.109 263.06 117.672C262.847 117.224 262.74 116.669 262.74 116.008V112.376H261.476C261.369 112.376 261.279 112.339 261.204 112.264C261.129 112.189 261.092 112.099 261.092 111.992V111.064C261.092 110.957 261.129 110.867 261.204 110.792C261.279 110.717 261.369 110.68 261.476 110.68H262.74V108.024C262.74 107.917 262.772 107.827 262.836 107.752C262.911 107.677 263.007 107.64 263.124 107.64H264.42C264.527 107.64 264.617 107.677 264.692 107.752C264.767 107.827 264.804 107.917 264.804 108.024V110.68H266.804C266.911 110.68 267.001 110.717 267.076 110.792C267.151 110.867 267.188 110.957 267.188 111.064V111.992C267.188 112.099 267.151 112.189 267.076 112.264C267.001 112.339 266.911 112.376 266.804 112.376H264.804V115.848C264.804 116.285 264.879 116.627 265.028 116.872C265.188 117.117 265.46 117.24 265.844 117.24H266.948C267.055 117.24 267.145 117.277 267.22 117.352C267.295 117.427 267.332 117.517 267.332 117.624V118.616C267.332 118.723 267.295 118.813 267.22 118.888C267.145 118.963 267.055 119 266.948 119H265.652ZM272.335 119.16C271.151 119.16 270.213 118.819 269.519 118.136C268.826 117.453 268.453 116.483 268.399 115.224C268.389 115.117 268.383 114.984 268.383 114.824C268.383 114.653 268.389 114.52 268.399 114.424C268.442 113.624 268.623 112.931 268.943 112.344C269.274 111.757 269.727 111.309 270.303 111C270.879 110.68 271.557 110.52 272.335 110.52C273.199 110.52 273.925 110.701 274.511 111.064C275.098 111.416 275.541 111.912 275.839 112.552C276.138 113.181 276.287 113.912 276.287 114.744V115.08C276.287 115.187 276.25 115.277 276.175 115.352C276.101 115.427 276.005 115.464 275.887 115.464H270.575C270.575 115.464 270.575 115.48 270.575 115.512C270.575 115.544 270.575 115.571 270.575 115.592C270.586 115.965 270.655 116.312 270.783 116.632C270.922 116.941 271.119 117.192 271.375 117.384C271.642 117.576 271.957 117.672 272.319 117.672C272.618 117.672 272.869 117.629 273.071 117.544C273.274 117.448 273.439 117.341 273.567 117.224C273.695 117.107 273.786 117.011 273.839 116.936C273.935 116.808 274.01 116.733 274.063 116.712C274.127 116.68 274.218 116.664 274.335 116.664H275.711C275.818 116.664 275.903 116.696 275.967 116.76C276.042 116.824 276.074 116.904 276.063 117C276.053 117.171 275.962 117.379 275.791 117.624C275.631 117.869 275.397 118.109 275.087 118.344C274.778 118.579 274.389 118.776 273.919 118.936C273.461 119.085 272.933 119.16 272.335 119.16ZM270.575 114.12H274.111V114.072C274.111 113.656 274.042 113.293 273.903 112.984C273.765 112.675 273.562 112.429 273.295 112.248C273.029 112.067 272.709 111.976 272.335 111.976C271.962 111.976 271.642 112.067 271.375 112.248C271.109 112.429 270.906 112.675 270.767 112.984C270.639 113.293 270.575 113.656 270.575 114.072V114.12ZM278.37 119C278.263 119 278.172 118.963 278.098 118.888C278.023 118.813 277.986 118.723 277.986 118.616V111.064C277.986 110.957 278.023 110.867 278.098 110.792C278.172 110.717 278.263 110.68 278.37 110.68H279.682C279.788 110.68 279.879 110.717 279.954 110.792C280.028 110.867 280.066 110.957 280.066 111.064V111.72C280.343 111.379 280.695 111.096 281.122 110.872C281.559 110.637 282.098 110.52 282.738 110.52C283.388 110.52 283.954 110.669 284.434 110.968C284.914 111.256 285.282 111.667 285.538 112.2C285.804 112.733 285.938 113.373 285.938 114.12V118.616C285.938 118.723 285.9 118.813 285.826 118.888C285.751 118.963 285.66 119 285.554 119H284.146C284.039 119 283.948 118.963 283.874 118.888C283.799 118.813 283.762 118.723 283.762 118.616V114.216C283.762 113.597 283.607 113.112 283.298 112.76C282.999 112.408 282.562 112.232 281.986 112.232C281.431 112.232 280.988 112.408 280.658 112.76C280.327 113.112 280.162 113.597 280.162 114.216V118.616C280.162 118.723 280.124 118.813 280.05 118.888C279.975 118.963 279.884 119 279.778 119H278.37ZM291.636 119C290.996 119 290.458 118.888 290.02 118.664C289.583 118.44 289.258 118.109 289.044 117.672C288.831 117.224 288.724 116.669 288.724 116.008V112.376H287.46C287.354 112.376 287.263 112.339 287.188 112.264C287.114 112.189 287.076 112.099 287.076 111.992V111.064C287.076 110.957 287.114 110.867 287.188 110.792C287.263 110.717 287.354 110.68 287.46 110.68H288.724V108.024C288.724 107.917 288.756 107.827 288.82 107.752C288.895 107.677 288.991 107.64 289.108 107.64H290.404C290.511 107.64 290.602 107.677 290.676 107.752C290.751 107.827 290.788 107.917 290.788 108.024V110.68H292.788C292.895 110.68 292.986 110.717 293.06 110.792C293.135 110.867 293.172 110.957 293.172 111.064V111.992C293.172 112.099 293.135 112.189 293.06 112.264C292.986 112.339 292.895 112.376 292.788 112.376H290.788V115.848C290.788 116.285 290.863 116.627 291.012 116.872C291.172 117.117 291.444 117.24 291.828 117.24H292.932C293.039 117.24 293.13 117.277 293.204 117.352C293.279 117.427 293.316 117.517 293.316 117.624V118.616C293.316 118.723 293.279 118.813 293.204 118.888C293.13 118.963 293.039 119 292.932 119H291.636ZM298.776 119C298.669 119 298.579 118.963 298.504 118.888C298.429 118.813 298.392 118.723 298.392 118.616V111.064C298.392 110.957 298.429 110.867 298.504 110.792C298.579 110.717 298.669 110.68 298.776 110.68H300.024C300.131 110.68 300.221 110.717 300.296 110.792C300.371 110.867 300.408 110.957 300.408 111.064V111.608C300.632 111.309 300.931 111.059 301.304 110.856C301.688 110.643 302.141 110.531 302.664 110.52C303.88 110.499 304.728 110.973 305.208 111.944C305.453 111.517 305.805 111.176 306.264 110.92C306.733 110.653 307.251 110.52 307.816 110.52C308.371 110.52 308.872 110.648 309.32 110.904C309.779 111.16 310.136 111.549 310.392 112.072C310.659 112.584 310.792 113.235 310.792 114.024V118.616C310.792 118.723 310.755 118.813 310.68 118.888C310.605 118.963 310.515 119 310.408 119H309.096C308.989 119 308.899 118.963 308.824 118.888C308.749 118.813 308.712 118.723 308.712 118.616V114.152C308.712 113.672 308.643 113.293 308.504 113.016C308.365 112.728 308.179 112.525 307.944 112.408C307.709 112.291 307.448 112.232 307.16 112.232C306.925 112.232 306.691 112.291 306.456 112.408C306.221 112.525 306.029 112.728 305.88 113.016C305.731 113.293 305.656 113.672 305.656 114.152V118.616C305.656 118.723 305.619 118.813 305.544 118.888C305.469 118.963 305.379 119 305.272 119H303.96C303.843 119 303.747 118.963 303.672 118.888C303.608 118.813 303.576 118.723 303.576 118.616V114.152C303.576 113.672 303.501 113.293 303.352 113.016C303.203 112.728 303.011 112.525 302.776 112.408C302.541 112.291 302.291 112.232 302.024 112.232C301.779 112.232 301.539 112.296 301.304 112.424C301.069 112.541 300.877 112.739 300.728 113.016C300.579 113.293 300.504 113.672 300.504 114.152V118.616C300.504 118.723 300.467 118.813 300.392 118.888C300.317 118.963 300.227 119 300.12 119H298.776ZM313.213 119C313.107 119 313.016 118.963 312.941 118.888C312.867 118.813 312.829 118.723 312.829 118.616V111.064C312.829 110.957 312.867 110.867 312.941 110.792C313.016 110.717 313.107 110.68 313.213 110.68H314.541C314.659 110.68 314.749 110.717 314.813 110.792C314.888 110.867 314.925 110.957 314.925 111.064V118.616C314.925 118.723 314.888 118.813 314.813 118.888C314.749 118.963 314.659 119 314.541 119H313.213ZM313.149 109.304C313.032 109.304 312.936 109.272 312.861 109.208C312.797 109.133 312.765 109.037 312.765 108.92V107.768C312.765 107.661 312.797 107.571 312.861 107.496C312.936 107.421 313.032 107.384 313.149 107.384H314.605C314.723 107.384 314.819 107.421 314.893 107.496C314.968 107.571 315.005 107.661 315.005 107.768V108.92C315.005 109.037 314.968 109.133 314.893 109.208C314.819 109.272 314.723 109.304 314.605 109.304H313.149ZM320.695 119.16C319.927 119.16 319.25 119.016 318.663 118.728C318.087 118.44 317.634 118.024 317.303 117.48C316.983 116.925 316.807 116.259 316.775 115.48C316.764 115.32 316.759 115.112 316.759 114.856C316.759 114.589 316.764 114.371 316.775 114.2C316.807 113.421 316.983 112.76 317.303 112.216C317.634 111.661 318.087 111.24 318.663 110.952C319.25 110.664 319.927 110.52 320.695 110.52C321.378 110.52 321.959 110.616 322.439 110.808C322.919 111 323.314 111.24 323.623 111.528C323.932 111.816 324.162 112.12 324.311 112.44C324.471 112.749 324.556 113.032 324.567 113.288C324.578 113.405 324.54 113.501 324.455 113.576C324.38 113.64 324.29 113.672 324.183 113.672H322.775C322.668 113.672 322.583 113.645 322.519 113.592C322.466 113.539 322.412 113.459 322.359 113.352C322.199 112.925 321.986 112.627 321.719 112.456C321.463 112.275 321.132 112.184 320.727 112.184C320.194 112.184 319.767 112.355 319.447 112.696C319.138 113.027 318.972 113.555 318.951 114.28C318.93 114.685 318.93 115.059 318.951 115.4C318.972 116.136 319.138 116.669 319.447 117C319.767 117.331 320.194 117.496 320.727 117.496C321.143 117.496 321.479 117.411 321.735 117.24C321.991 117.059 322.199 116.755 322.359 116.328C322.412 116.221 322.466 116.141 322.519 116.088C322.583 116.035 322.668 116.008 322.775 116.008H324.183C324.29 116.008 324.38 116.045 324.455 116.12C324.54 116.184 324.578 116.275 324.567 116.392C324.556 116.584 324.503 116.803 324.407 117.048C324.322 117.283 324.178 117.528 323.975 117.784C323.783 118.029 323.538 118.259 323.239 118.472C322.94 118.675 322.578 118.84 322.151 118.968C321.735 119.096 321.25 119.16 320.695 119.16ZM326.62 119C326.513 119 326.422 118.963 326.348 118.888C326.273 118.813 326.236 118.723 326.236 118.616V111.08C326.236 110.963 326.273 110.867 326.348 110.792C326.422 110.717 326.513 110.68 326.62 110.68H327.916C328.022 110.68 328.113 110.717 328.188 110.792C328.273 110.867 328.316 110.963 328.316 111.08V111.736C328.561 111.395 328.876 111.133 329.26 110.952C329.654 110.771 330.108 110.68 330.62 110.68H331.276C331.393 110.68 331.484 110.717 331.548 110.792C331.622 110.867 331.66 110.957 331.66 111.064V112.216C331.66 112.323 331.622 112.413 331.548 112.488C331.484 112.563 331.393 112.6 331.276 112.6H330.028C329.516 112.6 329.116 112.744 328.828 113.032C328.55 113.32 328.412 113.715 328.412 114.216V118.616C328.412 118.723 328.374 118.813 328.3 118.888C328.225 118.963 328.129 119 328.012 119H326.62ZM336.478 119.16C335.625 119.16 334.905 119.011 334.318 118.712C333.742 118.413 333.3 117.992 332.99 117.448C332.692 116.904 332.521 116.269 332.478 115.544C332.468 115.352 332.462 115.117 332.462 114.84C332.462 114.563 332.468 114.328 332.478 114.136C332.521 113.4 332.697 112.765 333.006 112.232C333.326 111.688 333.774 111.267 334.35 110.968C334.937 110.669 335.646 110.52 336.478 110.52C337.31 110.52 338.014 110.669 338.59 110.968C339.177 111.267 339.625 111.688 339.934 112.232C340.254 112.765 340.436 113.4 340.478 114.136C340.489 114.328 340.494 114.563 340.494 114.84C340.494 115.117 340.489 115.352 340.478 115.544C340.436 116.269 340.26 116.904 339.95 117.448C339.652 117.992 339.209 118.413 338.622 118.712C338.046 119.011 337.332 119.16 336.478 119.16ZM336.478 117.576C337.044 117.576 337.481 117.4 337.79 117.048C338.1 116.685 338.27 116.157 338.302 115.464C338.313 115.304 338.318 115.096 338.318 114.84C338.318 114.584 338.313 114.376 338.302 114.216C338.27 113.533 338.1 113.011 337.79 112.648C337.481 112.285 337.044 112.104 336.478 112.104C335.913 112.104 335.476 112.285 335.166 112.648C334.857 113.011 334.686 113.533 334.654 114.216C334.644 114.376 334.638 114.584 334.638 114.84C334.638 115.096 334.644 115.304 334.654 115.464C334.686 116.157 334.857 116.685 335.166 117.048C335.476 117.4 335.913 117.576 336.478 117.576ZM345.419 119.16C344.779 119.16 344.23 119.085 343.771 118.936C343.323 118.787 342.955 118.6 342.667 118.376C342.379 118.152 342.166 117.928 342.027 117.704C341.888 117.48 341.814 117.293 341.803 117.144C341.792 117.027 341.824 116.936 341.899 116.872C341.984 116.797 342.075 116.76 342.171 116.76H343.435C343.478 116.76 343.515 116.765 343.547 116.776C343.579 116.787 343.622 116.819 343.675 116.872C343.814 116.989 343.958 117.112 344.107 117.24C344.267 117.368 344.454 117.48 344.667 117.576C344.88 117.661 345.147 117.704 345.467 117.704C345.883 117.704 346.23 117.624 346.507 117.464C346.795 117.293 346.939 117.053 346.939 116.744C346.939 116.52 346.875 116.339 346.747 116.2C346.63 116.061 346.406 115.939 346.075 115.832C345.744 115.715 345.275 115.592 344.667 115.464C344.07 115.325 343.574 115.149 343.179 114.936C342.784 114.723 342.491 114.456 342.299 114.136C342.107 113.816 342.011 113.443 342.011 113.016C342.011 112.6 342.134 112.205 342.379 111.832C342.635 111.448 343.008 111.133 343.499 110.888C344 110.643 344.619 110.52 345.355 110.52C345.931 110.52 346.432 110.595 346.859 110.744C347.286 110.883 347.638 111.059 347.915 111.272C348.203 111.485 348.422 111.704 348.571 111.928C348.72 112.141 348.8 112.328 348.811 112.488C348.822 112.605 348.79 112.701 348.715 112.776C348.64 112.84 348.555 112.872 348.459 112.872H347.275C347.222 112.872 347.174 112.861 347.131 112.84C347.088 112.819 347.046 112.792 347.003 112.76C346.886 112.653 346.758 112.541 346.619 112.424C346.48 112.307 346.31 112.205 346.107 112.12C345.915 112.024 345.659 111.976 345.339 111.976C344.934 111.976 344.624 112.067 344.411 112.248C344.198 112.419 344.091 112.637 344.091 112.904C344.091 113.085 344.139 113.245 344.235 113.384C344.342 113.512 344.55 113.635 344.859 113.752C345.168 113.869 345.638 113.992 346.267 114.12C346.982 114.248 347.547 114.44 347.963 114.696C348.39 114.941 348.688 115.229 348.859 115.56C349.04 115.88 349.131 116.237 349.131 116.632C349.131 117.112 348.987 117.544 348.699 117.928C348.422 118.312 348.006 118.616 347.451 118.84C346.907 119.053 346.23 119.16 345.419 119.16ZM354.367 119.16C353.183 119.16 352.244 118.819 351.551 118.136C350.857 117.453 350.484 116.483 350.431 115.224C350.42 115.117 350.415 114.984 350.415 114.824C350.415 114.653 350.42 114.52 350.431 114.424C350.473 113.624 350.655 112.931 350.975 112.344C351.305 111.757 351.759 111.309 352.335 111C352.911 110.68 353.588 110.52 354.367 110.52C355.231 110.52 355.956 110.701 356.543 111.064C357.129 111.416 357.572 111.912 357.871 112.552C358.169 113.181 358.319 113.912 358.319 114.744V115.08C358.319 115.187 358.281 115.277 358.207 115.352C358.132 115.427 358.036 115.464 357.919 115.464H352.607C352.607 115.464 352.607 115.48 352.607 115.512C352.607 115.544 352.607 115.571 352.607 115.592C352.617 115.965 352.687 116.312 352.815 116.632C352.953 116.941 353.151 117.192 353.407 117.384C353.673 117.576 353.988 117.672 354.351 117.672C354.649 117.672 354.9 117.629 355.103 117.544C355.305 117.448 355.471 117.341 355.599 117.224C355.727 117.107 355.817 117.011 355.871 116.936C355.967 116.808 356.041 116.733 356.095 116.712C356.159 116.68 356.249 116.664 356.367 116.664H357.743C357.849 116.664 357.935 116.696 357.999 116.76C358.073 116.824 358.105 116.904 358.095 117C358.084 117.171 357.993 117.379 357.823 117.624C357.663 117.869 357.428 118.109 357.119 118.344C356.809 118.579 356.42 118.776 355.951 118.936C355.492 119.085 354.964 119.16 354.367 119.16ZM352.607 114.12H356.143V114.072C356.143 113.656 356.073 113.293 355.935 112.984C355.796 112.675 355.593 112.429 355.327 112.248C355.06 112.067 354.74 111.976 354.367 111.976C353.993 111.976 353.673 112.067 353.407 112.248C353.14 112.429 352.937 112.675 352.799 112.984C352.671 113.293 352.607 113.656 352.607 114.072V114.12ZM360.401 119C360.294 119 360.204 118.963 360.129 118.888C360.054 118.813 360.017 118.723 360.017 118.616V111.08C360.017 110.963 360.054 110.867 360.129 110.792C360.204 110.717 360.294 110.68 360.401 110.68H361.697C361.804 110.68 361.894 110.717 361.969 110.792C362.054 110.867 362.097 110.963 362.097 111.08V111.736C362.342 111.395 362.657 111.133 363.041 110.952C363.436 110.771 363.889 110.68 364.401 110.68H365.057C365.174 110.68 365.265 110.717 365.329 110.792C365.404 110.867 365.441 110.957 365.441 111.064V112.216C365.441 112.323 365.404 112.413 365.329 112.488C365.265 112.563 365.174 112.6 365.057 112.6H363.809C363.297 112.6 362.897 112.744 362.609 113.032C362.332 113.32 362.193 113.715 362.193 114.216V118.616C362.193 118.723 362.156 118.813 362.081 118.888C362.006 118.963 361.91 119 361.793 119H360.401ZM369.633 119C369.462 119 369.334 118.963 369.249 118.888C369.174 118.803 369.11 118.707 369.057 118.6L366.065 111.176C366.043 111.123 366.033 111.075 366.033 111.032C366.033 110.936 366.065 110.856 366.129 110.792C366.203 110.717 366.289 110.68 366.385 110.68H367.681C367.809 110.68 367.905 110.717 367.969 110.792C368.033 110.856 368.075 110.92 368.097 110.984L370.225 116.6L372.353 110.984C372.374 110.92 372.417 110.856 372.481 110.792C372.545 110.717 372.641 110.68 372.769 110.68H374.081C374.166 110.68 374.241 110.717 374.305 110.792C374.379 110.856 374.417 110.936 374.417 111.032C374.417 111.075 374.411 111.123 374.401 111.176L371.393 118.6C371.35 118.707 371.286 118.803 371.201 118.888C371.115 118.963 370.987 119 370.817 119H369.633ZM376.26 119C376.154 119 376.063 118.963 375.988 118.888C375.914 118.813 375.876 118.723 375.876 118.616V111.064C375.876 110.957 375.914 110.867 375.988 110.792C376.063 110.717 376.154 110.68 376.26 110.68H377.588C377.706 110.68 377.796 110.717 377.86 110.792C377.935 110.867 377.972 110.957 377.972 111.064V118.616C377.972 118.723 377.935 118.813 377.86 118.888C377.796 118.963 377.706 119 377.588 119H376.26ZM376.196 109.304C376.079 109.304 375.983 109.272 375.908 109.208C375.844 109.133 375.812 109.037 375.812 108.92V107.768C375.812 107.661 375.844 107.571 375.908 107.496C375.983 107.421 376.079 107.384 376.196 107.384H377.652C377.77 107.384 377.866 107.421 377.94 107.496C378.015 107.571 378.052 107.661 378.052 107.768V108.92C378.052 109.037 378.015 109.133 377.94 109.208C377.866 109.272 377.77 109.304 377.652 109.304H376.196ZM383.742 119.16C382.974 119.16 382.297 119.016 381.71 118.728C381.134 118.44 380.681 118.024 380.35 117.48C380.03 116.925 379.854 116.259 379.822 115.48C379.811 115.32 379.806 115.112 379.806 114.856C379.806 114.589 379.811 114.371 379.822 114.2C379.854 113.421 380.03 112.76 380.35 112.216C380.681 111.661 381.134 111.24 381.71 110.952C382.297 110.664 382.974 110.52 383.742 110.52C384.425 110.52 385.006 110.616 385.486 110.808C385.966 111 386.361 111.24 386.67 111.528C386.979 111.816 387.209 112.12 387.358 112.44C387.518 112.749 387.603 113.032 387.614 113.288C387.625 113.405 387.587 113.501 387.502 113.576C387.427 113.64 387.337 113.672 387.23 113.672H385.822C385.715 113.672 385.63 113.645 385.566 113.592C385.513 113.539 385.459 113.459 385.406 113.352C385.246 112.925 385.033 112.627 384.766 112.456C384.51 112.275 384.179 112.184 383.774 112.184C383.241 112.184 382.814 112.355 382.494 112.696C382.185 113.027 382.019 113.555 381.998 114.28C381.977 114.685 381.977 115.059 381.998 115.4C382.019 116.136 382.185 116.669 382.494 117C382.814 117.331 383.241 117.496 383.774 117.496C384.19 117.496 384.526 117.411 384.782 117.24C385.038 117.059 385.246 116.755 385.406 116.328C385.459 116.221 385.513 116.141 385.566 116.088C385.63 116.035 385.715 116.008 385.822 116.008H387.23C387.337 116.008 387.427 116.045 387.502 116.12C387.587 116.184 387.625 116.275 387.614 116.392C387.603 116.584 387.55 116.803 387.454 117.048C387.369 117.283 387.225 117.528 387.022 117.784C386.83 118.029 386.585 118.259 386.286 118.472C385.987 118.675 385.625 118.84 385.198 118.968C384.782 119.096 384.297 119.16 383.742 119.16ZM392.867 119.16C391.683 119.16 390.744 118.819 390.051 118.136C389.357 117.453 388.984 116.483 388.931 115.224C388.92 115.117 388.915 114.984 388.915 114.824C388.915 114.653 388.92 114.52 388.931 114.424C388.973 113.624 389.155 112.931 389.475 112.344C389.805 111.757 390.259 111.309 390.835 111C391.411 110.68 392.088 110.52 392.867 110.52C393.731 110.52 394.456 110.701 395.043 111.064C395.629 111.416 396.072 111.912 396.371 112.552C396.669 113.181 396.819 113.912 396.819 114.744V115.08C396.819 115.187 396.781 115.277 396.707 115.352C396.632 115.427 396.536 115.464 396.419 115.464H391.107C391.107 115.464 391.107 115.48 391.107 115.512C391.107 115.544 391.107 115.571 391.107 115.592C391.117 115.965 391.187 116.312 391.315 116.632C391.453 116.941 391.651 117.192 391.907 117.384C392.173 117.576 392.488 117.672 392.851 117.672C393.149 117.672 393.4 117.629 393.603 117.544C393.805 117.448 393.971 117.341 394.099 117.224C394.227 117.107 394.317 117.011 394.371 116.936C394.467 116.808 394.541 116.733 394.595 116.712C394.659 116.68 394.749 116.664 394.867 116.664H396.243C396.349 116.664 396.435 116.696 396.499 116.76C396.573 116.824 396.605 116.904 396.595 117C396.584 117.171 396.493 117.379 396.323 117.624C396.163 117.869 395.928 118.109 395.619 118.344C395.309 118.579 394.92 118.776 394.451 118.936C393.992 119.085 393.464 119.16 392.867 119.16ZM391.107 114.12H394.643V114.072C394.643 113.656 394.573 113.293 394.435 112.984C394.296 112.675 394.093 112.429 393.827 112.248C393.56 112.067 393.24 111.976 392.867 111.976C392.493 111.976 392.173 112.067 391.907 112.248C391.64 112.429 391.437 112.675 391.299 112.984C391.171 113.293 391.107 113.656 391.107 114.072V114.12Z" fill="#5A5A5A"/>
<rect y="90" width="155" height="48" rx="16" fill="#D7D7D7"/>
<path d="M45.7883 119C45.6816 119 45.5909 118.963 45.5163 118.888C45.4416 118.813 45.4043 118.723 45.4043 118.616V108.2C45.4043 108.083 45.4416 107.987 45.5163 107.912C45.5909 107.837 45.6816 107.8 45.7883 107.8H50.4283C51.2923 107.8 51.9963 107.933 52.5403 108.2C53.0843 108.456 53.4843 108.813 53.7403 109.272C54.0069 109.731 54.1403 110.264 54.1403 110.872C54.1403 111.277 54.0656 111.635 53.9163 111.944C53.7776 112.243 53.6016 112.488 53.3883 112.68C53.1856 112.872 52.9829 113.021 52.7803 113.128C53.1963 113.32 53.5643 113.64 53.8843 114.088C54.2043 114.536 54.3643 115.069 54.3643 115.688C54.3643 116.328 54.2203 116.899 53.9323 117.4C53.6443 117.901 53.2176 118.296 52.6523 118.584C52.0869 118.861 51.3883 119 50.5563 119H45.7883ZM47.6283 117.304H50.3003C50.8763 117.304 51.3136 117.149 51.6123 116.84C51.9109 116.52 52.0603 116.136 52.0603 115.688C52.0603 115.219 51.9056 114.829 51.5963 114.52C51.2976 114.211 50.8656 114.056 50.3003 114.056H47.6283V117.304ZM47.6283 112.392H50.1403C50.7056 112.392 51.1269 112.259 51.4043 111.992C51.6923 111.715 51.8363 111.357 51.8363 110.92C51.8363 110.472 51.6923 110.125 51.4043 109.88C51.1269 109.624 50.7056 109.496 50.1403 109.496H47.6283V112.392ZM58.597 119.16C58.0423 119.16 57.541 119.053 57.093 118.84C56.645 118.616 56.2877 118.323 56.021 117.96C55.765 117.587 55.637 117.171 55.637 116.712C55.637 115.965 55.9357 115.373 56.533 114.936C57.141 114.488 57.941 114.189 58.933 114.04L61.125 113.72V113.384C61.125 112.936 61.013 112.589 60.789 112.344C60.565 112.099 60.181 111.976 59.637 111.976C59.253 111.976 58.9383 112.056 58.693 112.216C58.4583 112.365 58.2823 112.568 58.165 112.824C58.0797 112.963 57.957 113.032 57.797 113.032H56.533C56.4157 113.032 56.325 113 56.261 112.936C56.2077 112.872 56.181 112.787 56.181 112.68C56.1917 112.509 56.261 112.301 56.389 112.056C56.517 111.811 56.7197 111.576 56.997 111.352C57.2743 111.117 57.6317 110.92 58.069 110.76C58.5063 110.6 59.0343 110.52 59.653 110.52C60.325 110.52 60.8903 110.605 61.349 110.776C61.8183 110.936 62.1917 111.155 62.469 111.432C62.7463 111.709 62.949 112.035 63.077 112.408C63.205 112.781 63.269 113.176 63.269 113.592V118.616C63.269 118.723 63.2317 118.813 63.157 118.888C63.0823 118.963 62.9917 119 62.885 119H61.589C61.4717 119 61.3757 118.963 61.301 118.888C61.237 118.813 61.205 118.723 61.205 118.616V117.992C61.0663 118.195 60.8797 118.387 60.645 118.568C60.4103 118.739 60.1223 118.883 59.781 119C59.4503 119.107 59.0557 119.16 58.597 119.16ZM59.141 117.64C59.5143 117.64 59.8503 117.56 60.149 117.4C60.4583 117.24 60.6983 116.995 60.869 116.664C61.0503 116.323 61.141 115.896 61.141 115.384V115.048L59.541 115.304C58.9117 115.4 58.4423 115.555 58.133 115.768C57.8237 115.981 57.669 116.243 57.669 116.552C57.669 116.787 57.7383 116.989 57.877 117.16C58.0263 117.32 58.213 117.443 58.437 117.528C58.661 117.603 58.8957 117.64 59.141 117.64ZM68.9216 119.16C68.1536 119.16 67.4763 119.016 66.8896 118.728C66.3136 118.44 65.8603 118.024 65.5296 117.48C65.2096 116.925 65.0336 116.259 65.0016 115.48C64.991 115.32 64.9856 115.112 64.9856 114.856C64.9856 114.589 64.991 114.371 65.0016 114.2C65.0336 113.421 65.2096 112.76 65.5296 112.216C65.8603 111.661 66.3136 111.24 66.8896 110.952C67.4763 110.664 68.1536 110.52 68.9216 110.52C69.6043 110.52 70.1856 110.616 70.6656 110.808C71.1456 111 71.5403 111.24 71.8496 111.528C72.159 111.816 72.3883 112.12 72.5376 112.44C72.6976 112.749 72.783 113.032 72.7936 113.288C72.8043 113.405 72.767 113.501 72.6816 113.576C72.607 113.64 72.5163 113.672 72.4096 113.672H71.0016C70.895 113.672 70.8096 113.645 70.7456 113.592C70.6923 113.539 70.639 113.459 70.5856 113.352C70.4256 112.925 70.2123 112.627 69.9456 112.456C69.6896 112.275 69.359 112.184 68.9536 112.184C68.4203 112.184 67.9936 112.355 67.6736 112.696C67.3643 113.027 67.199 113.555 67.1776 114.28C67.1563 114.685 67.1563 115.059 67.1776 115.4C67.199 116.136 67.3643 116.669 67.6736 117C67.9936 117.331 68.4203 117.496 68.9536 117.496C69.3696 117.496 69.7056 117.411 69.9616 117.24C70.2176 117.059 70.4256 116.755 70.5856 116.328C70.639 116.221 70.6923 116.141 70.7456 116.088C70.8096 116.035 70.895 116.008 71.0016 116.008H72.4096C72.5163 116.008 72.607 116.045 72.6816 116.12C72.767 116.184 72.8043 116.275 72.7936 116.392C72.783 116.584 72.7296 116.803 72.6336 117.048C72.5483 117.283 72.4043 117.528 72.2016 117.784C72.0096 118.029 71.7643 118.259 71.4656 118.472C71.167 118.675 70.8043 118.84 70.3776 118.968C69.9616 119.096 69.4763 119.16 68.9216 119.16ZM74.8623 119C74.7556 119 74.6649 118.963 74.5903 118.888C74.5156 118.813 74.4783 118.723 74.4783 118.616V108.024C74.4783 107.917 74.5156 107.827 74.5903 107.752C74.6649 107.677 74.7556 107.64 74.8623 107.64H76.1583C76.2756 107.64 76.3663 107.677 76.4303 107.752C76.5049 107.827 76.5423 107.917 76.5423 108.024V113.496L79.2303 110.952C79.3263 110.867 79.4116 110.803 79.4863 110.76C79.5609 110.707 79.6729 110.68 79.8223 110.68H81.3103C81.4169 110.68 81.5023 110.712 81.5663 110.776C81.6303 110.84 81.6623 110.925 81.6623 111.032C81.6623 111.075 81.6516 111.123 81.6302 111.176C81.6089 111.229 81.5663 111.277 81.5023 111.32L78.2063 114.408L81.9023 118.376C82.0089 118.483 82.0623 118.573 82.0623 118.648C82.0623 118.755 82.0249 118.84 81.9503 118.904C81.8863 118.968 81.8063 119 81.7103 119H80.1903C80.0303 119 79.9129 118.979 79.8383 118.936C79.7743 118.883 79.6943 118.813 79.5983 118.728L76.5423 115.512V118.616C76.5423 118.723 76.5049 118.813 76.4303 118.888C76.3663 118.963 76.2756 119 76.1583 119H74.8623ZM86.4525 119.16C85.2685 119.16 84.3298 118.819 83.6365 118.136C82.9432 117.453 82.5698 116.483 82.5165 115.224C82.5058 115.117 82.5005 114.984 82.5005 114.824C82.5005 114.653 82.5058 114.52 82.5165 114.424C82.5592 113.624 82.7405 112.931 83.0605 112.344C83.3912 111.757 83.8445 111.309 84.4205 111C84.9965 110.68 85.6738 110.52 86.4525 110.52C87.3165 110.52 88.0418 110.701 88.6285 111.064C89.2152 111.416 89.6578 111.912 89.9565 112.552C90.2552 113.181 90.4045 113.912 90.4045 114.744V115.08C90.4045 115.187 90.3672 115.277 90.2925 115.352C90.2178 115.427 90.1218 115.464 90.0045 115.464H84.6925C84.6925 115.464 84.6925 115.48 84.6925 115.512C84.6925 115.544 84.6925 115.571 84.6925 115.592C84.7032 115.965 84.7725 116.312 84.9005 116.632C85.0392 116.941 85.2365 117.192 85.4925 117.384C85.7592 117.576 86.0738 117.672 86.4365 117.672C86.7352 117.672 86.9858 117.629 87.1885 117.544C87.3912 117.448 87.5565 117.341 87.6845 117.224C87.8125 117.107 87.9032 117.011 87.9565 116.936C88.0525 116.808 88.1272 116.733 88.1805 116.712C88.2445 116.68 88.3352 116.664 88.4525 116.664H89.8285C89.9352 116.664 90.0205 116.696 90.0845 116.76C90.1592 116.824 90.1912 116.904 90.1805 117C90.1698 117.171 90.0792 117.379 89.9085 117.624C89.7485 117.869 89.5138 118.109 89.2045 118.344C88.8952 118.579 88.5058 118.776 88.0365 118.936C87.5778 119.085 87.0498 119.16 86.4525 119.16ZM84.6925 114.12H88.2285V114.072C88.2285 113.656 88.1592 113.293 88.0205 112.984C87.8818 112.675 87.6792 112.429 87.4125 112.248C87.1458 112.067 86.8258 111.976 86.4525 111.976C86.0792 111.976 85.7592 112.067 85.4925 112.248C85.2258 112.429 85.0232 112.675 84.8845 112.984C84.7565 113.293 84.6925 113.656 84.6925 114.072V114.12ZM92.4869 119C92.3802 119 92.2895 118.963 92.2149 118.888C92.1402 118.813 92.1029 118.723 92.1029 118.616V111.064C92.1029 110.957 92.1402 110.867 92.2149 110.792C92.2895 110.717 92.3802 110.68 92.4869 110.68H93.7989C93.9055 110.68 93.9962 110.717 94.0709 110.792C94.1455 110.867 94.1829 110.957 94.1829 111.064V111.72C94.4602 111.379 94.8122 111.096 95.2389 110.872C95.6762 110.637 96.2149 110.52 96.8549 110.52C97.5055 110.52 98.0709 110.669 98.5509 110.968C99.0309 111.256 99.3989 111.667 99.6549 112.2C99.9215 112.733 100.055 113.373 100.055 114.12V118.616C100.055 118.723 100.018 118.813 99.9429 118.888C99.8682 118.963 99.7775 119 99.6709 119H98.2629C98.1562 119 98.0655 118.963 97.9909 118.888C97.9162 118.813 97.8789 118.723 97.8789 118.616V114.216C97.8789 113.597 97.7242 113.112 97.4149 112.76C97.1162 112.408 96.6789 112.232 96.1029 112.232C95.5482 112.232 95.1055 112.408 94.7749 112.76C94.4442 113.112 94.2789 113.597 94.2789 114.216V118.616C94.2789 118.723 94.2415 118.813 94.1669 118.888C94.0922 118.963 94.0015 119 93.8949 119H92.4869ZM105.175 119.16C104.621 119.16 104.13 119.069 103.703 118.888C103.287 118.696 102.941 118.429 102.663 118.088C102.386 117.747 102.173 117.347 102.023 116.888C101.874 116.419 101.789 115.907 101.767 115.352C101.757 115.16 101.751 114.989 101.751 114.84C101.751 114.68 101.757 114.504 101.767 114.312C101.789 113.779 101.869 113.283 102.007 112.824C102.157 112.365 102.37 111.965 102.647 111.624C102.935 111.272 103.287 111 103.703 110.808C104.13 110.616 104.621 110.52 105.175 110.52C105.751 110.52 106.237 110.621 106.631 110.824C107.037 111.016 107.373 111.267 107.639 111.576V108.024C107.639 107.917 107.671 107.827 107.735 107.752C107.81 107.677 107.906 107.64 108.023 107.64H109.383C109.49 107.64 109.581 107.677 109.655 107.752C109.73 107.827 109.767 107.917 109.767 108.024V118.616C109.767 118.723 109.73 118.813 109.655 118.888C109.581 118.963 109.49 119 109.383 119H108.119C108.002 119 107.906 118.963 107.831 118.888C107.767 118.813 107.735 118.723 107.735 118.616V118.024C107.469 118.355 107.127 118.627 106.711 118.84C106.306 119.053 105.794 119.16 105.175 119.16ZM105.767 117.448C106.215 117.448 106.573 117.347 106.839 117.144C107.106 116.941 107.303 116.685 107.431 116.376C107.559 116.056 107.629 115.731 107.639 115.4C107.65 115.208 107.655 115.005 107.655 114.792C107.655 114.568 107.65 114.36 107.639 114.168C107.629 113.848 107.554 113.544 107.415 113.256C107.277 112.957 107.074 112.712 106.807 112.52C106.541 112.328 106.194 112.232 105.767 112.232C105.319 112.232 104.962 112.333 104.695 112.536C104.439 112.728 104.253 112.984 104.135 113.304C104.018 113.624 103.949 113.976 103.927 114.36C103.917 114.68 103.917 115 103.927 115.32C103.949 115.704 104.018 116.056 104.135 116.376C104.253 116.696 104.439 116.957 104.695 117.16C104.962 117.352 105.319 117.448 105.767 117.448Z" fill="#5A5A5A"/>
<rect x="206" y="258" width="48" height="48" rx="16" fill="#FF5B79"/>
<path d="M230 281.969C228.625 281.969 227.5 281.531 226.625 280.656C225.75 279.781 225.312 278.656 225.312 277.281C225.312 275.906 225.75 274.781 226.625 273.906C227.5 273.031 228.625 272.594 230 272.594C231.375 272.594 232.5 273.031 233.375 273.906C234.25 274.781 234.687 275.906 234.687 277.281C234.687 278.656 234.25 279.781 233.375 280.656C232.5 281.531 231.375 281.969 230 281.969ZM220 292V289.062C220 288.271 220.198 287.594 220.594 287.031C220.99 286.469 221.5 286.042 222.125 285.75C223.521 285.125 224.859 284.656 226.141 284.344C227.422 284.031 228.708 283.875 230 283.875C231.292 283.875 232.573 284.036 233.844 284.359C235.115 284.682 236.448 285.146 237.844 285.75C238.49 286.042 239.01 286.469 239.406 287.031C239.802 287.594 240 288.271 240 289.062V292H220Z" fill="white"/>
<rect x="1" width="48" height="48" rx="16" fill="#616161"/>
<path d="M30.8437 35.25L30.5312 33.1875C30.1771 33.0833 29.8177 32.9323 29.4531 32.7344C29.0885 32.5365 28.7812 32.3125 28.5312 32.0625L26.8125 32.4375L26.0312 31.125L27.5 29.75C27.4583 29.5625 27.4375 29.3021 27.4375 28.9688C27.4375 28.6354 27.4583 28.375 27.5 28.1875L26.0312 26.8125L26.8125 25.5L28.5312 25.875C28.7812 25.625 29.0885 25.401 29.4531 25.2031C29.8177 25.0052 30.1771 24.8542 30.5312 24.75L30.8437 22.6875H32.5312L32.8437 24.75C33.1979 24.8542 33.5573 25.0052 33.9219 25.2031C34.2865 25.401 34.5937 25.625 34.8438 25.875L36.5625 25.5L37.3438 26.8125L35.875 28.1875C35.9167 28.375 35.9375 28.6354 35.9375 28.9688C35.9375 29.3021 35.9167 29.5625 35.875 29.75L37.3438 31.125L36.5625 32.4375L34.8438 32.0625C34.5937 32.3125 34.2865 32.5365 33.9219 32.7344C33.5573 32.9323 33.1979 33.0833 32.8437 33.1875L32.5312 35.25H30.8437ZM12.5 33.875V30.9375C12.5 30.2083 12.6823 29.5521 13.0469 28.9688C13.4115 28.3854 13.9375 27.9375 14.625 27.625C16.125 26.9583 17.5156 26.4792 18.7969 26.1875C20.0781 25.8958 21.3125 25.75 22.5 25.75H23.2187C22.7812 26.8125 22.5833 28.2135 22.625 29.9531C22.6667 31.6927 23.0208 33 23.6875 33.875H12.5ZM31.6875 31.4688C32.4375 31.4688 33.0417 31.2396 33.5 30.7812C33.9583 30.3229 34.1875 29.7188 34.1875 28.9688C34.1875 28.2188 33.9583 27.6146 33.5 27.1562C33.0417 26.6979 32.4375 26.4688 31.6875 26.4688C30.9375 26.4688 30.3333 26.6979 29.875 27.1562C29.4167 27.6146 29.1875 28.2188 29.1875 28.9688C29.1875 29.7188 29.4167 30.3229 29.875 30.7812C30.3333 31.2396 30.9375 31.4688 31.6875 31.4688ZM22.5 23.8438C21.125 23.8438 20 23.4062 19.125 22.5312C18.25 21.6562 17.8125 20.5313 17.8125 19.1562C17.8125 17.7812 18.25 16.6563 19.125 15.7813C20 14.9063 21.125 14.4688 22.5 14.4688C23.875 14.4688 25 14.9063 25.875 15.7813C26.75 16.6563 27.1875 17.7812 27.1875 19.1562C27.1875 20.5313 26.75 21.6562 25.875 22.5312C25 23.4062 23.875 23.8438 22.5 23.8438Z" fill="white"/>
</svg>
