<svg width="427" height="184" viewBox="0 0 427 184" fill="none" xmlns="http://www.w3.org/2000/svg">
<g clip-path="url(#clip0_856_572)">
<line x1="78" y1="48" x2="78" y2="132" stroke="#858585" stroke-opacity="0.48" stroke-width="2"/>
<line x1="153" y1="23" x2="381" y2="23" stroke="#858585" stroke-opacity="0.48" stroke-width="2"/>
<line x1="154.427" y1="131.181" x2="194.427" y2="103.181" stroke="#858585" stroke-opacity="0.48" stroke-width="2"/>
<line x1="154.583" y1="131.188" x2="193.583" y2="159.188" stroke="#858585" stroke-opacity="0.48" stroke-width="2"/>
<line x1="380.573" y1="132.819" x2="340.573" y2="160.819" stroke="#858585" stroke-opacity="0.48" stroke-width="2"/>
<line x1="380.417" y1="132.812" x2="341.417" y2="104.812" stroke="#858585" stroke-opacity="0.48" stroke-width="2"/>
<rect width="153" height="48" rx="16" fill="#0070F4"/>
<path d="M45.9992 29C45.8925 29 45.8019 28.9627 45.7272 28.888C45.6525 28.8133 45.6152 28.7227 45.6152 28.616V18.2C45.6152 18.0827 45.6525 17.9867 45.7272 17.912C45.8019 17.8373 45.8925 17.8 45.9992 17.8H52.9432C53.0605 17.8 53.1565 17.8373 53.2312 17.912C53.3059 17.9867 53.3432 18.0827 53.3432 18.2V19.32C53.3432 19.4373 53.3059 19.5333 53.2312 19.608C53.1565 19.672 53.0605 19.704 52.9432 19.704H47.8072V22.744H52.6232C52.7405 22.744 52.8365 22.7813 52.9112 22.856C52.9859 22.9307 53.0232 23.0267 53.0232 23.144V24.264C53.0232 24.3707 52.9859 24.4613 52.9112 24.536C52.8365 24.6107 52.7405 24.648 52.6232 24.648H47.8072V28.616C47.8072 28.7227 47.7699 28.8133 47.6952 28.888C47.6205 28.9627 47.5245 29 47.4072 29H45.9992ZM55.5572 29C55.4505 29 55.3599 28.9627 55.2852 28.888C55.2105 28.8133 55.1732 28.7227 55.1732 28.616V21.064C55.1732 20.9573 55.2105 20.8667 55.2852 20.792C55.3599 20.7173 55.4505 20.68 55.5572 20.68H56.8852C57.0025 20.68 57.0932 20.7173 57.1572 20.792C57.2319 20.8667 57.2692 20.9573 57.2692 21.064V28.616C57.2692 28.7227 57.2319 28.8133 57.1572 28.888C57.0932 28.9627 57.0025 29 56.8852 29H55.5572ZM55.4932 19.304C55.3759 19.304 55.2799 19.272 55.2052 19.208C55.1412 19.1333 55.1092 19.0373 55.1092 18.92V17.768C55.1092 17.6613 55.1412 17.5707 55.2052 17.496C55.2799 17.4213 55.3759 17.384 55.4932 17.384H56.9492C57.0665 17.384 57.1625 17.4213 57.2372 17.496C57.3119 17.5707 57.3492 17.6613 57.3492 17.768V18.92C57.3492 19.0373 57.3119 19.1333 57.2372 19.208C57.1625 19.272 57.0665 19.304 56.9492 19.304H55.4932ZM60.1041 29C59.9974 29 59.9067 28.9627 59.8321 28.888C59.7574 28.8133 59.7201 28.7227 59.7201 28.616V21.08C59.7201 20.9627 59.7574 20.8667 59.8321 20.792C59.9067 20.7173 59.9974 20.68 60.1041 20.68H61.4001C61.5067 20.68 61.5974 20.7173 61.6721 20.792C61.7574 20.8667 61.8001 20.9627 61.8001 21.08V21.736C62.0454 21.3947 62.3601 21.1333 62.7441 20.952C63.1387 20.7707 63.5921 20.68 64.1041 20.68H64.7601C64.8774 20.68 64.9681 20.7173 65.0321 20.792C65.1067 20.8667 65.1441 20.9573 65.1441 21.064V22.216C65.1441 22.3227 65.1067 22.4133 65.0321 22.488C64.9681 22.5627 64.8774 22.6 64.7601 22.6H63.5121C63.0001 22.6 62.6001 22.744 62.3121 23.032C62.0347 23.32 61.8961 23.7147 61.8961 24.216V28.616C61.8961 28.7227 61.8587 28.8133 61.7841 28.888C61.7094 28.9627 61.6134 29 61.4961 29H60.1041ZM69.8666 29.16C68.6826 29.16 67.7439 28.8187 67.0506 28.136C66.3572 27.4533 65.9839 26.4827 65.9306 25.224C65.9199 25.1173 65.9146 24.984 65.9146 24.824C65.9146 24.6533 65.9199 24.52 65.9306 24.424C65.9732 23.624 66.1546 22.9307 66.4746 22.344C66.8052 21.7573 67.2586 21.3093 67.8346 21C68.4106 20.68 69.0879 20.52 69.8666 20.52C70.7306 20.52 71.4559 20.7013 72.0426 21.064C72.6292 21.416 73.0719 21.912 73.3706 22.552C73.6692 23.1813 73.8186 23.912 73.8186 24.744V25.08C73.8186 25.1867 73.7812 25.2773 73.7066 25.352C73.6319 25.4267 73.5359 25.464 73.4186 25.464H68.1066C68.1066 25.464 68.1066 25.48 68.1066 25.512C68.1066 25.544 68.1066 25.5707 68.1066 25.592C68.1172 25.9653 68.1866 26.312 68.3146 26.632C68.4532 26.9413 68.6506 27.192 68.9066 27.384C69.1732 27.576 69.4879 27.672 69.8506 27.672C70.1492 27.672 70.3999 27.6293 70.6026 27.544C70.8052 27.448 70.9706 27.3413 71.0986 27.224C71.2266 27.1067 71.3172 27.0107 71.3706 26.936C71.4666 26.808 71.5412 26.7333 71.5946 26.712C71.6586 26.68 71.7492 26.664 71.8666 26.664H73.2426C73.3492 26.664 73.4346 26.696 73.4986 26.76C73.5732 26.824 73.6052 26.904 73.5946 27C73.5839 27.1707 73.4932 27.3787 73.3226 27.624C73.1626 27.8693 72.9279 28.1093 72.6186 28.344C72.3092 28.5787 71.9199 28.776 71.4506 28.936C70.9919 29.0853 70.4639 29.16 69.8666 29.16ZM68.1066 24.12H71.6426V24.072C71.6426 23.656 71.5732 23.2933 71.4346 22.984C71.2959 22.6747 71.0932 22.4293 70.8266 22.248C70.5599 22.0667 70.2399 21.976 69.8666 21.976C69.4932 21.976 69.1732 22.0667 68.9066 22.248C68.6399 22.4293 68.4372 22.6747 68.2986 22.984C68.1706 23.2933 68.1066 23.656 68.1066 24.072V24.12ZM80.0289 29.16C79.0369 29.16 78.1943 28.9893 77.5009 28.648C76.8183 28.296 76.2956 27.8 75.9329 27.16C75.5703 26.5093 75.3676 25.7307 75.3249 24.824C75.3143 24.3867 75.3089 23.9173 75.3089 23.416C75.3089 22.9147 75.3143 22.4347 75.3249 21.976C75.3676 21.08 75.5703 20.3067 75.9329 19.656C76.3063 19.0053 76.8343 18.5093 77.5169 18.168C78.2103 17.816 79.0476 17.64 80.0289 17.64C80.7543 17.64 81.4049 17.736 81.9809 17.928C82.5569 18.12 83.0476 18.3867 83.4529 18.728C83.8583 19.0587 84.1729 19.448 84.3969 19.896C84.6209 20.344 84.7383 20.8293 84.7489 21.352C84.7596 21.448 84.7276 21.528 84.6529 21.592C84.5889 21.656 84.5089 21.688 84.4129 21.688H82.8929C82.7756 21.688 82.6796 21.6613 82.6049 21.608C82.5303 21.544 82.4769 21.4427 82.4449 21.304C82.2743 20.6 81.9809 20.12 81.5649 19.864C81.1489 19.608 80.6316 19.48 80.0129 19.48C79.2983 19.48 78.7276 19.6827 78.3009 20.088C77.8743 20.4827 77.6449 21.1387 77.6129 22.056C77.5809 22.9307 77.5809 23.8267 77.6129 24.744C77.6449 25.6613 77.8743 26.3227 78.3009 26.728C78.7276 27.1227 79.2983 27.32 80.0129 27.32C80.6316 27.32 81.1489 27.192 81.5649 26.936C81.9809 26.6693 82.2743 26.1893 82.4449 25.496C82.4769 25.3467 82.5303 25.2453 82.6049 25.192C82.6796 25.1387 82.7756 25.112 82.8929 25.112H84.4129C84.5089 25.112 84.5889 25.144 84.6529 25.208C84.7276 25.272 84.7596 25.352 84.7489 25.448C84.7383 25.9707 84.6209 26.456 84.3969 26.904C84.1729 27.352 83.8583 27.7467 83.4529 28.088C83.0476 28.4187 82.5569 28.68 81.9809 28.872C81.4049 29.064 80.7543 29.16 80.0289 29.16ZM87.0464 29C86.9291 29 86.8331 28.9627 86.7584 28.888C86.6838 28.8133 86.6464 28.7227 86.6464 28.616V18.2C86.6464 18.0827 86.6838 17.9867 86.7584 17.912C86.8331 17.8373 86.9291 17.8 87.0464 17.8H88.3104C88.4598 17.8 88.5718 17.8427 88.6464 17.928C88.7211 18.0027 88.7691 18.0613 88.7904 18.104L91.8784 23.864L94.9984 18.104C95.0198 18.0613 95.0678 18.0027 95.1424 17.928C95.2171 17.8427 95.3291 17.8 95.4784 17.8H96.7264C96.8438 17.8 96.9398 17.8373 97.0144 17.912C97.0891 17.9867 97.1264 18.0827 97.1264 18.2V28.616C97.1264 28.7227 97.0891 28.8133 97.0144 28.888C96.9398 28.9627 96.8438 29 96.7264 29H95.3824C95.2651 29 95.1691 28.9627 95.0944 28.888C95.0304 28.8133 94.9984 28.7227 94.9984 28.616V21.688L92.7584 25.96C92.7051 26.056 92.6358 26.1413 92.5504 26.216C92.4651 26.28 92.3531 26.312 92.2144 26.312H91.5584C91.4091 26.312 91.2918 26.28 91.2064 26.216C91.1318 26.1413 91.0678 26.056 91.0144 25.96L88.7744 21.688V28.616C88.7744 28.7227 88.7371 28.8133 88.6624 28.888C88.5878 28.9627 88.4971 29 88.3904 29H87.0464ZM103.503 29.16C102.511 29.16 101.679 29.016 101.007 28.728C100.346 28.4293 99.8392 28.0453 99.4872 27.576C99.1459 27.096 98.9645 26.5947 98.9432 26.072C98.9432 25.976 98.9752 25.896 99.0392 25.832C99.1032 25.768 99.1832 25.736 99.2792 25.736H100.703C100.842 25.736 100.943 25.768 101.007 25.832C101.082 25.8853 101.146 25.9547 101.199 26.04C101.263 26.2427 101.386 26.4453 101.567 26.648C101.749 26.84 101.994 27 102.303 27.128C102.623 27.256 103.023 27.32 103.503 27.32C104.271 27.32 104.842 27.192 105.215 26.936C105.599 26.68 105.791 26.3333 105.791 25.896C105.791 25.5867 105.69 25.3413 105.487 25.16C105.285 24.968 104.97 24.7973 104.543 24.648C104.127 24.488 103.573 24.3227 102.879 24.152C102.079 23.96 101.407 23.7307 100.863 23.464C100.33 23.1867 99.9245 22.84 99.6472 22.424C99.3805 22.008 99.2472 21.48 99.2472 20.84C99.2472 20.2213 99.4125 19.672 99.7432 19.192C100.085 18.712 100.565 18.3333 101.183 18.056C101.813 17.7787 102.559 17.64 103.423 17.64C104.117 17.64 104.73 17.736 105.263 17.928C105.797 18.1093 106.239 18.3547 106.591 18.664C106.943 18.9627 107.21 19.288 107.391 19.64C107.583 19.9813 107.685 20.3173 107.695 20.648C107.695 20.7333 107.663 20.8133 107.599 20.888C107.546 20.952 107.466 20.984 107.359 20.984H105.871C105.786 20.984 105.701 20.9627 105.615 20.92C105.53 20.8773 105.461 20.7973 105.407 20.68C105.343 20.3493 105.135 20.0667 104.783 19.832C104.431 19.5973 103.978 19.48 103.423 19.48C102.847 19.48 102.383 19.5867 102.031 19.8C101.679 20.0133 101.503 20.344 101.503 20.792C101.503 21.0907 101.589 21.3413 101.759 21.544C101.941 21.736 102.223 21.9067 102.607 22.056C103.002 22.2053 103.519 22.3653 104.159 22.536C105.066 22.7387 105.807 22.9733 106.383 23.24C106.959 23.5067 107.381 23.848 107.647 24.264C107.914 24.6693 108.047 25.1867 108.047 25.816C108.047 26.52 107.855 27.1227 107.471 27.624C107.098 28.1147 106.57 28.4933 105.887 28.76C105.205 29.0267 104.41 29.16 103.503 29.16Z" fill="white"/>
<rect y="108" width="155" height="48" rx="16" fill="#FFA000"/>
<path d="M45.7336 137C45.6269 137 45.5362 136.963 45.4616 136.888C45.3869 136.813 45.3496 136.723 45.3496 136.616V126.2C45.3496 126.083 45.3869 125.987 45.4616 125.912C45.5362 125.837 45.6269 125.8 45.7336 125.8H52.6776C52.7949 125.8 52.8909 125.837 52.9656 125.912C53.0402 125.987 53.0776 126.083 53.0776 126.2V127.32C53.0776 127.437 53.0402 127.533 52.9656 127.608C52.8909 127.672 52.7949 127.704 52.6776 127.704H47.5416V130.744H52.3576C52.4749 130.744 52.5709 130.781 52.6456 130.856C52.7202 130.931 52.7576 131.027 52.7576 131.144V132.264C52.7576 132.371 52.7202 132.461 52.6456 132.536C52.5709 132.611 52.4749 132.648 52.3576 132.648H47.5416V136.616C47.5416 136.723 47.5042 136.813 47.4296 136.888C47.3549 136.963 47.2589 137 47.1416 137H45.7336ZM55.2916 137C55.1849 137 55.0942 136.963 55.0196 136.888C54.9449 136.813 54.9076 136.723 54.9076 136.616V129.064C54.9076 128.957 54.9449 128.867 55.0196 128.792C55.0942 128.717 55.1849 128.68 55.2916 128.68H56.6196C56.7369 128.68 56.8276 128.717 56.8916 128.792C56.9662 128.867 57.0036 128.957 57.0036 129.064V136.616C57.0036 136.723 56.9662 136.813 56.8916 136.888C56.8276 136.963 56.7369 137 56.6196 137H55.2916ZM55.2276 127.304C55.1102 127.304 55.0142 127.272 54.9396 127.208C54.8756 127.133 54.8436 127.037 54.8436 126.92V125.768C54.8436 125.661 54.8756 125.571 54.9396 125.496C55.0142 125.421 55.1102 125.384 55.2276 125.384H56.6836C56.8009 125.384 56.8969 125.421 56.9716 125.496C57.0462 125.571 57.0836 125.661 57.0836 125.768V126.92C57.0836 127.037 57.0462 127.133 56.9716 127.208C56.8969 127.272 56.8009 127.304 56.6836 127.304H55.2276ZM59.8384 137C59.7318 137 59.6411 136.963 59.5664 136.888C59.4918 136.813 59.4544 136.723 59.4544 136.616V129.08C59.4544 128.963 59.4918 128.867 59.5664 128.792C59.6411 128.717 59.7318 128.68 59.8384 128.68H61.1344C61.2411 128.68 61.3318 128.717 61.4064 128.792C61.4918 128.867 61.5344 128.963 61.5344 129.08V129.736C61.7798 129.395 62.0944 129.133 62.4784 128.952C62.8731 128.771 63.3264 128.68 63.8384 128.68H64.4944C64.6118 128.68 64.7024 128.717 64.7664 128.792C64.8411 128.867 64.8784 128.957 64.8784 129.064V130.216C64.8784 130.323 64.8411 130.413 64.7664 130.488C64.7024 130.563 64.6118 130.6 64.4944 130.6H63.2464C62.7344 130.6 62.3344 130.744 62.0464 131.032C61.7691 131.32 61.6304 131.715 61.6304 132.216V136.616C61.6304 136.723 61.5931 136.813 61.5184 136.888C61.4438 136.963 61.3478 137 61.2304 137H59.8384ZM69.6009 137.16C68.4169 137.16 67.4783 136.819 66.7849 136.136C66.0916 135.453 65.7183 134.483 65.6649 133.224C65.6543 133.117 65.6489 132.984 65.6489 132.824C65.6489 132.653 65.6543 132.52 65.6649 132.424C65.7076 131.624 65.8889 130.931 66.2089 130.344C66.5396 129.757 66.9929 129.309 67.5689 129C68.1449 128.68 68.8223 128.52 69.6009 128.52C70.4649 128.52 71.1903 128.701 71.7769 129.064C72.3636 129.416 72.8063 129.912 73.1049 130.552C73.4036 131.181 73.5529 131.912 73.5529 132.744V133.08C73.5529 133.187 73.5156 133.277 73.4409 133.352C73.3663 133.427 73.2703 133.464 73.1529 133.464H67.8409C67.8409 133.464 67.8409 133.48 67.8409 133.512C67.8409 133.544 67.8409 133.571 67.8409 133.592C67.8516 133.965 67.9209 134.312 68.0489 134.632C68.1876 134.941 68.3849 135.192 68.6409 135.384C68.9076 135.576 69.2223 135.672 69.5849 135.672C69.8836 135.672 70.1343 135.629 70.3369 135.544C70.5396 135.448 70.7049 135.341 70.8329 135.224C70.9609 135.107 71.0516 135.011 71.1049 134.936C71.2009 134.808 71.2756 134.733 71.3289 134.712C71.3929 134.68 71.4836 134.664 71.6009 134.664H72.9769C73.0836 134.664 73.1689 134.696 73.2329 134.76C73.3076 134.824 73.3396 134.904 73.3289 135C73.3183 135.171 73.2276 135.379 73.0569 135.624C72.8969 135.869 72.6623 136.109 72.3529 136.344C72.0436 136.579 71.6543 136.776 71.1849 136.936C70.7263 137.085 70.1983 137.16 69.6009 137.16ZM67.8409 132.12H71.3769V132.072C71.3769 131.656 71.3076 131.293 71.1689 130.984C71.0303 130.675 70.8276 130.429 70.5609 130.248C70.2943 130.067 69.9743 129.976 69.6009 129.976C69.2276 129.976 68.9076 130.067 68.6409 130.248C68.3743 130.429 68.1716 130.675 68.0329 130.984C67.9049 131.293 67.8409 131.656 67.8409 132.072V132.12ZM79.8593 137.16C79.2406 137.16 78.7233 137.053 78.3073 136.84C77.902 136.627 77.566 136.355 77.2993 136.024V136.616C77.2993 136.723 77.262 136.813 77.1873 136.888C77.1233 136.963 77.0326 137 76.9153 137H75.6513C75.5446 137 75.454 136.963 75.3793 136.888C75.3046 136.813 75.2673 136.723 75.2673 136.616V126.024C75.2673 125.917 75.3046 125.827 75.3793 125.752C75.454 125.677 75.5446 125.64 75.6513 125.64H77.0113C77.1286 125.64 77.2193 125.677 77.2833 125.752C77.358 125.827 77.3953 125.917 77.3953 126.024V129.576C77.662 129.267 77.9926 129.016 78.3873 128.824C78.7926 128.621 79.2833 128.52 79.8593 128.52C80.4246 128.52 80.9153 128.616 81.3313 128.808C81.7473 129 82.094 129.272 82.3713 129.624C82.6593 129.965 82.878 130.365 83.0273 130.824C83.1766 131.283 83.2566 131.779 83.2673 132.312C83.278 132.504 83.2833 132.68 83.2833 132.84C83.2833 132.989 83.278 133.16 83.2673 133.352C83.246 133.907 83.1606 134.419 83.0113 134.888C82.862 135.347 82.6486 135.747 82.3713 136.088C82.094 136.429 81.7473 136.696 81.3313 136.888C80.9153 137.069 80.4246 137.16 79.8593 137.16ZM79.2673 135.448C79.726 135.448 80.0833 135.352 80.3393 135.16C80.5953 134.957 80.7766 134.696 80.8833 134.376C81.0006 134.056 81.07 133.704 81.0913 133.32C81.1126 133 81.1126 132.68 81.0913 132.36C81.07 131.976 81.0006 131.624 80.8833 131.304C80.7766 130.984 80.5953 130.728 80.3393 130.536C80.0833 130.333 79.726 130.232 79.2673 130.232C78.8406 130.232 78.494 130.328 78.2273 130.52C77.9606 130.712 77.758 130.957 77.6193 131.256C77.4806 131.544 77.406 131.848 77.3953 132.168C77.3846 132.36 77.3793 132.568 77.3793 132.792C77.3793 133.005 77.3846 133.208 77.3953 133.4C77.4166 133.731 77.486 134.056 77.6033 134.376C77.7313 134.685 77.9286 134.941 78.1953 135.144C78.4726 135.347 78.83 135.448 79.2673 135.448ZM87.4798 137.16C86.9251 137.16 86.4238 137.053 85.9758 136.84C85.5278 136.616 85.1705 136.323 84.9038 135.96C84.6478 135.587 84.5198 135.171 84.5198 134.712C84.5198 133.965 84.8185 133.373 85.4158 132.936C86.0238 132.488 86.8238 132.189 87.8158 132.04L90.0078 131.72V131.384C90.0078 130.936 89.8958 130.589 89.6718 130.344C89.4478 130.099 89.0638 129.976 88.5198 129.976C88.1358 129.976 87.8211 130.056 87.5758 130.216C87.3411 130.365 87.1651 130.568 87.0478 130.824C86.9625 130.963 86.8398 131.032 86.6798 131.032H85.4158C85.2985 131.032 85.2078 131 85.1438 130.936C85.0905 130.872 85.0638 130.787 85.0638 130.68C85.0745 130.509 85.1438 130.301 85.2718 130.056C85.3998 129.811 85.6025 129.576 85.8798 129.352C86.1571 129.117 86.5145 128.92 86.9518 128.76C87.3891 128.6 87.9171 128.52 88.5358 128.52C89.2078 128.52 89.7731 128.605 90.2318 128.776C90.7011 128.936 91.0745 129.155 91.3518 129.432C91.6291 129.709 91.8318 130.035 91.9598 130.408C92.0878 130.781 92.1518 131.176 92.1518 131.592V136.616C92.1518 136.723 92.1145 136.813 92.0398 136.888C91.9651 136.963 91.8745 137 91.7678 137H90.4718C90.3545 137 90.2585 136.963 90.1838 136.888C90.1198 136.813 90.0878 136.723 90.0878 136.616V135.992C89.9491 136.195 89.7625 136.387 89.5278 136.568C89.2931 136.739 89.0051 136.883 88.6638 137C88.3331 137.107 87.9385 137.16 87.4798 137.16ZM88.0238 135.64C88.3971 135.64 88.7331 135.56 89.0318 135.4C89.3411 135.24 89.5811 134.995 89.7518 134.664C89.9331 134.323 90.0238 133.896 90.0238 133.384V133.048L88.4238 133.304C87.7945 133.4 87.3251 133.555 87.0158 133.768C86.7065 133.981 86.5518 134.243 86.5518 134.552C86.5518 134.787 86.6211 134.989 86.7598 135.16C86.9091 135.32 87.0958 135.443 87.3198 135.528C87.5438 135.603 87.7785 135.64 88.0238 135.64ZM97.3564 137.16C96.7164 137.16 96.1671 137.085 95.7084 136.936C95.2604 136.787 94.8924 136.6 94.6044 136.376C94.3164 136.152 94.1031 135.928 93.9644 135.704C93.8258 135.48 93.7511 135.293 93.7404 135.144C93.7298 135.027 93.7618 134.936 93.8364 134.872C93.9218 134.797 94.0124 134.76 94.1084 134.76H95.3724C95.4151 134.76 95.4524 134.765 95.4844 134.776C95.5164 134.787 95.5591 134.819 95.6124 134.872C95.7511 134.989 95.8951 135.112 96.0444 135.24C96.2044 135.368 96.3911 135.48 96.6044 135.576C96.8178 135.661 97.0844 135.704 97.4044 135.704C97.8204 135.704 98.1671 135.624 98.4444 135.464C98.7324 135.293 98.8764 135.053 98.8764 134.744C98.8764 134.52 98.8124 134.339 98.6844 134.2C98.5671 134.061 98.3431 133.939 98.0124 133.832C97.6818 133.715 97.2124 133.592 96.6044 133.464C96.0071 133.325 95.5111 133.149 95.1164 132.936C94.7218 132.723 94.4284 132.456 94.2364 132.136C94.0444 131.816 93.9484 131.443 93.9484 131.016C93.9484 130.6 94.0711 130.205 94.3164 129.832C94.5724 129.448 94.9458 129.133 95.4364 128.888C95.9378 128.643 96.5564 128.52 97.2924 128.52C97.8684 128.52 98.3698 128.595 98.7964 128.744C99.2231 128.883 99.5751 129.059 99.8524 129.272C100.14 129.485 100.359 129.704 100.508 129.928C100.658 130.141 100.738 130.328 100.748 130.488C100.759 130.605 100.727 130.701 100.652 130.776C100.578 130.84 100.492 130.872 100.396 130.872H99.2124C99.1591 130.872 99.1111 130.861 99.0684 130.84C99.0258 130.819 98.9831 130.792 98.9404 130.76C98.8231 130.653 98.6951 130.541 98.5564 130.424C98.4178 130.307 98.2471 130.205 98.0444 130.12C97.8524 130.024 97.5964 129.976 97.2764 129.976C96.8711 129.976 96.5618 130.067 96.3484 130.248C96.1351 130.419 96.0284 130.637 96.0284 130.904C96.0284 131.085 96.0764 131.245 96.1724 131.384C96.2791 131.512 96.4871 131.635 96.7964 131.752C97.1058 131.869 97.5751 131.992 98.2044 132.12C98.9191 132.248 99.4844 132.44 99.9004 132.696C100.327 132.941 100.626 133.229 100.796 133.56C100.978 133.88 101.068 134.237 101.068 134.632C101.068 135.112 100.924 135.544 100.636 135.928C100.359 136.312 99.9431 136.616 99.3884 136.84C98.8444 137.053 98.1671 137.16 97.3564 137.16ZM106.304 137.16C105.12 137.16 104.181 136.819 103.488 136.136C102.795 135.453 102.421 134.483 102.368 133.224C102.357 133.117 102.352 132.984 102.352 132.824C102.352 132.653 102.357 132.52 102.368 132.424C102.411 131.624 102.592 130.931 102.912 130.344C103.243 129.757 103.696 129.309 104.272 129C104.848 128.68 105.525 128.52 106.304 128.52C107.168 128.52 107.893 128.701 108.48 129.064C109.067 129.416 109.509 129.912 109.808 130.552C110.107 131.181 110.256 131.912 110.256 132.744V133.08C110.256 133.187 110.219 133.277 110.144 133.352C110.069 133.427 109.973 133.464 109.856 133.464H104.544C104.544 133.464 104.544 133.48 104.544 133.512C104.544 133.544 104.544 133.571 104.544 133.592C104.555 133.965 104.624 134.312 104.752 134.632C104.891 134.941 105.088 135.192 105.344 135.384C105.611 135.576 105.925 135.672 106.288 135.672C106.587 135.672 106.837 135.629 107.04 135.544C107.243 135.448 107.408 135.341 107.536 135.224C107.664 135.107 107.755 135.011 107.808 134.936C107.904 134.808 107.979 134.733 108.032 134.712C108.096 134.68 108.187 134.664 108.304 134.664H109.68C109.787 134.664 109.872 134.696 109.936 134.76C110.011 134.824 110.043 134.904 110.032 135C110.021 135.171 109.931 135.379 109.76 135.624C109.6 135.869 109.365 136.109 109.056 136.344C108.747 136.579 108.357 136.776 107.888 136.936C107.429 137.085 106.901 137.16 106.304 137.16ZM104.544 132.12H108.08V132.072C108.08 131.656 108.011 131.293 107.872 130.984C107.733 130.675 107.531 130.429 107.264 130.248C106.997 130.067 106.677 129.976 106.304 129.976C105.931 129.976 105.611 130.067 105.344 130.248C105.077 130.429 104.875 130.675 104.736 130.984C104.608 131.293 104.544 131.656 104.544 132.072V132.12Z" fill="white"/>
<rect x="193" y="136" width="149" height="48" rx="16" fill="#84D0F0"/>
<path d="M252.685 165C252.6 165 252.52 164.968 252.445 164.904C252.381 164.84 252.349 164.76 252.349 164.664C252.349 164.621 252.36 164.573 252.381 164.52L256.237 154.2C256.269 154.093 256.328 154.003 256.413 153.928C256.509 153.843 256.637 153.8 256.797 153.8H258.541C258.701 153.8 258.824 153.843 258.909 153.928C258.994 154.003 259.058 154.093 259.101 154.2L262.957 164.52C262.968 164.573 262.973 164.621 262.973 164.664C262.973 164.76 262.941 164.84 262.877 164.904C262.813 164.968 262.738 165 262.653 165H261.261C261.112 165 261 164.968 260.925 164.904C260.861 164.829 260.818 164.76 260.797 164.696L260.045 162.744H255.293L254.541 164.696C254.52 164.76 254.472 164.829 254.397 164.904C254.333 164.968 254.226 165 254.077 165H252.685ZM255.853 160.904H259.485L257.661 155.96L255.853 160.904ZM264.675 168.04C264.568 168.04 264.477 168.003 264.403 167.928C264.328 167.853 264.291 167.763 264.291 167.656V157.064C264.291 156.957 264.328 156.867 264.403 156.792C264.477 156.717 264.568 156.68 264.675 156.68H265.939C266.056 156.68 266.147 156.717 266.211 156.792C266.285 156.867 266.323 156.957 266.323 157.064V157.704C266.579 157.363 266.915 157.08 267.331 156.856C267.747 156.632 268.264 156.52 268.883 156.52C269.448 156.52 269.939 156.611 270.355 156.792C270.771 156.973 271.117 157.235 271.395 157.576C271.672 157.907 271.885 158.301 272.035 158.76C272.184 159.219 272.269 159.725 272.291 160.28C272.301 160.461 272.307 160.648 272.307 160.84C272.307 161.032 272.301 161.224 272.291 161.416C272.28 161.949 272.2 162.445 272.051 162.904C271.901 163.352 271.683 163.747 271.395 164.088C271.117 164.419 270.771 164.68 270.355 164.872C269.939 165.064 269.448 165.16 268.883 165.16C268.307 165.16 267.816 165.059 267.411 164.856C267.005 164.643 266.675 164.365 266.419 164.024V167.656C266.419 167.763 266.381 167.853 266.307 167.928C266.243 168.003 266.152 168.04 266.035 168.04H264.675ZM268.291 163.448C268.749 163.448 269.107 163.352 269.363 163.16C269.619 162.957 269.8 162.696 269.907 162.376C270.024 162.056 270.093 161.704 270.115 161.32C270.136 161 270.136 160.68 270.115 160.36C270.093 159.976 270.024 159.624 269.907 159.304C269.8 158.984 269.619 158.728 269.363 158.536C269.107 158.333 268.749 158.232 268.291 158.232C267.853 158.232 267.496 158.333 267.219 158.536C266.952 158.739 266.755 159 266.627 159.32C266.509 159.629 266.44 159.949 266.419 160.28C266.408 160.472 266.403 160.675 266.403 160.888C266.403 161.101 266.408 161.309 266.419 161.512C266.429 161.832 266.504 162.141 266.643 162.44C266.781 162.728 266.984 162.968 267.251 163.16C267.517 163.352 267.864 163.448 268.291 163.448ZM274.503 168.04C274.396 168.04 274.306 168.003 274.231 167.928C274.156 167.853 274.119 167.763 274.119 167.656V157.064C274.119 156.957 274.156 156.867 274.231 156.792C274.306 156.717 274.396 156.68 274.503 156.68H275.767C275.884 156.68 275.975 156.717 276.039 156.792C276.114 156.867 276.151 156.957 276.151 157.064V157.704C276.407 157.363 276.743 157.08 277.159 156.856C277.575 156.632 278.092 156.52 278.711 156.52C279.276 156.52 279.767 156.611 280.183 156.792C280.599 156.973 280.946 157.235 281.223 157.576C281.5 157.907 281.714 158.301 281.863 158.76C282.012 159.219 282.098 159.725 282.119 160.28C282.13 160.461 282.135 160.648 282.135 160.84C282.135 161.032 282.13 161.224 282.119 161.416C282.108 161.949 282.028 162.445 281.879 162.904C281.73 163.352 281.511 163.747 281.223 164.088C280.946 164.419 280.599 164.68 280.183 164.872C279.767 165.064 279.276 165.16 278.711 165.16C278.135 165.16 277.644 165.059 277.239 164.856C276.834 164.643 276.503 164.365 276.247 164.024V167.656C276.247 167.763 276.21 167.853 276.135 167.928C276.071 168.003 275.98 168.04 275.863 168.04H274.503ZM278.119 163.448C278.578 163.448 278.935 163.352 279.191 163.16C279.447 162.957 279.628 162.696 279.735 162.376C279.852 162.056 279.922 161.704 279.943 161.32C279.964 161 279.964 160.68 279.943 160.36C279.922 159.976 279.852 159.624 279.735 159.304C279.628 158.984 279.447 158.728 279.191 158.536C278.935 158.333 278.578 158.232 278.119 158.232C277.682 158.232 277.324 158.333 277.047 158.536C276.78 158.739 276.583 159 276.455 159.32C276.338 159.629 276.268 159.949 276.247 160.28C276.236 160.472 276.231 160.675 276.231 160.888C276.231 161.101 276.236 161.309 276.247 161.512C276.258 161.832 276.332 162.141 276.471 162.44C276.61 162.728 276.812 162.968 277.079 163.16C277.346 163.352 277.692 163.448 278.119 163.448Z" fill="white"/>
<rect x="193" y="80" width="149" height="48" rx="16" fill="#84D0F0"/>
<path d="M240.283 109C240.123 109 239.995 108.957 239.899 108.872C239.814 108.776 239.755 108.659 239.723 108.52L237.819 98.264C237.819 98.232 237.814 98.2053 237.803 98.184C237.803 98.1627 237.803 98.1467 237.803 98.136C237.803 98.04 237.835 97.96 237.899 97.896C237.974 97.832 238.054 97.8 238.139 97.8H239.547C239.814 97.8 239.963 97.9067 239.995 98.12L241.323 105.368L242.763 100.68C242.795 100.595 242.849 100.509 242.923 100.424C243.009 100.328 243.131 100.28 243.291 100.28H244.155C244.326 100.28 244.449 100.328 244.523 100.424C244.598 100.509 244.646 100.595 244.667 100.68L246.123 105.352L247.451 98.12C247.483 97.9067 247.633 97.8 247.899 97.8H249.307C249.393 97.8 249.467 97.832 249.531 97.896C249.595 97.96 249.627 98.04 249.627 98.136C249.627 98.1467 249.627 98.1627 249.627 98.184C249.627 98.2053 249.622 98.232 249.611 98.264L247.707 108.52C247.686 108.659 247.627 108.776 247.531 108.872C247.435 108.957 247.307 109 247.147 109H246.075C245.915 109 245.787 108.957 245.691 108.872C245.606 108.787 245.547 108.696 245.515 108.6L243.723 103.256L241.931 108.6C241.889 108.696 241.825 108.787 241.739 108.872C241.654 108.957 241.526 109 241.355 109H240.283ZM254.57 109.16C253.386 109.16 252.447 108.819 251.754 108.136C251.06 107.453 250.687 106.483 250.634 105.224C250.623 105.117 250.618 104.984 250.618 104.824C250.618 104.653 250.623 104.52 250.634 104.424C250.676 103.624 250.858 102.931 251.178 102.344C251.508 101.757 251.962 101.309 252.538 101C253.114 100.68 253.791 100.52 254.57 100.52C255.434 100.52 256.159 100.701 256.746 101.064C257.332 101.416 257.775 101.912 258.074 102.552C258.372 103.181 258.522 103.912 258.522 104.744V105.08C258.522 105.187 258.484 105.277 258.41 105.352C258.335 105.427 258.239 105.464 258.122 105.464H252.81C252.81 105.464 252.81 105.48 252.81 105.512C252.81 105.544 252.81 105.571 252.81 105.592C252.82 105.965 252.89 106.312 253.018 106.632C253.156 106.941 253.354 107.192 253.61 107.384C253.876 107.576 254.191 107.672 254.554 107.672C254.852 107.672 255.103 107.629 255.306 107.544C255.508 107.448 255.674 107.341 255.802 107.224C255.93 107.107 256.02 107.011 256.074 106.936C256.17 106.808 256.244 106.733 256.298 106.712C256.362 106.68 256.452 106.664 256.57 106.664H257.946C258.052 106.664 258.138 106.696 258.202 106.76C258.276 106.824 258.308 106.904 258.298 107C258.287 107.171 258.196 107.379 258.026 107.624C257.866 107.869 257.631 108.109 257.322 108.344C257.012 108.579 256.623 108.776 256.154 108.936C255.695 109.085 255.167 109.16 254.57 109.16ZM252.81 104.12H256.346V104.072C256.346 103.656 256.276 103.293 256.138 102.984C255.999 102.675 255.796 102.429 255.53 102.248C255.263 102.067 254.943 101.976 254.57 101.976C254.196 101.976 253.876 102.067 253.61 102.248C253.343 102.429 253.14 102.675 253.002 102.984C252.874 103.293 252.81 103.656 252.81 104.072V104.12ZM264.828 109.16C264.209 109.16 263.692 109.053 263.276 108.84C262.871 108.627 262.535 108.355 262.268 108.024V108.616C262.268 108.723 262.231 108.813 262.156 108.888C262.092 108.963 262.001 109 261.884 109H260.62C260.513 109 260.423 108.963 260.348 108.888C260.273 108.813 260.236 108.723 260.236 108.616V98.024C260.236 97.9173 260.273 97.8267 260.348 97.752C260.423 97.6773 260.513 97.64 260.62 97.64H261.98C262.097 97.64 262.188 97.6773 262.252 97.752C262.327 97.8267 262.364 97.9173 262.364 98.024V101.576C262.631 101.267 262.961 101.016 263.356 100.824C263.761 100.621 264.252 100.52 264.828 100.52C265.393 100.52 265.884 100.616 266.3 100.808C266.716 101 267.063 101.272 267.34 101.624C267.628 101.965 267.847 102.365 267.996 102.824C268.145 103.283 268.225 103.779 268.236 104.312C268.247 104.504 268.252 104.68 268.252 104.84C268.252 104.989 268.247 105.16 268.236 105.352C268.215 105.907 268.129 106.419 267.98 106.888C267.831 107.347 267.617 107.747 267.34 108.088C267.063 108.429 266.716 108.696 266.3 108.888C265.884 109.069 265.393 109.16 264.828 109.16ZM264.236 107.448C264.695 107.448 265.052 107.352 265.308 107.16C265.564 106.957 265.745 106.696 265.852 106.376C265.969 106.056 266.039 105.704 266.06 105.32C266.081 105 266.081 104.68 266.06 104.36C266.039 103.976 265.969 103.624 265.852 103.304C265.745 102.984 265.564 102.728 265.308 102.536C265.052 102.333 264.695 102.232 264.236 102.232C263.809 102.232 263.463 102.328 263.196 102.52C262.929 102.712 262.727 102.957 262.588 103.256C262.449 103.544 262.375 103.848 262.364 104.168C262.353 104.36 262.348 104.568 262.348 104.792C262.348 105.005 262.353 105.208 262.364 105.4C262.385 105.731 262.455 106.056 262.572 106.376C262.7 106.685 262.897 106.941 263.164 107.144C263.441 107.347 263.799 107.448 264.236 107.448ZM273.185 109.16C272.545 109.16 271.995 109.085 271.537 108.936C271.089 108.787 270.721 108.6 270.433 108.376C270.145 108.152 269.931 107.928 269.793 107.704C269.654 107.48 269.579 107.293 269.569 107.144C269.558 107.027 269.59 106.936 269.665 106.872C269.75 106.797 269.841 106.76 269.937 106.76H271.201C271.243 106.76 271.281 106.765 271.313 106.776C271.345 106.787 271.387 106.819 271.441 106.872C271.579 106.989 271.723 107.112 271.873 107.24C272.033 107.368 272.219 107.48 272.433 107.576C272.646 107.661 272.913 107.704 273.233 107.704C273.649 107.704 273.995 107.624 274.273 107.464C274.561 107.293 274.705 107.053 274.705 106.744C274.705 106.52 274.641 106.339 274.513 106.2C274.395 106.061 274.171 105.939 273.841 105.832C273.51 105.715 273.041 105.592 272.433 105.464C271.835 105.325 271.339 105.149 270.945 104.936C270.55 104.723 270.257 104.456 270.065 104.136C269.873 103.816 269.777 103.443 269.777 103.016C269.777 102.6 269.899 102.205 270.145 101.832C270.401 101.448 270.774 101.133 271.265 100.888C271.766 100.643 272.385 100.52 273.121 100.52C273.697 100.52 274.198 100.595 274.625 100.744C275.051 100.883 275.403 101.059 275.681 101.272C275.969 101.485 276.187 101.704 276.337 101.928C276.486 102.141 276.566 102.328 276.577 102.488C276.587 102.605 276.555 102.701 276.481 102.776C276.406 102.84 276.321 102.872 276.225 102.872H275.041C274.987 102.872 274.939 102.861 274.897 102.84C274.854 102.819 274.811 102.792 274.769 102.76C274.651 102.653 274.523 102.541 274.385 102.424C274.246 102.307 274.075 102.205 273.873 102.12C273.681 102.024 273.425 101.976 273.105 101.976C272.699 101.976 272.39 102.067 272.177 102.248C271.963 102.419 271.857 102.637 271.857 102.904C271.857 103.085 271.905 103.245 272.001 103.384C272.107 103.512 272.315 103.635 272.625 103.752C272.934 103.869 273.403 103.992 274.033 104.12C274.747 104.248 275.313 104.44 275.729 104.696C276.155 104.941 276.454 105.229 276.625 105.56C276.806 105.88 276.897 106.237 276.897 106.632C276.897 107.112 276.753 107.544 276.465 107.928C276.187 108.312 275.771 108.616 275.217 108.84C274.673 109.053 273.995 109.16 273.185 109.16ZM278.932 109C278.826 109 278.735 108.963 278.66 108.888C278.586 108.813 278.548 108.723 278.548 108.616V101.064C278.548 100.957 278.586 100.867 278.66 100.792C278.735 100.717 278.826 100.68 278.932 100.68H280.26C280.378 100.68 280.468 100.717 280.532 100.792C280.607 100.867 280.644 100.957 280.644 101.064V108.616C280.644 108.723 280.607 108.813 280.532 108.888C280.468 108.963 280.378 109 280.26 109H278.932ZM278.868 99.304C278.751 99.304 278.655 99.272 278.58 99.208C278.516 99.1333 278.484 99.0373 278.484 98.92V97.768C278.484 97.6613 278.516 97.5707 278.58 97.496C278.655 97.4213 278.751 97.384 278.868 97.384H280.324C280.442 97.384 280.538 97.4213 280.612 97.496C280.687 97.5707 280.724 97.6613 280.724 97.768V98.92C280.724 99.0373 280.687 99.1333 280.612 99.208C280.538 99.272 280.442 99.304 280.324 99.304H278.868ZM286.527 109C285.887 109 285.348 108.888 284.911 108.664C284.474 108.44 284.148 108.109 283.935 107.672C283.722 107.224 283.615 106.669 283.615 106.008V102.376H282.351C282.244 102.376 282.154 102.339 282.079 102.264C282.004 102.189 281.967 102.099 281.967 101.992V101.064C281.967 100.957 282.004 100.867 282.079 100.792C282.154 100.717 282.244 100.68 282.351 100.68H283.615V98.024C283.615 97.9173 283.647 97.8267 283.711 97.752C283.786 97.6773 283.882 97.64 283.999 97.64H285.295C285.402 97.64 285.492 97.6773 285.567 97.752C285.642 97.8267 285.679 97.9173 285.679 98.024V100.68H287.679C287.786 100.68 287.876 100.717 287.951 100.792C288.026 100.867 288.063 100.957 288.063 101.064V101.992C288.063 102.099 288.026 102.189 287.951 102.264C287.876 102.339 287.786 102.376 287.679 102.376H285.679V105.848C285.679 106.285 285.754 106.627 285.903 106.872C286.063 107.117 286.335 107.24 286.719 107.24H287.823C287.93 107.24 288.02 107.277 288.095 107.352C288.17 107.427 288.207 107.517 288.207 107.624V108.616C288.207 108.723 288.17 108.813 288.095 108.888C288.02 108.963 287.93 109 287.823 109H286.527ZM293.21 109.16C292.026 109.16 291.088 108.819 290.394 108.136C289.701 107.453 289.328 106.483 289.274 105.224C289.264 105.117 289.258 104.984 289.258 104.824C289.258 104.653 289.264 104.52 289.274 104.424C289.317 103.624 289.498 102.931 289.818 102.344C290.149 101.757 290.602 101.309 291.178 101C291.754 100.68 292.432 100.52 293.21 100.52C294.074 100.52 294.8 100.701 295.386 101.064C295.973 101.416 296.416 101.912 296.714 102.552C297.013 103.181 297.162 103.912 297.162 104.744V105.08C297.162 105.187 297.125 105.277 297.05 105.352C296.976 105.427 296.88 105.464 296.762 105.464H291.45C291.45 105.464 291.45 105.48 291.45 105.512C291.45 105.544 291.45 105.571 291.45 105.592C291.461 105.965 291.53 106.312 291.658 106.632C291.797 106.941 291.994 107.192 292.25 107.384C292.517 107.576 292.832 107.672 293.194 107.672C293.493 107.672 293.744 107.629 293.946 107.544C294.149 107.448 294.314 107.341 294.442 107.224C294.57 107.107 294.661 107.011 294.714 106.936C294.81 106.808 294.885 106.733 294.938 106.712C295.002 106.68 295.093 106.664 295.21 106.664H296.586C296.693 106.664 296.778 106.696 296.842 106.76C296.917 106.824 296.949 106.904 296.938 107C296.928 107.171 296.837 107.379 296.666 107.624C296.506 107.869 296.272 108.109 295.962 108.344C295.653 108.579 295.264 108.776 294.794 108.936C294.336 109.085 293.808 109.16 293.21 109.16ZM291.45 104.12H294.986V104.072C294.986 103.656 294.917 103.293 294.778 102.984C294.64 102.675 294.437 102.429 294.17 102.248C293.904 102.067 293.584 101.976 293.21 101.976C292.837 101.976 292.517 102.067 292.25 102.248C291.984 102.429 291.781 102.675 291.642 102.984C291.514 103.293 291.45 103.656 291.45 104.072V104.12Z" fill="white"/>
<rect x="379" y="110" width="48" height="48" rx="16" fill="#FF5B79"/>
<path d="M403 133.969C401.625 133.969 400.5 133.531 399.625 132.656C398.75 131.781 398.312 130.656 398.312 129.281C398.312 127.906 398.75 126.781 399.625 125.906C400.5 125.031 401.625 124.594 403 124.594C404.375 124.594 405.5 125.031 406.375 125.906C407.25 126.781 407.687 127.906 407.687 129.281C407.687 130.656 407.25 131.781 406.375 132.656C405.5 133.531 404.375 133.969 403 133.969ZM393 144V141.062C393 140.271 393.198 139.594 393.594 139.031C393.99 138.469 394.5 138.042 395.125 137.75C396.521 137.125 397.859 136.656 399.141 136.344C400.422 136.031 401.708 135.875 403 135.875C404.292 135.875 405.573 136.036 406.844 136.359C408.115 136.682 409.448 137.146 410.844 137.75C411.49 138.042 412.01 138.469 412.406 139.031C412.802 139.594 413 140.271 413 141.062V144H393Z" fill="white"/>
<rect x="379" width="48" height="48" rx="16" fill="#616161"/>
<path d="M408.844 35.25L408.531 33.1875C408.177 33.0833 407.818 32.9323 407.453 32.7344C407.089 32.5365 406.781 32.3125 406.531 32.0625L404.812 32.4375L404.031 31.125L405.5 29.75C405.458 29.5625 405.437 29.3021 405.437 28.9688C405.437 28.6354 405.458 28.375 405.5 28.1875L404.031 26.8125L404.812 25.5L406.531 25.875C406.781 25.625 407.089 25.401 407.453 25.2031C407.818 25.0052 408.177 24.8542 408.531 24.75L408.844 22.6875H410.531L410.844 24.75C411.198 24.8542 411.557 25.0052 411.922 25.2031C412.286 25.401 412.594 25.625 412.844 25.875L414.562 25.5L415.344 26.8125L413.875 28.1875C413.917 28.375 413.938 28.6354 413.938 28.9688C413.938 29.3021 413.917 29.5625 413.875 29.75L415.344 31.125L414.562 32.4375L412.844 32.0625C412.594 32.3125 412.286 32.5365 411.922 32.7344C411.557 32.9323 411.198 33.0833 410.844 33.1875L410.531 35.25H408.844ZM390.5 33.875V30.9375C390.5 30.2083 390.682 29.5521 391.047 28.9688C391.411 28.3854 391.938 27.9375 392.625 27.625C394.125 26.9583 395.516 26.4792 396.797 26.1875C398.078 25.8958 399.313 25.75 400.5 25.75H401.219C400.781 26.8125 400.583 28.2135 400.625 29.9531C400.667 31.6927 401.021 33 401.687 33.875H390.5ZM409.688 31.4688C410.438 31.4688 411.042 31.2396 411.5 30.7812C411.958 30.3229 412.188 29.7188 412.188 28.9688C412.188 28.2188 411.958 27.6146 411.5 27.1562C411.042 26.6979 410.438 26.4688 409.688 26.4688C408.938 26.4688 408.333 26.6979 407.875 27.1562C407.417 27.6146 407.188 28.2188 407.188 28.9688C407.188 29.7188 407.417 30.3229 407.875 30.7812C408.333 31.2396 408.938 31.4688 409.688 31.4688ZM400.5 23.8438C399.125 23.8438 398 23.4062 397.125 22.5312C396.25 21.6562 395.812 20.5313 395.812 19.1562C395.812 17.7812 396.25 16.6563 397.125 15.7813C398 14.9063 399.125 14.4688 400.5 14.4688C401.875 14.4688 403 14.9063 403.875 15.7813C404.75 16.6563 405.188 17.7812 405.188 19.1562C405.188 20.5313 404.75 21.6562 403.875 22.5312C403 23.4062 401.875 23.8438 400.5 23.8438Z" fill="white"/>
</g>
<defs>
<clipPath id="clip0_856_572">
<rect width="427" height="184" fill="white"/>
</clipPath>
</defs>
</svg>
